<?xml version="1.0" standalone="no"?>
<!DOCTYPE svg PUBLIC "-//W3C//DTD SVG 1.1//EN" "http://www.w3.org/Graphics/SVG/1.1/DTD/svg11.dtd" >
<svg>
<metadata>
Created by FontForge 20090622 at Fri Mar  6 12:07:57 2020
 By deploy user
Copyright 1990-2003 Bitstream Inc. All rights reserved.
</metadata>
<defs>
<font id="Charter-Roman" horiz-adv-x="0" >
  <font-face 
    font-family="Charter"
    font-weight="400"
    font-stretch="normal"
    units-per-em="2048"
    panose-1="2 4 5 3 5 5 6 2 2 3"
    ascent="1638"
    descent="-410"
    x-height="985"
    cap-height="1374"
    bbox="-2217 -1012 3186 2465"
    underline-thickness="125"
    underline-position="-161"
    unicode-range="U+0020-U+FE48"
  />
<missing-glyph horiz-adv-x="1229" 
d="M102 -362v1806h1024v-1806h-1024zM217 -248h795v1577h-795v-1577z" />
    <glyph glyph-name=".notdef" horiz-adv-x="1229" 
d="M102 -362v1806h1024v-1806h-1024zM217 -248h795v1577h-795v-1577z" />
    <glyph glyph-name="space" unicode=" " horiz-adv-x="569" 
 />
    <glyph glyph-name="exclam" unicode="!" horiz-adv-x="692" 
d="M346 215q49 0 83 -34t34 -83q0 -48 -34 -82t-83 -34q-48 0 -82.5 34t-34.5 82q0 49 34.5 83t82.5 34zM453 1133l-58 -783h-98l-57 782q-3 34 -5 64t-2 55q0 73 28.5 110.5t84.5 37.5q55 0 84 -37.5t29 -110.5q0 -16 -1.5 -45t-4.5 -73z" />
    <glyph glyph-name="quotedbl" unicode="&#x22;" horiz-adv-x="678" 
d="M518 864h-31l-65 457q0 2 -1 6q-3 22 -3 33q0 49 22.5 75.5t63.5 26.5q40 0 62 -26t22 -74q0 -14 -0.5 -23t-1.5 -18zM190 864h-32l-64 457l-3 26t-1 15q0 48 22 74t62 26q41 0 63.5 -26t22.5 -74q0 -9 -3 -34q-1 -5 -1 -7z" />
    <glyph glyph-name="numbersign" unicode="#" horiz-adv-x="1526" 
d="M662 866l-101 -299h305l105 299h-309zM758 1454l96 -37l-162 -454h316l163 489l97 -35l-160 -454h285v-97h-318l-100 -299h334v-96h-367l-172 -518l-96 33l164 485h-314l-170 -518l-96 33l168 485h-295v96h326l98 299h-324v97h357z" />
    <glyph glyph-name="dollar" unicode="$" horiz-adv-x="1139" 
d="M621 602v-500q105 17 167 85.5t62 168.5q0 90 -57.5 151t-171.5 95zM530 1274q-95 -21 -147.5 -83t-52.5 -153q0 -86 49.5 -144.5t150.5 -90.5v471zM530 1522h86v-146h17q67 0 149 -11t181 -34v-319h-93l-30 190l-31 43q-48 18 -96 26.5t-97 8.5v-502q219 -59 311.5 -148
t92.5 -237t-108 -254t-296 -139v-209h-86v209q-124 4 -228 17t-183 34v344h94l37 -223l18 -27q53 -25 118.5 -38t143.5 -13v535q-187 43 -280.5 136t-93.5 236q0 144 99 241.5t275 127.5v152z" />
    <glyph glyph-name="percent" unicode="%" horiz-adv-x="1745" 
d="M1370 762q-77 0 -118.5 -91.5t-41.5 -264.5q0 -176 40.5 -266.5t119.5 -90.5q81 0 122.5 90.5t41.5 266.5q0 173 -42 264.5t-122 91.5zM1374 834q142 0 224.5 -115t82.5 -313q0 -201 -82 -316t-225 -115t-225 114.5t-82 316.5q0 198 83 313t224 115zM367 1325
q-78 0 -119 -90.5t-41 -263.5q0 -176 40.5 -266.5t119.5 -90.5q80 0 121.5 91t41.5 266q0 173 -41.5 263.5t-121.5 90.5zM1245 1374h125l-876 -1374h-123zM371 1399q141 0 224 -115t83 -313q0 -201 -82.5 -315.5t-224.5 -114.5q-143 0 -225.5 114t-82.5 316q0 198 83 313
t225 115z" />
    <glyph glyph-name="ampersand" unicode="&#x26;" horiz-adv-x="1442" 
d="M457 686q-84 -57 -122 -120t-38 -144q0 -141 85 -232.5t216 -91.5q79 0 149 30.5t136 92.5zM637 731l352 -381q49 70 77 129t38 113l-37 39l-113 16v82h416v-82l-147 -20q-29 -99 -71.5 -186t-98.5 -162l159 -185l187 -10v-84h-361v49l-92 103q-103 -89 -202 -133
t-199 -44q-189 0 -312.5 115t-123.5 289q0 122 67 213.5t203 152.5q-89 88 -128.5 162t-39.5 152q0 143 107 241.5t266 98.5q155 0 253.5 -87t98.5 -220q0 -119 -69 -202.5t-230 -158.5zM565 799q105 48 153 116t48 166q0 102 -54.5 163t-146.5 61q-82 0 -136 -57t-54 -144
q0 -73 43 -143t147 -162z" />
    <glyph glyph-name="quotesingle" unicode="'" horiz-adv-x="348" 
d="M190 864h-32l-66 457q-1 8 -1.5 16t-0.5 23q0 50 21.5 76t62.5 26t63.5 -26t22.5 -74q0 -9 -3 -34q-1 -5 -1 -7z" />
    <glyph glyph-name="parenleft" unicode="(" horiz-adv-x="854" 
d="M791 1470v-86q-206 -36 -303 -230.5t-97 -571.5q0 -366 98 -559t302 -228v-86q-273 32 -423.5 260.5t-150.5 614.5q0 394 148.5 623t425.5 263z" />
    <glyph glyph-name="parenright" unicode=")" horiz-adv-x="854" 
d="M63 1470q277 -34 425.5 -263t148.5 -623q0 -386 -150.5 -614.5t-423.5 -260.5v86q204 35 302 228t98 559q0 377 -97 571.5t-303 230.5v86z" />
    <glyph glyph-name="asterisk" unicode="*" horiz-adv-x="1024" 
d="M252 1206l223 -143l-8 -25l-264 17l-92 114zM479 1006l21 -15l-97 -248l-137 -51l8 148zM545 1006l203 -166l8 -148l-138 53l-96 246zM772 1206l143 -37l-94 -114l-262 -17l-8 27zM512 1470l80 -124l-66 -256h-28l-66 256z" />
    <glyph glyph-name="plus" unicode="+" horiz-adv-x="1706" 
d="M795 1221h118v-551h539v-117h-539v-553h-118v553h-541v117h541v551z" />
    <glyph glyph-name="comma" unicode="," horiz-adv-x="569" 
d="M80 -346v67q112 22 168.5 90t56.5 181v22h-131q-17 19 -25 41t-8 49q0 50 34 81.5t87 31.5q78 0 121 -53.5t43 -151.5q0 -137 -98 -239.5t-248 -118.5z" />
    <glyph glyph-name="hyphen" unicode="-" horiz-adv-x="653" 
d="M96 561h461v-137h-461v137z" />
    <glyph glyph-name="period" unicode="." horiz-adv-x="569" 
d="M285 242q54 0 91.5 -38t37.5 -93q0 -54 -38 -91.5t-91 -37.5q-55 0 -93 37t-38 92q0 54 38 92.5t93 38.5z" />
    <glyph glyph-name="slash" unicode="/" horiz-adv-x="985" 
d="M817 1374h125l-876 -1564h-123z" />
    <glyph glyph-name="zero" unicode="0" horiz-adv-x="1139" 
d="M569 1303q-143 0 -218 -157.5t-75 -459.5q0 -300 75 -456t218 -156t217 156.5t74 457.5q0 302 -74 458.5t-217 156.5zM569 1399q226 0 356 -190t130 -521q0 -332 -130.5 -522.5t-355.5 -190.5q-224 0 -354.5 190.5t-130.5 522.5q0 331 130 521t355 190z" />
    <glyph glyph-name="one" unicode="1" horiz-adv-x="1139" 
d="M637 1399h57v-1272l25 -31l221 -10v-86h-686v88l235 12l25 35v1102l-321 -57v86z" />
    <glyph glyph-name="two" unicode="2" horiz-adv-x="1139" 
d="M289 162h616l37 174h92v-336h-948v129q448 364 576.5 531t128.5 325q0 145 -72.5 227t-200.5 82q-48 0 -93 -12t-89 -37v-219q-22 -15 -45 -23t-47 -8q-53 0 -84 31t-31 84q0 115 127.5 202t306.5 87q195 0 310.5 -105.5t115.5 -281.5q0 -162 -140.5 -339t-559.5 -511z
" />
    <glyph glyph-name="three" unicode="3" horiz-adv-x="1139" 
d="M649 723q168 -12 263.5 -100t95.5 -230q0 -179 -145.5 -297.5t-373.5 -118.5q-167 0 -286 69t-119 157q0 44 33 74t82 30q17 0 32 -2.5t29 -7.5l64 -174q41 -25 84.5 -37t89.5 -12q138 0 229.5 92.5t91.5 230.5q0 123 -78.5 189.5t-224.5 66.5q-28 0 -55.5 -2t-52.5 -6
v121q7 0 21 -1t22 -1q152 0 234.5 69t82.5 195q0 121 -71 193.5t-189 72.5q-55 0 -103 -14.5t-92 -44.5v-193q-18 -13 -38.5 -19.5t-45.5 -6.5q-49 0 -79.5 30.5t-30.5 79.5q0 110 126 191.5t306 81.5q183 0 293 -94t110 -250q0 -120 -78 -204.5t-227 -127.5z" />
    <glyph glyph-name="four" unicode="4" horiz-adv-x="1139" 
d="M715 1163l-506 -633h506v633zM754 1386h118v-856h232v-133h-232v-473h-157v473h-660v133z" />
    <glyph glyph-name="five" unicode="5" horiz-adv-x="1139" 
d="M207 1374h733v-160h-606v-409q58 16 113 24.5t106 8.5q203 0 325.5 -108t122.5 -286q0 -204 -151 -333t-395 -129q-150 0 -251.5 56.5t-101.5 135.5q0 48 33.5 78.5t85.5 30.5q9 0 21 -1.5t29 -5.5l81 -176q34 -12 68.5 -18t68.5 -6q143 0 233.5 91.5t90.5 235.5
q0 156 -104.5 232t-321.5 76q-57 0 -101.5 -3t-78.5 -10v676z" />
    <glyph glyph-name="six" unicode="6" horiz-adv-x="1139" 
d="M297 696q-2 -22 -3 -48.5t-1 -76.5q0 -240 78 -368.5t225 -128.5q128 0 210.5 105t82.5 267q0 156 -81 249t-214 93q-85 0 -159.5 -23t-137.5 -69zM907 1462v-119h-6q-246 0 -399 -141.5t-201 -415.5q80 62 168.5 93.5t179.5 31.5q185 0 305.5 -126.5t120.5 -319.5
q0 -208 -142.5 -349t-352.5 -141q-215 0 -346.5 162t-131.5 430q0 394 214.5 632.5t590.5 262.5z" />
    <glyph glyph-name="seven" unicode="7" horiz-adv-x="1139" 
d="M145 1374h942v-82l-679 -1323v-45h-170l667 1295h-631l-32 -187h-97v342z" />
    <glyph glyph-name="eight" unicode="8" horiz-adv-x="1139" 
d="M449 674q-106 -56 -153.5 -127t-47.5 -172q0 -137 87.5 -219t233.5 -82q131 0 211 75t80 197q0 99 -75 164.5t-336 163.5zM743 719q143 -50 218 -140.5t75 -211.5q0 -170 -133.5 -285t-339.5 -115q-215 0 -344 108.5t-129 286.5q0 123 71 212t210 143
q-106 44 -160.5 124.5t-54.5 190.5q0 165 117.5 268t306.5 103q179 0 289 -95.5t110 -248.5q0 -103 -61.5 -192t-174.5 -148zM657 756q78 51 121 125t43 157q0 122 -67 194.5t-181 72.5q-105 0 -176 -70t-71 -172q0 -98 79 -171.5t252 -135.5z" />
    <glyph glyph-name="nine" unicode="9" horiz-adv-x="1139" 
d="M258 -106l-47 94q240 112 389 250.5t215 312.5q-86 -40 -163 -60t-144 -20q-188 0 -304 121.5t-116 318.5q0 213 140 348.5t360 135.5q216 0 338.5 -139t122.5 -386q0 -312 -211.5 -574t-579.5 -402zM842 653q12 54 18 106t6 101q0 211 -77 324.5t-220 113.5
q-129 0 -208.5 -100t-79.5 -264q0 -170 78.5 -261t224.5 -91q59 0 123.5 17.5t134.5 53.5z" />
    <glyph glyph-name="colon" unicode=":" horiz-adv-x="653" 
d="M326 242q54 0 92.5 -38.5t38.5 -92.5t-38.5 -91.5t-92.5 -37.5q-55 0 -92 37t-37 92t37.5 93t91.5 38zM326 985q54 0 92.5 -37.5t38.5 -91.5t-39 -92.5t-92 -38.5q-54 0 -91.5 38.5t-37.5 92.5q0 55 37 92t92 37z" />
    <glyph glyph-name="semicolon" unicode=";" horiz-adv-x="653" 
d="M133 -346v67q112 22 168.5 90t56.5 181v22h-133q-16 19 -24 41t-8 49q0 50 33.5 81.5t86.5 31.5q78 0 121 -53.5t43 -151.5q0 -137 -97 -239.5t-247 -118.5zM326 985q54 0 92.5 -37.5t38.5 -91.5t-39 -92.5t-92 -38.5q-54 0 -91.5 38.5t-37.5 92.5q0 55 37 92t92 37z" />
    <glyph glyph-name="less" unicode="&#x3c;" horiz-adv-x="1706" 
d="M1442 1145v-127l-1000 -408l1000 -405v-129l-1178 483v103z" />
    <glyph glyph-name="equal" unicode="=" horiz-adv-x="1706" 
d="M254 477h1198v-117h-1198v117zM254 860h1198v-117h-1198v117z" />
    <glyph glyph-name="greater" unicode="&#x3e;" horiz-adv-x="1706" 
d="M264 1145l1178 -483v-103l-1178 -483v129l1000 405l-1000 408v127z" />
    <glyph glyph-name="question" unicode="?" horiz-adv-x="995" 
d="M410 215q49 0 83.5 -34t34.5 -83q0 -48 -35 -82t-83 -34t-81.5 33.5t-33.5 82.5t33.5 83t81.5 34zM465 590v-240h-109v299q148 56 222.5 148t74.5 219q0 137 -75 213t-211 76h-13l-82 -203q-6 -1 -13.5 -1.5t-22.5 -0.5q-59 0 -91 28.5t-32 79.5q0 81 85 136t216 55
q194 0 310 -101.5t116 -269.5q0 -142 -91.5 -248.5t-283.5 -189.5z" />
    <glyph glyph-name="at" unicode="@" horiz-adv-x="1929" 
d="M1133 921q-16 3 -27 4t-19 1q-144 0 -241.5 -130.5t-97.5 -326.5q0 -110 43.5 -168.5t126.5 -58.5q54 0 107 33t108 102l84 430zM1432 999q-22 -55 -47 -178l-9 -41l-80 -352q-8 -35 -12 -63.5t-4 -49.5q0 -39 23.5 -63.5t62.5 -24.5q43 0 90.5 28t89.5 79q68 80 106 195
t38 243q0 244 -162.5 400.5t-417.5 156.5q-167 0 -306 -51.5t-249 -153.5q-128 -118 -191 -266t-63 -330q0 -335 200.5 -538t530.5 -203q140 0 276 38t263 112l28 -70q-159 -89 -317 -134.5t-305 -45.5q-172 0 -323 58.5t-269 172.5q-114 109 -171.5 257t-57.5 329
q0 203 74.5 373.5t222.5 306.5q121 110 286.5 171.5t341.5 61.5q322 0 512.5 -178t190.5 -475q0 -113 -29 -214t-86 -190q-73 -113 -179.5 -180t-209.5 -67q-74 0 -113 40t-39 117v19q-84 -88 -158 -130t-143 -42q-112 0 -183 90.5t-71 236.5q0 96 29.5 185t85.5 166
q74 99 179.5 156t215.5 57q49 0 98.5 -14t102.5 -42l37 47h111z" />
    <glyph glyph-name="A" unicode="A" horiz-adv-x="1309" 
d="M614 1176l-202 -568h413zM582 1391h135l491 -1282l123 -25v-84h-465v84l127 10l15 29l-148 391h-483l-146 -391l21 -29l133 -10v-84h-401v84l118 25z" />
    <glyph glyph-name="B" unicode="B" horiz-adv-x="1237" 
d="M404 102q37 -3 71 -4.5t66 -1.5q210 0 305.5 69.5t95.5 221.5q0 139 -83.5 207t-254.5 68q-40 0 -90.5 -3.5t-110.5 -9.5zM404 752q13 -1 29.5 -1.5t47.5 -0.5q194 0 284.5 68.5t90.5 215.5q0 125 -84 187.5t-252 62.5q-15 0 -53.5 -2.5t-63.5 -3.5zM68 1374h522
q237 0 353 -82t116 -250q0 -116 -74.5 -194.5t-222.5 -118.5q180 -2 280.5 -88.5t100.5 -239.5q0 -195 -137.5 -298t-397.5 -103h-540v84l116 10l35 29v1128l-35 29l-116 12v82z" />
    <glyph glyph-name="C" unicode="C" horiz-adv-x="1294" 
d="M1204 47q-101 -35 -206 -53.5t-207 -18.5q-101 0 -189 21t-160 61q-165 94 -259.5 262.5t-94.5 368.5q0 320 195.5 515.5t515.5 195.5q92 0 193.5 -17.5t211.5 -52.5v-315h-114l-31 186l-27 37q-59 27 -115 40t-114 13q-232 0 -368 -158t-136 -430q0 -289 142 -453.5
t393 -164.5q44 0 88.5 6.5t89.5 20.5l32 32l50 228h110v-324z" />
    <glyph glyph-name="D" unicode="D" horiz-adv-x="1419" 
d="M403 1280v-1186h162q280 0 418.5 147.5t138.5 446.5t-137.5 445.5t-419.5 146.5h-162zM573 1374q360 0 558 -179.5t198 -506.5q0 -182 -64.5 -323.5t-191.5 -237.5q-90 -68 -203 -97.5t-297 -29.5h-505v84l116 10l35 29v1128l-35 29l-116 12v82h505z" />
    <glyph glyph-name="E" unicode="E" horiz-adv-x="1180" 
d="M68 0v84l116 10l35 29v1128l-35 29l-116 12v82h981v-299h-115l-29 174l-28 31h-474v-518h336l29 29l20 149h97v-451h-97l-20 148l-29 31h-336v-574h549l29 33l35 207h106v-334h-1054z" />
    <glyph glyph-name="F" unicode="F" horiz-adv-x="1100" 
d="M68 0v84l116 10l35 29v1128l-35 29l-133 12v82h983v-319h-112l-31 194l-27 31h-461v-539h336l29 29l20 150h97v-453h-97l-20 149l-29 31h-336v-524l35 -29l146 -10v-84h-516z" />
    <glyph glyph-name="G" unicode="G" horiz-adv-x="1421" 
d="M854 659h512v-84l-113 -10l-34 -28v-490q-124 -36 -229.5 -54t-194.5 -18q-102 0 -191.5 21t-161.5 61q-165 94 -259.5 262t-94.5 369q0 326 199 518.5t536 192.5q93 0 192 -15t202 -45v-325h-115l-31 186l-29 37q-58 27 -115.5 40t-117.5 13q-237 0 -373.5 -157
t-136.5 -431q0 -287 141.5 -452.5t384.5 -165.5q47 0 99.5 6.5t109.5 20.5v426l-35 28l-145 10v84z" />
    <glyph glyph-name="H" unicode="H" horiz-adv-x="1511" 
d="M68 1374h497v-82l-127 -12l-35 -29v-483h705v483l-35 29l-127 12v82h498v-82l-117 -12l-35 -29v-1128l35 -29l117 -10v-84h-498v84l127 10l35 29v551h-705v-551l35 -29l127 -10v-84h-497v84l116 10l35 29v1128l-35 29l-116 12v82z" />
    <glyph glyph-name="I" unicode="I" horiz-adv-x="664" 
d="M72 0v84l131 10l35 29v1128l-35 29l-131 12v82h520v-82l-131 -12l-35 -29v-1128l35 -29l131 -10v-84h-520z" />
    <glyph glyph-name="J" unicode="J" horiz-adv-x="909" 
d="M555 1251l-35 29l-137 12v82h518v-82l-127 -12l-35 -29v-727q0 -284 -108 -416.5t-338 -132.5q-64 0 -130.5 12.5t-137.5 37.5v342h114l49 -258l29 -27q18 -4 36 -6t36 -2q139 0 202.5 104t63.5 338v735z" />
    <glyph glyph-name="K" unicode="K" horiz-adv-x="1251" 
d="M68 0v84l116 10l35 29v1128l-35 29l-116 12v82h497v-82l-127 -12l-35 -29v-555h78l455 555l-12 29l-115 12v82h426v-82l-135 -18l-430 -512l465 -668l149 -10v-84h-338v61l-391 551h-152v-489l35 -29l127 -10v-84h-497z" />
    <glyph glyph-name="L" unicode="L" horiz-adv-x="1065" 
d="M55 0v84l129 10l35 29v1128l-35 29l-129 12v82h500v-82l-117 -12l-35 -29v-1157h463l29 33l35 246h106v-373h-981z" />
    <glyph glyph-name="M" unicode="M" horiz-adv-x="1774" 
d="M63 0v84l123 16l37 39v1112l-26 29l-136 12v82h435v-55l385 -1028l389 1020v63h438v-82l-129 -12l-25 -29v-1128l25 -29l129 -10v-84h-489v84l135 10l20 29v1155l-485 -1278h-88l-467 1257v-1118l37 -39l125 -16v-84h-433z" />
    <glyph glyph-name="N" unicode="N" horiz-adv-x="1460" 
d="M59 0v84l125 16l37 39v1112l-37 29l-131 12v82h385v-51l699 -1049v963l-37 37l-123 18v82h430v-82l-123 -18l-37 -37v-1237h-135l-780 1163v-1024l37 -39l123 -16v-84h-433z" />
    <glyph glyph-name="O" unicode="O" horiz-adv-x="1497" 
d="M750 1298q-206 0 -327.5 -164.5t-121.5 -445.5q0 -280 122.5 -446t326.5 -166q202 0 324 166.5t122 445.5t-122 444.5t-324 165.5zM750 1409q131 0 244 -45t206 -135q104 -101 157.5 -238t53.5 -303q0 -114 -26 -215t-78 -190q-87 -149 -234 -232.5t-323 -83.5
q-131 0 -246.5 45t-204.5 131q-104 101 -157.5 239t-53.5 306q0 167 53 304t156 237q92 89 206.5 134.5t246.5 45.5z" />
    <glyph glyph-name="P" unicode="P" horiz-adv-x="1143" 
d="M403 625q56 -6 86.5 -8.5t49.5 -2.5q175 0 266.5 89t91.5 258q0 163 -94.5 241t-292.5 78q-42 0 -64.5 -1t-42.5 -3v-651zM68 0v84l116 10l35 29v1128l-35 29l-133 12v82h467q308 0 438.5 -97t130.5 -321q0 -200 -143.5 -320t-386.5 -120q-25 0 -61 2.5t-92 7.5l-1 -403
l35 -29l146 -10v-84h-516z" />
    <glyph glyph-name="Q" unicode="Q" horiz-adv-x="1497" 
d="M750 80q206 0 329 165.5t123 444.5q0 281 -123 445.5t-329 164.5q-209 0 -331 -164t-122 -446q0 -279 123.5 -444.5t329.5 -165.5zM848 -23q5 -122 77.5 -182.5t213.5 -60.5q46 0 93.5 5.5t98.5 16.5v-84q-78 -16 -150.5 -24t-138.5 -8q-196 0 -292.5 83.5t-96.5 253.5
q-264 40 -418.5 232t-154.5 481q0 168 54.5 305.5t160.5 237.5q92 88 207.5 133t247.5 45t248 -45.5t208 -132.5q105 -100 159 -238t54 -305q0 -287 -153.5 -478t-417.5 -235z" />
    <glyph glyph-name="R" unicode="R" horiz-adv-x="1323" 
d="M403 1280v-571q31 -1 59 -1.5t54 -0.5q190 0 276.5 67t86.5 215q0 153 -89 222t-288 69h-99zM68 1374h522q251 0 372 -90.5t121 -277.5q0 -133 -83 -218.5t-248 -121.5q77 -21 129 -54.5t82 -83.5q34 -55 58 -161.5t38 -141.5q31 -84 85 -114.5t181 -30.5h18v-78
q-46 -9 -85 -13.5t-74 -4.5q-71 0 -121.5 14.5t-85.5 44.5q-73 64 -121 250q-18 67 -29 100q-41 125 -110.5 173t-210.5 48q-30 0 -96 -3l-7 -1v-487l35 -29l117 -10v-84h-487v84l116 10l35 29v1128l-35 29l-116 12v82z" />
    <glyph glyph-name="S" unicode="S" horiz-adv-x="1139" 
d="M123 41v360h121l24 -235l27 -35q45 -23 103 -35t126 -12q143 0 226.5 66.5t83.5 179.5q0 157 -294 282l-49 21q-210 91 -278 169.5t-68 203.5q0 176 129.5 284.5t343.5 108.5q86 0 172.5 -14.5t176.5 -43.5v-317h-107l-31 195l-30 34q-39 22 -85 32.5t-100 10.5
q-128 0 -203 -66.5t-75 -180.5q0 -83 52.5 -137.5t234.5 -131.5l51 -20q179 -70 258 -148q45 -44 67.5 -101t22.5 -124q0 -185 -145 -298.5t-385 -113.5q-107 0 -201.5 17t-167.5 49z" />
    <glyph glyph-name="T" unicode="T" horiz-adv-x="1223" 
d="M33 1374h1157v-315h-113l-28 190l-29 31h-313v-1157l34 -29l138 -10v-84h-535v84l137 10l35 29v1157h-313l-29 -31l-29 -190h-112v315z" />
    <glyph glyph-name="U" unicode="U" horiz-adv-x="1421" 
d="M51 1374h502v-82l-127 -12l-35 -29v-741q0 -215 86.5 -311.5t278.5 -96.5q190 0 277 97.5t87 310.5v727l-39 37l-123 18v82h433v-82l-123 -18l-37 -37v-745q0 -147 -21 -225t-69 -136q-61 -73 -172.5 -114.5t-251.5 -41.5q-141 0 -252 41.5t-172 114.5q-49 59 -69.5 136
t-20.5 225v759l-35 29l-117 12v82z" />
    <glyph glyph-name="V" unicode="V" horiz-adv-x="1266" 
d="M-47 1374h477v-82l-119 -12l-22 -29l385 -1032l370 1032l-20 29l-127 12v82h408v-82l-127 -24l-471 -1278h-142l-481 1278l-131 24v82z" />
    <glyph glyph-name="W" unicode="W" horiz-adv-x="1901" 
d="M473 0l-344 1264l-129 28v82h459v-82l-129 -16l-17 -29l265 -946l329 1073h144l335 -1095l248 960l-22 29l-137 24v82h423v-82l-137 -28l-325 -1264h-140l-346 1120l-340 -1120h-137z" />
    <glyph glyph-name="X" unicode="X" horiz-adv-x="1229" 
d="M23 1374h493v-82l-123 -12l-16 -25l268 -421l291 413l-18 27l-119 18v82h418v-82l-132 -20l-374 -535l397 -628l139 -25v-84h-518v84l137 14l15 29l-289 465l-324 -459l13 -37l137 -12v-84h-436v84l135 27l411 575l-370 580l-135 26v82z" />
    <glyph glyph-name="Y" unicode="Y" horiz-adv-x="1200" 
d="M-27 1374h476v-82l-117 -12l-21 -23l314 -563l344 547l-19 29l-125 22v82h418v-82l-125 -26l-426 -682v-461l33 -29l139 -10v-84h-530v84l139 10l33 29v434l-408 715l-125 20v82z" />
    <glyph glyph-name="Z" unicode="Z" horiz-adv-x="1200" 
d="M137 1374h957v-86l-779 -1188h619l22 27l37 244h111v-371h-1012v84l776 1192h-546l-39 -27l-33 -192h-113v317z" />
    <glyph glyph-name="bracketleft" unicode="[" horiz-adv-x="862" 
d="M285 1450h485v-88h-324v-1546h324v-86h-485v1720z" />
    <glyph glyph-name="backslash" unicode="\" horiz-adv-x="985" 
d="M27 1374h125l876 -1564h-125z" />
    <glyph glyph-name="bracketright" unicode="]" horiz-adv-x="862" 
d="M94 1450h484v-1722h-484v88h324v1546h-324v88z" />
    <glyph glyph-name="asciicircum" unicode="^" horiz-adv-x="2048" 
d="M934 1462h178l520 -565h-92l-518 436l-520 -436h-90z" />
    <glyph glyph-name="underscore" unicode="_" horiz-adv-x="1024" 
d="M0 -365h1024v-118h-1024v118z" />
    <glyph glyph-name="grave" unicode="`" horiz-adv-x="1024" 
d="M213 1507h203l198 -389h-102z" />
    <glyph glyph-name="a" unicode="a" horiz-adv-x="1038" 
d="M684 188v361q-257 -71 -337.5 -130t-80.5 -155q0 -77 44.5 -122.5t119.5 -45.5q48 0 110.5 23t143.5 69zM684 119q-99 -68 -181.5 -100.5t-154.5 -32.5q-119 0 -190.5 72t-71.5 190q0 131 107.5 206t490.5 167v65q0 129 -42 179t-146 50q-39 0 -77 -8t-79 -24v-172h-141
q-37 0 -50.5 13.5t-13.5 49.5q0 100 115.5 166t298.5 66q161 0 234 -70t73 -225v-594l35 -33l108 -10v-74h-288z" />
    <glyph glyph-name="b" unicode="b" horiz-adv-x="1104" 
d="M346 94q32 -1 60.5 -1.5t52.5 -0.5q201 0 295 98.5t94 309.5q0 191 -83.5 294t-238.5 103q-36 0 -81 -8t-99 -25v-770zM268 1507h78v-573q76 36 145.5 54t135.5 18q181 0 293 -129.5t112 -337.5q0 -266 -150.5 -402.5t-443.5 -136.5h-264v1370h-158v64z" />
    <glyph glyph-name="c" unicode="c" horiz-adv-x="913" 
d="M870 86q-86 -50 -169 -75t-164 -25q-208 0 -334.5 139.5t-126.5 368.5q0 227 134.5 369.5t350.5 142.5q143 0 225 -54.5t82 -146.5q0 -49 -31 -79t-83 -30q-23 0 -46 8t-46 23v168q-24 14 -49 21.5t-50 7.5q-136 0 -218.5 -113.5t-82.5 -302.5q0 -187 93.5 -294.5
t254.5 -107.5q67 0 131 21.5t129 65.5v-107z" />
    <glyph glyph-name="d" unicode="d" horiz-adv-x="1157" 
d="M784 182v703q-56 16 -100.5 24.5t-79.5 8.5q-157 0 -253.5 -116t-96.5 -306q0 -177 83.5 -281t223.5 -104q54 0 109.5 17.5t113.5 53.5zM784 1370h-157v64l250 73h77v-1390l35 -33l98 -10v-74h-303v106q-80 -64 -156 -94t-159 -30q-172 0 -283.5 134.5t-111.5 344.5
q0 244 146.5 395.5t381.5 151.5q41 0 87 -6t95 -17v385z" />
    <glyph glyph-name="e" unicode="e" horiz-adv-x="1006" 
d="M735 625v32q0 124 -54.5 190t-158.5 66q-102 0 -176.5 -81.5t-83.5 -206.5h473zM918 217v-113q-91 -60 -189 -91t-197 -31q-203 0 -329.5 139.5t-126.5 363.5q0 230 132.5 375.5t340.5 145.5q170 0 269.5 -108.5t99.5 -295.5q0 -25 -0.5 -38t-2.5 -25h-663v-23
q0 -193 93 -305.5t251 -112.5q73 0 151.5 29t170.5 90z" />
    <glyph glyph-name="f" unicode="f" horiz-adv-x="657" 
d="M59 0v74l109 10l37 33v745h-131v66l131 30v23q0 247 114 395t302 148q69 0 114 -33.5t45 -83.5q0 -37 -22 -64.5t-62 -37.5l-186 122q-66 -30 -99.5 -110.5t-33.5 -208.5v-150h285v-96h-287v-745l35 -33l127 -10v-74h-478z" />
    <glyph glyph-name="g" unicode="g" horiz-adv-x="1071" 
d="M422 61q-83 -25 -129.5 -78t-46.5 -122q0 -92 78 -152.5t200 -60.5q131 0 218 63t87 154q0 69 -38 102t-170 58zM504 926q-92 0 -146.5 -68.5t-54.5 -183.5q0 -114 55.5 -183t145.5 -69t145.5 69t55.5 183t-55 183t-146 69zM756 948h293v-96h-226q30 -45 44 -91t14 -99
q0 -141 -109 -230.5t-283 -89.5h-34q-12 -23 -17.5 -46t-5.5 -46q0 -7 2 -30q2 -13 2 -19l197 -31q192 -29 270 -86.5t78 -165.5q0 -59 -32.5 -120.5t-90.5 -108.5q-81 -66 -185 -100.5t-220 -34.5q-175 0 -273 70t-98 194q0 99 59 167t162 87q-10 24 -15 47t-5 45
q0 39 24 87t74 107q-117 26 -185.5 109.5t-68.5 200.5q0 151 109.5 244.5t287.5 93.5q59 0 116.5 -14.5t115.5 -43.5z" />
    <glyph glyph-name="h" unicode="h" horiz-adv-x="1155" 
d="M289 1507h78v-624q121 67 197.5 95t133.5 28q135 0 206 -80t71 -232v-577l35 -33l108 -10v-74h-446v74l96 10l35 33v542q0 115 -48 163t-159 48q-49 0 -106 -16.5t-123 -50.5v-686l36 -33l97 -10v-74h-449v74l111 10l35 33v1253h-158v64z" />
    <glyph glyph-name="i" unicode="i" horiz-adv-x="573" 
d="M307 995h80v-878l35 -33l110 -10v-74h-460v74l108 10l35 33v741h-143v64zM315 1450q50 0 84.5 -35t34.5 -84t-34.5 -83t-84.5 -34q-49 0 -83.5 34t-34.5 83q0 50 34.5 84.5t83.5 34.5z" />
    <glyph glyph-name="j" unicode="j" horiz-adv-x="545" 
d="M180 1331q0 50 34.5 84.5t84.5 34.5q49 0 84 -35t35 -84t-35 -83t-84 -34t-84 34t-35 83zM223 858h-145v64l237 73h78v-823q0 -225 -26.5 -320.5t-90.5 -164.5q-59 -65 -135 -99t-159 -34q-66 0 -104 29.5t-38 80.5q0 36 19.5 63t56.5 44l199 -121q55 18 81.5 95.5
t26.5 221.5v891z" />
    <glyph glyph-name="k" unicode="k" horiz-adv-x="1059" 
d="M51 0v74l111 10l35 33v1253h-158v64l250 73h78v-985h39l313 350l-14 29l-93 8v76h389v-76l-131 -16l-280 -297l360 -508l131 -10v-78h-319v68l-277 397h-118v-348l36 -33l97 -10v-74h-449z" />
    <glyph glyph-name="l" unicode="l" horiz-adv-x="578" 
d="M57 0v74l121 10l35 33v1253h-158v64l250 73h78v-1390l37 -33l117 -10v-74h-480z" />
    <glyph glyph-name="m" unicode="m" horiz-adv-x="1726" 
d="M930 868q118 70 205 104t147 34q124 0 193 -80.5t69 -225.5v-6v-577l37 -33l109 -10v-74h-447v74l96 10l37 33v542q0 109 -45 160t-139 51q-47 0 -104.5 -16.5t-126.5 -50.5v-686l36 -33l97 -10v-74h-437v74l99 10l35 33v542q0 108 -44.5 159.5t-136.5 51.5
q-50 0 -107.5 -16.5t-125.5 -50.5v-686l35 -33l98 -10v-74h-449v74l111 10l35 33v741h-146v64l238 73h78v-112q107 63 186.5 93t141.5 30q75 0 132.5 -35t92.5 -103z" />
    <glyph glyph-name="n" unicode="n" horiz-adv-x="1163" 
d="M61 0v74l111 10l35 33v741h-146v64l238 73h78v-112q123 68 198 95.5t132 27.5q134 0 205 -80t71 -232v-577l35 -33l110 -10v-74h-448v74l98 10l35 33v542q0 115 -47.5 163t-159.5 48q-49 0 -106 -16.5t-123 -50.5v-686l35 -33l98 -10v-74h-449z" />
    <glyph glyph-name="o" unicode="o" horiz-adv-x="1104" 
d="M551 918q-128 0 -205.5 -115.5t-77.5 -308.5t78 -308.5t205 -115.5q129 0 207 115t78 309q0 192 -78.5 308t-206.5 116zM551 1006q209 0 343 -143.5t134 -368.5t-134.5 -368.5t-342.5 -143.5t-341.5 143t-133.5 369t132.5 369t342.5 143z" />
    <glyph glyph-name="p" unicode="p" horiz-adv-x="1128" 
d="M362 119q50 -17 93.5 -25t81.5 -8q152 0 246 113.5t94 300.5q0 173 -81.5 275t-217.5 102q-49 0 -101 -17t-115 -53v-688zM47 -446v73l111 11l32 32v1188h-143v64l238 73h77v-112q84 63 157.5 93t144.5 30q172 0 282.5 -134t110.5 -346q0 -241 -138 -386.5t-366 -145.5
q-39 0 -86 4.5t-104 13.5l-1 -342l35 -32l131 -11v-73h-481z" />
    <glyph glyph-name="q" unicode="q" horiz-adv-x="1087" 
d="M762 897q-50 12 -88 17.5t-68 5.5q-161 0 -253.5 -113t-92.5 -309q0 -188 82 -292t229 -104q35 0 81.5 7.5t109.5 23.5v764zM940 972q-3 -60 -4.5 -96.5t-1.5 -52.5v-1153l35 -35l108 -8v-73h-479v73l129 8l35 35v398q-79 -38 -149 -56t-134 -18q-181 0 -292 130.5
t-111 346.5q0 247 154 392t417 145q63 0 136 -9t157 -27z" />
    <glyph glyph-name="r" unicode="r" horiz-adv-x="782" 
d="M61 0v74l109 10l35 33v741h-144v64l238 73h78v-192q50 51 104.5 100.5t114.5 97.5q9 3 19.5 4t31.5 1q31 0 61 -6.5t62 -20.5v-176h-65q-20 24 -46.5 36.5t-58.5 12.5q-49 0 -103.5 -36.5t-119.5 -113.5v-585l35 -33l143 -10v-74h-494z" />
    <glyph glyph-name="s" unicode="s" horiz-adv-x="819" 
d="M705 961v-232h-101l-16 145q-41 22 -78 33t-74 11q-80 0 -125 -39t-45 -109q0 -57 36 -97t138 -89q16 -8 49 -23q116 -53 168 -96q38 -30 58 -75.5t20 -100.5q0 -144 -101.5 -225.5t-281.5 -81.5q-74 0 -141.5 10.5t-124.5 32.5v266h98l25 -174q43 -25 86.5 -37t87.5 -12
q87 0 139.5 45.5t52.5 119.5q0 62 -36 102.5t-172 102.5q-154 69 -209.5 130t-55.5 151q0 137 95 212t268 75q69 0 128.5 -11.5t111.5 -33.5z" />
    <glyph glyph-name="t" unicode="t" horiz-adv-x="684" 
d="M180 862h-129v64l135 59l88 191h76v-218h312v-96h-312v-540q0 -133 37 -178.5t133 -45.5q33 0 68.5 4t73.5 13v-76q-70 -22 -138 -33.5t-131 -11.5q-118 0 -165.5 44.5t-47.5 162.5v661z" />
    <glyph glyph-name="u" unicode="u" horiz-adv-x="1165" 
d="M291 1006h78v-678q0 -112 48 -164.5t150 -52.5q57 0 115.5 15t122.5 46v694h-146v64l238 76h78v-889l37 -33l96 -10v-74h-303v115q-96 -69 -177.5 -102t-154.5 -33q-133 0 -203.5 80.5t-70.5 232.5v573h-146v64z" />
    <glyph glyph-name="v" unicode="v" horiz-adv-x="1012" 
d="M-10 985h444v-76l-108 -8l-25 -33l240 -669l262 669l-17 33l-110 8v76h362v-76l-120 -16l-359 -893h-115l-329 897l-125 12v76z" />
    <glyph glyph-name="w" unicode="w" horiz-adv-x="1579" 
d="M-4 985h444v-76l-108 -8l-25 -33l187 -665l274 782h125l242 -782l208 665l-16 33l-110 8v76h362v-76l-115 -16l-293 -893h-127l-247 776l-277 -776h-127l-272 897l-125 12v76z" />
    <glyph glyph-name="x" unicode="x" horiz-adv-x="1030" 
d="M37 985h440v-76l-94 -12l-10 -20l172 -269l186 262l-16 27l-99 12v76h369v-76l-115 -20l-270 -359l301 -438l123 -16v-76h-436v76l86 14l10 16l-190 306l-209 -297l10 -25l117 -14v-76h-387v76l116 16l295 395l-274 400l-125 22v76z" />
    <glyph glyph-name="y" unicode="y" horiz-adv-x="1014" 
d="M-2 985h444v-76l-108 -8l-25 -33l246 -637l256 637l-16 33l-111 8v76h365v-76l-119 -16l-410 -995q-75 -181 -153 -262.5t-174 -81.5q-64 0 -103 31.5t-39 82.5q0 30 13.5 58t39.5 53l197 -78q45 48 87.5 127t78.5 180l-344 889l-125 12v76z" />
    <glyph glyph-name="z" unicode="z" horiz-adv-x="958" 
d="M92 0v102l547 789h-379l-29 -33l-22 -158h-96v285h739v-78l-567 -813h440l31 33l22 174h105v-301h-791z" />
    <glyph glyph-name="braceleft" unicode="{" horiz-adv-x="995" 
d="M856 1440v-76q-150 -5 -205 -56t-55 -190v-166q0 -168 -60.5 -247.5t-207.5 -110.5q144 -32 206 -112t62 -234v-170q0 -172 52.5 -221t207.5 -52v-79h-51q-214 0 -293.5 78.5t-79.5 295.5v174q0 154 -56 215.5t-196 61.5q-7 0 -22.5 -1t-24.5 -1v89q9 0 20.5 -0.5
t32.5 -0.5q135 0 190.5 59t55.5 205v209q0 175 93.5 252.5t303.5 77.5h27z" />
    <glyph glyph-name="bar" unicode="|" horiz-adv-x="1024" 
d="M449 1565h126v-2048h-126v2048z" />
    <glyph glyph-name="braceright" unicode="}" horiz-adv-x="995" 
d="M131 1440h27q210 0 303.5 -77.5t93.5 -252.5v-209q0 -146 55.5 -205t190.5 -59q21 0 32.5 0.5t20.5 0.5v-89q-8 0 -24 1t-23 1q-140 0 -196 -61.5t-56 -215.5v-174q0 -216 -80 -295t-295 -79h-49v79q155 3 207.5 52t52.5 221v170q0 154 62 234t206 112
q-147 31 -207.5 110.5t-60.5 247.5v166q0 139 -55 190t-204 56z" />
    <glyph glyph-name="asciitilde" unicode="~" horiz-adv-x="1706" 
d="M1530 758v-131q-101 -72 -197.5 -108t-189.5 -36q-43 0 -90.5 9t-100.5 26q-30 10 -87 31q-202 72 -302 72q-83 0 -173.5 -37.5t-211.5 -122.5v133q105 73 202 109t185 36q56 0 116.5 -12.5t174.5 -52.5q12 -4 35 -13q164 -59 254 -59q85 0 176 36.5t209 119.5z" />
    <glyph glyph-name="Adieresis" unicode="&#xc4;" horiz-adv-x="1309" 
d="M614 1176l-202 -568h413zM582 1391h135l491 -1282l123 -25v-84h-465v84l127 10l15 29l-148 391h-483l-146 -391l21 -29l133 -10v-84h-401v84l118 25zM845 1818q44 0 73.5 -30t29.5 -74q0 -43 -30 -73t-73 -30t-73.5 30t-30.5 73q0 44 30.5 74t73.5 30zM465 1818
q43 0 72.5 -30t29.5 -74q0 -43 -29.5 -73t-72.5 -30q-44 0 -74.5 30t-30.5 73q0 44 30.5 74t74.5 30z" />
    <glyph glyph-name="Aring" unicode="&#xc5;" horiz-adv-x="1309" 
d="M614 1176l-202 -568h413zM582 1391h135l491 -1282l123 -25v-84h-465v84l127 10l15 29l-148 391h-483l-146 -391l21 -29l133 -10v-84h-401v84l118 25zM629 1880q-62 0 -106 -43.5t-44 -105.5t44 -105t106 -43t104.5 43t42.5 105q0 63 -42.5 106t-104.5 43zM627 1972
q101 0 171 -69t70 -170q0 -102 -70 -172t-171 -70t-170.5 70t-69.5 172q0 101 69 170t171 69z" />
    <glyph glyph-name="Ccedilla" unicode="&#xc7;" horiz-adv-x="1294" 
d="M1204 47q-101 -35 -206 -53.5t-207 -18.5q-101 0 -189 21t-160 61q-165 94 -259.5 262.5t-94.5 368.5q0 320 195.5 515.5t515.5 195.5q92 0 193.5 -17.5t211.5 -52.5v-315h-114l-31 186l-27 37q-59 27 -115 40t-114 13q-232 0 -368 -158t-136 -430q0 -289 142 -453.5
t393 -164.5q44 0 88.5 6.5t89.5 20.5l32 32l50 228h110v-324zM725 0h76v-124q9 0 18.5 0.5t22.5 0.5q72 0 113 -39t41 -108q0 -86 -65 -136.5t-177 -50.5q-33 0 -68 5.5t-73 15.5v74q32 -9 61.5 -13t58.5 -4q65 0 101.5 23.5t36.5 64.5q0 36 -27 56t-76 20q-7 0 -16 -1
l-26 -3z" />
    <glyph glyph-name="Eacute" unicode="&#xc9;" horiz-adv-x="1180" 
d="M68 0v84l116 10l35 29v1128l-35 29l-116 12v82h981v-299h-115l-29 174l-28 31h-474v-518h336l29 29l20 149h97v-451h-97l-20 148l-29 31h-336v-574h549l29 33l35 207h106v-334h-1054zM711 1910h203l-299 -389h-103z" />
    <glyph glyph-name="Ntilde" unicode="&#xd1;" horiz-adv-x="1460" 
d="M59 0v84l125 16l37 39v1112l-37 29l-131 12v82h385v-51l699 -1049v963l-37 37l-123 18v82h430v-82l-123 -18l-37 -37v-1237h-135l-780 1163v-1024l37 -39l123 -16v-84h-433zM958 1853h84q0 -5 1 -15t1 -16q0 -96 -48.5 -156.5t-123.5 -60.5q-70 0 -171 53.5t-124 53.5
q-33 0 -53 -30t-20 -81q0 -4 1 -12t1 -12h-88v20q0 110 44.5 167.5t129.5 57.5q62 0 158.5 -53t123.5 -53q44 0 64 30t20 97v10z" />
    <glyph glyph-name="Odieresis" unicode="&#xd6;" horiz-adv-x="1497" 
d="M750 1298q-206 0 -327.5 -164.5t-121.5 -445.5q0 -280 122.5 -446t326.5 -166q202 0 324 166.5t122 445.5t-122 444.5t-324 165.5zM750 1409q131 0 244 -45t206 -135q104 -101 157.5 -238t53.5 -303q0 -114 -26 -215t-78 -190q-87 -149 -234 -232.5t-323 -83.5
q-131 0 -246.5 45t-204.5 131q-104 101 -157.5 239t-53.5 306q0 167 53 304t156 237q92 89 206.5 134.5t246.5 45.5zM940 1818q44 0 73.5 -30t29.5 -74q0 -43 -30 -73t-73 -30t-73.5 30t-30.5 73q0 44 30.5 74t73.5 30zM560 1818q43 0 72.5 -30t29.5 -74q0 -43 -29.5 -73
t-72.5 -30q-44 0 -74.5 30t-30.5 73q0 44 30.5 74t74.5 30z" />
    <glyph glyph-name="Udieresis" unicode="&#xdc;" horiz-adv-x="1421" 
d="M51 1374h502v-82l-127 -12l-35 -29v-741q0 -215 86.5 -311.5t278.5 -96.5q190 0 277 97.5t87 310.5v727l-39 37l-123 18v82h433v-82l-123 -18l-37 -37v-745q0 -147 -21 -225t-69 -136q-61 -73 -172.5 -114.5t-251.5 -41.5q-141 0 -252 41.5t-172 114.5q-49 59 -69.5 136
t-20.5 225v759l-35 29l-117 12v82zM901 1818q44 0 73.5 -30t29.5 -74q0 -43 -30 -73t-73 -30t-73.5 30t-30.5 73q0 44 30.5 74t73.5 30zM521 1818q43 0 72.5 -30t29.5 -74q0 -43 -29.5 -73t-72.5 -30q-44 0 -74.5 30t-30.5 73q0 44 30.5 74t74.5 30z" />
    <glyph glyph-name="aacute" unicode="&#xe1;" horiz-adv-x="1038" 
d="M684 188v361q-257 -71 -337.5 -130t-80.5 -155q0 -77 44.5 -122.5t119.5 -45.5q48 0 110.5 23t143.5 69zM684 119q-99 -68 -181.5 -100.5t-154.5 -32.5q-119 0 -190.5 72t-71.5 190q0 131 107.5 206t490.5 167v65q0 129 -42 179t-146 50q-39 0 -77 -8t-79 -24v-172h-141
q-37 0 -50.5 13.5t-13.5 49.5q0 100 115.5 166t298.5 66q161 0 234 -70t73 -225v-594l35 -33l108 -10v-74h-288zM641 1507h203l-299 -389h-103z" />
    <glyph glyph-name="agrave" unicode="&#xe0;" horiz-adv-x="1038" 
d="M684 188v361q-257 -71 -337.5 -130t-80.5 -155q0 -77 44.5 -122.5t119.5 -45.5q48 0 110.5 23t143.5 69zM684 119q-99 -68 -181.5 -100.5t-154.5 -32.5q-119 0 -190.5 72t-71.5 190q0 131 107.5 206t490.5 167v65q0 129 -42 179t-146 50q-39 0 -77 -8t-79 -24v-172h-141
q-37 0 -50.5 13.5t-13.5 49.5q0 100 115.5 166t298.5 66q161 0 234 -70t73 -225v-594l35 -33l108 -10v-74h-288zM221 1507h203l198 -389h-102z" />
    <glyph glyph-name="acircumflex" unicode="&#xe2;" horiz-adv-x="1038" 
d="M684 188v361q-257 -71 -337.5 -130t-80.5 -155q0 -77 44.5 -122.5t119.5 -45.5q48 0 110.5 23t143.5 69zM684 119q-99 -68 -181.5 -100.5t-154.5 -32.5q-119 0 -190.5 72t-71.5 190q0 131 107.5 206t490.5 167v65q0 129 -42 179t-146 50q-39 0 -77 -8t-79 -24v-172h-141
q-37 0 -50.5 13.5t-13.5 49.5q0 100 115.5 166t298.5 66q161 0 234 -70t73 -225v-594l35 -33l108 -10v-74h-288zM454 1507h132l225 -389h-111l-180 289l-178 -289h-113z" />
    <glyph glyph-name="adieresis" unicode="&#xe4;" horiz-adv-x="1038" 
d="M684 188v361q-257 -71 -337.5 -130t-80.5 -155q0 -77 44.5 -122.5t119.5 -45.5q48 0 110.5 23t143.5 69zM684 119q-99 -68 -181.5 -100.5t-154.5 -32.5q-119 0 -190.5 72t-71.5 190q0 131 107.5 206t490.5 167v65q0 129 -42 179t-146 50q-39 0 -77 -8t-79 -24v-172h-141
q-37 0 -50.5 13.5t-13.5 49.5q0 100 115.5 166t298.5 66q161 0 234 -70t73 -225v-594l35 -33l108 -10v-74h-288zM710 1415q44 0 73.5 -30t29.5 -74q0 -43 -30 -73t-73 -30t-73.5 30t-30.5 73q0 44 30.5 74t73.5 30zM330 1415q43 0 72.5 -30t29.5 -74q0 -43 -29.5 -73
t-72.5 -30q-44 0 -74.5 30t-30.5 73q0 44 30.5 74t74.5 30z" />
    <glyph glyph-name="atilde" unicode="&#xe3;" horiz-adv-x="1038" 
d="M684 188v361q-257 -71 -337.5 -130t-80.5 -155q0 -77 44.5 -122.5t119.5 -45.5q48 0 110.5 23t143.5 69zM684 119q-99 -68 -181.5 -100.5t-154.5 -32.5q-119 0 -190.5 72t-71.5 190q0 131 107.5 206t490.5 167v65q0 129 -42 179t-146 50q-39 0 -77 -8t-79 -24v-172h-141
q-37 0 -50.5 13.5t-13.5 49.5q0 100 115.5 166t298.5 66q161 0 234 -70t73 -225v-594l35 -33l108 -10v-74h-288zM747 1450h84q0 -5 1 -15t1 -16q0 -96 -48.5 -156.5t-123.5 -60.5q-70 0 -171 53.5t-124 53.5q-33 0 -53 -30t-20 -81q0 -4 1 -12t1 -12h-88v20
q0 110 44.5 167.5t129.5 57.5q62 0 158.5 -53t123.5 -53q44 0 64 30t20 97v10z" />
    <glyph glyph-name="aring" unicode="&#xe5;" horiz-adv-x="1038" 
d="M684 549q-257 -71 -337.5 -130t-80.5 -155q0 -77 44.5 -122.5t119.5 -45.5q48 0 110.5 23t143.5 69v361zM856 711v-594l35 -33l108 -10v-74h-288l-27 119q-99 -68 -181.5 -100.5t-154.5 -32.5q-119 0 -190.5 72t-71.5 190q0 131 107.5 206t490.5 167v65q0 129 -42 179
t-146 50q-39 0 -77 -8t-79 -24v-172h-141q-37 0 -50.5 13.5t-13.5 49.5q0 100 115.5 166t298.5 66q161 0 234 -70t73 -225zM512 1507q-62 0 -104.5 -43t-42.5 -106q0 -62 43 -105t104 -43q63 0 107.5 43t44.5 105t-44.5 105.5t-107.5 43.5zM512 1599q102 0 172 -69t70 -170
q0 -102 -70.5 -172t-171.5 -70t-170.5 70t-69.5 172q0 101 69.5 170t170.5 69z" />
    <glyph glyph-name="ccedilla" unicode="&#xe7;" horiz-adv-x="913" 
d="M870 86q-86 -50 -169 -75t-164 -25q-208 0 -334.5 139.5t-126.5 368.5q0 227 134.5 369.5t350.5 142.5q143 0 225 -54.5t82 -146.5q0 -49 -31 -79t-83 -30q-23 0 -46 8t-46 23v168q-24 14 -49 21.5t-50 7.5q-136 0 -218.5 -113.5t-82.5 -302.5q0 -187 93.5 -294.5
t254.5 -107.5q67 0 131 21.5t129 65.5v-107zM473 0h76v-124q9 0 18.5 0.5t22.5 0.5q72 0 113 -39t41 -108q0 -86 -65 -136.5t-177 -50.5q-33 0 -68 5.5t-73 15.5v74q32 -9 61.5 -13t58.5 -4q65 0 101.5 23.5t36.5 64.5q0 36 -27 56t-76 20q-7 0 -16 -1l-26 -3z" />
    <glyph glyph-name="eacute" unicode="&#xe9;" horiz-adv-x="1006" 
d="M735 625v32q0 124 -54.5 190t-158.5 66q-102 0 -176.5 -81.5t-83.5 -206.5h473zM918 217v-113q-91 -60 -189 -91t-197 -31q-203 0 -329.5 139.5t-126.5 363.5q0 230 132.5 375.5t340.5 145.5q170 0 269.5 -108.5t99.5 -295.5q0 -25 -0.5 -38t-2.5 -25h-663v-23
q0 -193 93 -305.5t251 -112.5q73 0 151.5 29t170.5 90zM647 1507h203l-299 -389h-103z" />
    <glyph glyph-name="egrave" unicode="&#xe8;" horiz-adv-x="1006" 
d="M735 625v32q0 124 -54.5 190t-158.5 66q-102 0 -176.5 -81.5t-83.5 -206.5h473zM918 217v-113q-91 -60 -189 -91t-197 -31q-203 0 -329.5 139.5t-126.5 363.5q0 230 132.5 375.5t340.5 145.5q170 0 269.5 -108.5t99.5 -295.5q0 -25 -0.5 -38t-2.5 -25h-663v-23
q0 -193 93 -305.5t251 -112.5q73 0 151.5 29t170.5 90zM227 1507h203l198 -389h-102z" />
    <glyph glyph-name="ecircumflex" unicode="&#xea;" horiz-adv-x="1006" 
d="M735 625v32q0 124 -54.5 190t-158.5 66q-102 0 -176.5 -81.5t-83.5 -206.5h473zM918 217v-113q-91 -60 -189 -91t-197 -31q-203 0 -329.5 139.5t-126.5 363.5q0 230 132.5 375.5t340.5 145.5q170 0 269.5 -108.5t99.5 -295.5q0 -25 -0.5 -38t-2.5 -25h-663v-23
q0 -193 93 -305.5t251 -112.5q73 0 151.5 29t170.5 90zM460 1507h132l225 -389h-111l-180 289l-178 -289h-113z" />
    <glyph glyph-name="edieresis" unicode="&#xeb;" horiz-adv-x="1006" 
d="M735 625v32q0 124 -54.5 190t-158.5 66q-102 0 -176.5 -81.5t-83.5 -206.5h473zM918 217v-113q-91 -60 -189 -91t-197 -31q-203 0 -329.5 139.5t-126.5 363.5q0 230 132.5 375.5t340.5 145.5q170 0 269.5 -108.5t99.5 -295.5q0 -25 -0.5 -38t-2.5 -25h-663v-23
q0 -193 93 -305.5t251 -112.5q73 0 151.5 29t170.5 90zM716 1415q44 0 73.5 -30t29.5 -74q0 -43 -30 -73t-73 -30t-73.5 30t-30.5 73q0 44 30.5 74t73.5 30zM336 1415q43 0 72.5 -30t29.5 -74q0 -43 -29.5 -73t-72.5 -30q-44 0 -74.5 30t-30.5 73q0 44 30.5 74t74.5 30z" />
    <glyph glyph-name="iacute" unicode="&#xed;" horiz-adv-x="573" 
d="M307 995h80v-878l35 -33l110 -10v-74h-460v74l108 10l35 33v741h-143v64zM410 1507h203l-299 -389h-103z" />
    <glyph glyph-name="igrave" unicode="&#xec;" horiz-adv-x="573" 
d="M307 995h80v-878l35 -33l110 -10v-74h-460v74l108 10l35 33v741h-143v64zM-10 1507h203l198 -389h-102z" />
    <glyph glyph-name="icircumflex" unicode="&#xee;" horiz-adv-x="573" 
d="M307 995h80v-878l35 -33l110 -10v-74h-460v74l108 10l35 33v741h-143v64zM223 1507h132l225 -389h-111l-180 289l-178 -289h-113z" />
    <glyph glyph-name="idieresis" unicode="&#xef;" horiz-adv-x="573" 
d="M307 995h80v-878l35 -33l110 -10v-74h-460v74l108 10l35 33v741h-143v64zM479 1415q44 0 73.5 -30t29.5 -74q0 -43 -30 -73t-73 -30t-73.5 30t-30.5 73q0 44 30.5 74t73.5 30zM99 1415q43 0 72.5 -30t29.5 -74q0 -43 -29.5 -73t-72.5 -30q-44 0 -74.5 30t-30.5 73
q0 44 30.5 74t74.5 30z" />
    <glyph glyph-name="ntilde" unicode="&#xf1;" horiz-adv-x="1163" 
d="M61 0v74l111 10l35 33v741h-146v64l238 73h78v-112q123 68 198 95.5t132 27.5q134 0 205 -80t71 -232v-577l35 -33l110 -10v-74h-448v74l98 10l35 33v542q0 115 -47.5 163t-159.5 48q-49 0 -106 -16.5t-123 -50.5v-686l35 -33l98 -10v-74h-449zM786 1450h84q0 -5 1 -15
t1 -16q0 -96 -48.5 -156.5t-123.5 -60.5q-70 0 -171 53.5t-124 53.5q-33 0 -53 -30t-20 -81q0 -4 1 -12t1 -12h-88v20q0 110 44.5 167.5t129.5 57.5q62 0 158.5 -53t123.5 -53q44 0 64 30t20 97v10z" />
    <glyph glyph-name="oacute" unicode="&#xf3;" horiz-adv-x="1104" 
d="M551 918q-128 0 -205.5 -115.5t-77.5 -308.5t78 -308.5t205 -115.5q129 0 207 115t78 309q0 192 -78.5 308t-206.5 116zM551 1006q209 0 343 -143.5t134 -368.5t-134.5 -368.5t-342.5 -143.5t-341.5 143t-133.5 369t132.5 369t342.5 143zM674 1507h203l-299 -389h-103z
" />
    <glyph glyph-name="ograve" unicode="&#xf2;" horiz-adv-x="1104" 
d="M551 918q-128 0 -205.5 -115.5t-77.5 -308.5t78 -308.5t205 -115.5q129 0 207 115t78 309q0 192 -78.5 308t-206.5 116zM551 1006q209 0 343 -143.5t134 -368.5t-134.5 -368.5t-342.5 -143.5t-341.5 143t-133.5 369t132.5 369t342.5 143zM254 1507h203l198 -389h-102z
" />
    <glyph glyph-name="ocircumflex" unicode="&#xf4;" horiz-adv-x="1104" 
d="M551 918q-128 0 -205.5 -115.5t-77.5 -308.5t78 -308.5t205 -115.5q129 0 207 115t78 309q0 192 -78.5 308t-206.5 116zM551 1006q209 0 343 -143.5t134 -368.5t-134.5 -368.5t-342.5 -143.5t-341.5 143t-133.5 369t132.5 369t342.5 143zM487 1507h132l225 -389h-111
l-180 289l-178 -289h-113z" />
    <glyph glyph-name="odieresis" unicode="&#xf6;" horiz-adv-x="1104" 
d="M551 918q-128 0 -205.5 -115.5t-77.5 -308.5t78 -308.5t205 -115.5q129 0 207 115t78 309q0 192 -78.5 308t-206.5 116zM551 1006q209 0 343 -143.5t134 -368.5t-134.5 -368.5t-342.5 -143.5t-341.5 143t-133.5 369t132.5 369t342.5 143zM743 1415q44 0 73.5 -30
t29.5 -74q0 -43 -30 -73t-73 -30t-73.5 30t-30.5 73q0 44 30.5 74t73.5 30zM363 1415q43 0 72.5 -30t29.5 -74q0 -43 -29.5 -73t-72.5 -30q-44 0 -74.5 30t-30.5 73q0 44 30.5 74t74.5 30z" />
    <glyph glyph-name="otilde" unicode="&#xf5;" horiz-adv-x="1104" 
d="M551 918q-128 0 -205.5 -115.5t-77.5 -308.5t78 -308.5t205 -115.5q129 0 207 115t78 309q0 192 -78.5 308t-206.5 116zM551 1006q209 0 343 -143.5t134 -368.5t-134.5 -368.5t-342.5 -143.5t-341.5 143t-133.5 369t132.5 369t342.5 143zM780 1450h84q0 -5 1 -15t1 -16
q0 -96 -48.5 -156.5t-123.5 -60.5q-70 0 -171 53.5t-124 53.5q-33 0 -53 -30t-20 -81q0 -4 1 -12t1 -12h-88v20q0 110 44.5 167.5t129.5 57.5q62 0 158.5 -53t123.5 -53q44 0 64 30t20 97v10z" />
    <glyph glyph-name="uacute" unicode="&#xfa;" horiz-adv-x="1165" 
d="M291 1006h78v-678q0 -112 48 -164.5t150 -52.5q57 0 115.5 15t122.5 46v694h-146v64l238 76h78v-889l37 -33l96 -10v-74h-303v115q-96 -69 -177.5 -102t-154.5 -33q-133 0 -203.5 80.5t-70.5 232.5v573h-146v64zM705 1507h203l-299 -389h-103z" />
    <glyph glyph-name="ugrave" unicode="&#xf9;" horiz-adv-x="1165" 
d="M291 1006h78v-678q0 -112 48 -164.5t150 -52.5q57 0 115.5 15t122.5 46v694h-146v64l238 76h78v-889l37 -33l96 -10v-74h-303v115q-96 -69 -177.5 -102t-154.5 -33q-133 0 -203.5 80.5t-70.5 232.5v573h-146v64zM285 1507h203l198 -389h-102z" />
    <glyph glyph-name="ucircumflex" unicode="&#xfb;" horiz-adv-x="1165" 
d="M291 1006h78v-678q0 -112 48 -164.5t150 -52.5q57 0 115.5 15t122.5 46v694h-146v64l238 76h78v-889l37 -33l96 -10v-74h-303v115q-96 -69 -177.5 -102t-154.5 -33q-133 0 -203.5 80.5t-70.5 232.5v573h-146v64zM518 1507h132l225 -389h-111l-180 289l-178 -289h-113z
" />
    <glyph glyph-name="udieresis" unicode="&#xfc;" horiz-adv-x="1165" 
d="M291 1006h78v-678q0 -112 48 -164.5t150 -52.5q57 0 115.5 15t122.5 46v694h-146v64l238 76h78v-889l37 -33l96 -10v-74h-303v115q-96 -69 -177.5 -102t-154.5 -33q-133 0 -203.5 80.5t-70.5 232.5v573h-146v64zM774 1415q44 0 73.5 -30t29.5 -74q0 -43 -30 -73t-73 -30
t-73.5 30t-30.5 73q0 44 30.5 74t73.5 30zM394 1415q43 0 72.5 -30t29.5 -74q0 -43 -29.5 -73t-72.5 -30q-44 0 -74.5 30t-30.5 73q0 44 30.5 74t74.5 30z" />
    <glyph glyph-name="dagger" unicode="&#x2020;" horiz-adv-x="1024" 
d="M498 942h28l86 -340l-86 -866h-28l-84 866zM840 1081l149 -92l-149 -94l-289 72v32zM180 1081l295 -82v-32l-295 -72l-145 94zM510 1470l92 -155l-76 -287h-28l-78 287z" />
    <glyph glyph-name="degree" unicode="&#xb0;" horiz-adv-x="674" 
d="M338 1372q-84 0 -143.5 -58.5t-59.5 -142.5t59.5 -143t143.5 -59t142.5 59t58.5 143t-58.5 142.5t-142.5 58.5zM338 1454q117 0 200 -83t83 -200q0 -116 -83.5 -199t-201.5 -83t-199.5 82t-81.5 200q0 119 82.5 201t200.5 82z" />
    <glyph glyph-name="cent" unicode="&#xa2;" horiz-adv-x="1139" 
d="M559 930q-121 -34 -186.5 -144t-65.5 -280q0 -156 67.5 -265.5t184.5 -142.5v832zM559 1231h94v-201h29q64 0 130.5 -11.5t137.5 -35.5v-301h-92l-33 213q-34 21 -72.5 31t-84.5 10h-15v-842q49 0 92 10t80 29l29 223h96v-311q-56 -22 -123.5 -32.5t-148.5 -10.5h-25
v-203h-94v207q-197 26 -312.5 160.5t-115.5 337.5q0 209 114.5 348.5t313.5 171.5v207z" />
    <glyph glyph-name="sterling" unicode="&#xa3;" horiz-adv-x="1139" 
d="M854 1087v193q-27 9 -53.5 13.5t-52.5 4.5q-150 0 -213.5 -107t-63.5 -366q0 -41 0.5 -63t1.5 -41h385v-96h-385v-27q0 -158 -51.5 -270.5t-153.5 -175.5l4 -6q46 4 84 7t56 3h624v-156h-960v117q128 36 177.5 125.5t49.5 310.5v72h-147v96h145l-3 78.5t-1 46.5
q0 130 19.5 219t60.5 152q55 82 148 132t194 50q141 0 231 -59.5t90 -149.5q0 -48 -34 -79.5t-86 -31.5q-16 0 -32 2t-34 6z" />
    <glyph glyph-name="section" unicode="&#xa7;" horiz-adv-x="1024" 
d="M457 868q-89 -39 -133.5 -98.5t-44.5 -136.5q0 -94 63.5 -161t228.5 -140q88 58 130 119t42 131q0 91 -70.5 161.5t-215.5 124.5zM831 1423v-264h-92l-20 164q-56 31 -104.5 46t-92.5 15q-89 0 -148 -49.5t-59 -124.5q0 -101 226 -207l75 -36q145 -72 212 -154t67 -186
q0 -107 -67 -196t-183 -136q109 -49 161 -115.5t52 -156.5q0 -136 -104.5 -223t-270.5 -87q-72 0 -147 16t-154 48l-4 264h98l29 -184q49 -27 98 -40.5t99 -13.5q93 0 152 48t59 122q0 122 -285 254l-63 29q-115 54 -175.5 139.5t-60.5 192.5q0 109 59.5 187.5t182.5 131.5
q-109 54 -158 117.5t-49 151.5q0 141 102 217.5t291 76.5q66 0 135 -11.5t139 -35.5z" />
    <glyph glyph-name="bullet" unicode="&#x2022;" horiz-adv-x="1208" 
d="M307 762q0 123 87 209t210 86q122 0 208.5 -86.5t86.5 -208.5t-87.5 -209.5t-209.5 -87.5q-123 0 -209 87t-86 210z" />
    <glyph glyph-name="paragraph" unicode="&#xb6;" horiz-adv-x="991" 
d="M938 1374v-74l-127 -20v-1442h-100v1452h-156v-715h-37q-235 0 -350 98t-115 298q0 210 115.5 306.5t368.5 96.5h401z" />
    <glyph glyph-name="germandbls" unicode="&#xdf;" horiz-adv-x="1247" 
d="M989 954q-2 1 -6 1q-30 3 -43 3q-86 0 -135 -42.5t-49 -116.5q0 -97 180 -193l58 -31q100 -55 148 -122t48 -152q0 -135 -96.5 -225t-245.5 -90q-38 0 -95.5 10t-140.5 31v270h103l20 -178q29 -22 59 -32.5t66 -10.5q78 0 127 48.5t49 123.5q0 110 -183 213l-7 4
q-165 92 -208.5 148t-43.5 137q0 98 68.5 174.5t181.5 101.5q11 49 15.5 83t4.5 60q0 113 -59 183.5t-154 70.5q-77 0 -138 -41.5t-105 -124.5q-28 -52 -40 -133t-12 -241v-764l17 -37l135 -10v-72h-469v72l119 14l22 31v803q0 269 138.5 433.5t363.5 164.5q164 0 254 -88.5
t90 -249.5q0 -54 -9 -109.5t-28 -116.5z" />
    <glyph glyph-name="registered" unicode="&#xae;" horiz-adv-x="1843" 
d="M793 727q9 -1 20 -1.5t31 -0.5q128 0 195 43.5t67 126.5q0 85 -67 130.5t-193 45.5q-21 0 -32.5 -0.5t-20.5 -1.5v-342zM520 1147h432q169 0 250.5 -55t81.5 -168q0 -86 -64 -146t-184 -86q49 -8 85 -27t63 -53q32 -39 57 -122q10 -35 16 -50q26 -65 67.5 -88.5
t131.5 -23.5v-74q-44 -8 -75 -12t-52 -4q-48 0 -87.5 14t-74.5 45q-45 38 -84 155q-17 53 -28 78q-30 67 -73 92t-130 25q-23 0 -35.5 -0.5t-23.5 -1.5v-307l129 -14v-76h-392v74l109 14v721l-119 20v70zM928 1487q155 0 302.5 -62.5t258.5 -175.5q108 -109 166.5 -255.5
t58.5 -305.5q0 -153 -63 -299t-178 -260q-112 -109 -253.5 -166t-304.5 -57q-151 0 -293 60t-253 171q-114 113 -173 256t-59 303q0 158 59 300t171 255q111 113 257 174.5t304 61.5zM928 1403q-139 0 -268 -54.5t-228 -154.5q-100 -104 -152.5 -230.5t-52.5 -267.5
q0 -144 52 -270t153 -227q104 -103 229 -155t265 -52q142 0 267.5 53t223.5 154q100 103 153.5 231.5t53.5 265.5q0 141 -53.5 272t-151.5 228q-98 98 -227 152.5t-264 54.5z" />
    <glyph glyph-name="copyright" unicode="&#xa9;" horiz-adv-x="1843" 
d="M1247 260q-73 -25 -149 -38t-152 -13q-218 0 -355.5 135t-137.5 348q0 217 139 350.5t366 133.5q69 0 142 -12t147 -36v-245h-88l-31 153q-38 23 -77 34t-82 11q-147 0 -242.5 -109.5t-95.5 -277.5q0 -167 94 -279t233 -112q33 0 73.5 9.5t101.5 31.5l26 172h88v-256z
M928 1487q155 0 302.5 -62.5t258.5 -175.5q108 -109 166.5 -255.5t58.5 -305.5q0 -153 -63 -299t-178 -260q-112 -109 -253.5 -166t-304.5 -57q-151 0 -293 60t-253 171q-114 113 -173 256t-59 303q0 158 59 300t171 255q111 113 257 174.5t304 61.5zM928 1401
q-141 0 -269.5 -54t-226.5 -153q-101 -105 -154 -231.5t-53 -266.5q0 -143 52.5 -269t154.5 -228q104 -103 229 -155t265 -52q142 0 267.5 53t223.5 154q101 104 155 232.5t54 264.5q0 139 -54 270.5t-153 229.5q-97 98 -226 151.5t-265 53.5z" />
    <glyph glyph-name="trademark" unicode="&#x2122;" horiz-adv-x="1683" 
d="M774 817v45l64 8v428l-66 11v47h209v-25l139 -368l142 366v27h204v-47l-65 -11v-428l65 -10v-43h-219v43l62 10v435l-189 -488h-45l-180 488v-435l63 -8v-45h-184zM524 1309v-439l78 -8v-45h-250v43l80 8v441h-106l-17 -13l-12 -82h-55v142h469v-142h-54l-12 82l-14 13
h-107z" />
    <glyph glyph-name="acute" unicode="&#xb4;" horiz-adv-x="1024" 
d="M633 1507h203l-299 -389h-103z" />
    <glyph glyph-name="dieresis" unicode="&#xa8;" horiz-adv-x="1024" 
d="M702 1415q44 0 73.5 -30t29.5 -74q0 -43 -30 -73t-73 -30t-73.5 30t-30.5 73q0 44 30.5 74t73.5 30zM322 1415q43 0 72.5 -30t29.5 -74q0 -43 -29.5 -73t-72.5 -30q-44 0 -74.5 30t-30.5 73q0 44 30.5 74t74.5 30z" />
    <glyph glyph-name="notequal" unicode="&#x2260;" horiz-adv-x="1706" 
d="M1210 1180l88 -70l-196 -250h350v-115h-424l-211 -270h635v-115h-709l-251 -319l-89 70l197 249h-346v115h420l211 270h-631v115h704z" />
    <glyph glyph-name="AE" unicode="&#xc6;" horiz-adv-x="1774" 
d="M872 1284l-423 -674h423v674zM580 1374h1060v-299h-112l-29 174l-29 31h-421v-518h282l31 29l20 149h95v-451h-95l-20 148l-31 31h-282v-574h495l31 33l33 207h106v-334h-993v84l117 10l34 29v391h-477l-245 -391l10 -29l131 -10v-84h-406v84l117 18l715 1149l-19 29
l-118 12v82z" />
    <glyph glyph-name="Oslash" unicode="&#xd8;" horiz-adv-x="1497" 
d="M1069 1151l-588 -979q60 -47 126.5 -70.5t142.5 -23.5q208 0 332 165t124 445q0 141 -33.5 255t-103.5 208zM995 1219q-54 41 -114 60t-131 19q-209 0 -333 -165t-124 -445q0 -135 29.5 -243t89.5 -195zM1184 1532l84 -49l-125 -205q135 -108 201.5 -254.5t66.5 -335.5
q0 -165 -54.5 -304.5t-158.5 -240.5q-89 -86 -203.5 -131t-244.5 -45q-88 0 -173 22.5t-167 67.5l-127 -215l-80 56l129 217q-122 104 -183 248t-61 325q0 166 53.5 304t157.5 239q88 87 203.5 132.5t247.5 45.5q78 0 156 -18t159 -56z" />
    <glyph glyph-name="infinity" unicode="&#x221e;" horiz-adv-x="1706" 
d="M905 559q51 -95 119 -141.5t156 -46.5q102 0 168.5 71t66.5 181q0 108 -61 179.5t-152 71.5q-85 0 -153.5 -72.5t-143.5 -242.5zM803 666q-51 95 -119 142.5t-154 47.5q-105 0 -171 -71t-66 -183q0 -108 61 -179t152 -71q85 0 152 69t145 245zM866 494
q-71 -138 -148 -201.5t-173 -63.5q-134 0 -226 109t-92 272q0 172 82.5 277.5t214.5 105.5q97 0 172 -63t144 -203q67 138 146 204t175 66q134 0 226 -108.5t92 -272.5q0 -171 -82 -277t-213 -106q-96 0 -169 60t-149 201z" />
    <glyph glyph-name="plusminus" unicode="&#xb1;" horiz-adv-x="1706" 
d="M254 158h1198v-117h-1198v117zM795 1180h118v-344h539v-117h-539v-344h-118v344h-541v117h541v344z" />
    <glyph glyph-name="lessequal" unicode="&#x2264;" horiz-adv-x="1706" 
d="M262 150h1182v-117h-1182v117zM1444 1192v-125l-977 -324l977 -323v-125l-1182 399v101z" />
    <glyph glyph-name="greaterequal" unicode="&#x2265;" horiz-adv-x="1706" 
d="M262 150h1182v-117h-1182v117zM262 1192l1182 -397v-101l-1182 -399v125l979 323l-979 324v125z" />
    <glyph glyph-name="yen" unicode="&#xa5;" horiz-adv-x="1139" 
d="M-12 1374h434v-82l-107 -12l-18 -23l287 -561l313 545l-18 29l-113 22v82h379v-82l-113 -26l-225 -394h295v-86h-350l-121 -213h471v-86h-463v-364l35 -29l147 -10v-84h-528v84l141 10l39 29v364h-444v86h442l-109 213h-333v86h278l-203 400l-116 20v82z" />
    <glyph glyph-name="mu" unicode="&#xb5;" horiz-adv-x="1120" 
d="M164 193q-27 -136 -52 -339q-34 -272 -112 -272q-37 0 -58.5 23.5t-21.5 64.5q0 40 64.5 273.5t105.5 427.5l109 514h147l-104 -492q-6 -30 -9.5 -58.5t-3.5 -53.5q0 -83 42 -129t118 -46q98 0 163.5 68.5t94.5 200.5l111 510h149l-114 -531q-13 -59 -17 -87.5t-4 -49.5
q0 -48 26 -78t66 -30q35 0 65.5 18t51.5 51t41 93.5t39 60.5q12 0 19 -10t7 -27q0 -25 -11 -66.5t-29 -83.5q-38 -82 -95 -122.5t-135 -40.5q-68 0 -108.5 51t-40.5 139v23q-46 -110 -116 -164t-165 -54q-96 0 -152.5 54.5t-70.5 161.5z" />
    <glyph glyph-name="partialdiff" unicode="&#x2202;" horiz-adv-x="1044" 
d="M754 604q13 81 19.5 161.5t6.5 158.5q0 140 -39.5 216.5t-111.5 76.5q-53 0 -117 -63.5t-109 -63.5q-29 0 -51 21.5t-22 51.5q0 59 68 105.5t163 46.5q171 0 273 -152.5t102 -412.5q0 -335 -139 -555t-344 -220q-147 0 -241.5 106.5t-94.5 272.5q0 189 108.5 316
t266.5 127q99 0 162.5 -47t99.5 -146zM709 483q0 117 -45 180.5t-127 63.5q-113 0 -184.5 -127.5t-71.5 -333.5q0 -117 44 -178t128 -61q111 0 183.5 128t72.5 328z" />
    <glyph glyph-name="summation" unicode="&#x2211;" horiz-adv-x="1434" 
d="M12 1473h1135l98 -340h-74l-67 219q-8 27 -32 39t-73 12h-741l864 -850v-37l-858 -756h893q60 0 77.5 13t29.5 51l71 229h74l-135 -446h-1260v28l959 838l-961 950v50z" />
    <glyph glyph-name="product" unicode="&#x220f;" horiz-adv-x="1595" 
d="M57 1473h1479v-70h-186v-1727h186v-69h-555v69h197v1727h-762v-1727h196v-69h-555v69h187v1727h-187v70z" />
    <glyph glyph-name="integral" unicode="&#x222b;" horiz-adv-x="1020" 
d="M301 -268q103 0 116 664q3 141 5 216q12 503 102 719.5t281 216.5q76 0 122 -39t46 -104q0 -48 -31 -77.5t-82 -29.5q-53 0 -85 35t-32 92q0 8 -6 15.5t-14 7.5q-105 0 -119 -634q-3 -157 -6 -245q-10 -308 -31.5 -461t-62.5 -247q-49 -114 -123 -173t-168 -59
q-73 0 -119.5 38t-46.5 97q0 53 31.5 84t83.5 31q47 0 79.5 -29t32.5 -67q0 -24 7.5 -37.5t19.5 -13.5z" />
    <glyph glyph-name="ordfeminine" unicode="&#xaa;" horiz-adv-x="778" 
d="M514 815v254q-193 -51 -253 -92.5t-60 -108.5q0 -53 33 -84.5t90 -31.5q35 0 82 15.5t108 47.5zM514 768q-78 -49 -139 -71.5t-113 -22.5q-90 0 -143 50t-53 134q0 92 80.5 144.5t367.5 115.5v47q0 90 -31.5 125t-109.5 35q-27 0 -55.5 -5.5t-61.5 -16.5v-121h-106
q-27 0 -37.5 9.5t-10.5 35.5q0 69 87 115.5t223 46.5q121 0 176 -49.5t55 -157.5v-416l25 -23l82 -8v-51h-218z" />
    <glyph glyph-name="ordmasculine" unicode="&#xba;" horiz-adv-x="827" 
d="M414 1327q-97 0 -155 -80.5t-58 -216.5q0 -135 58.5 -216t154.5 -81t154.5 80.5t58.5 216.5q0 135 -58.5 216t-154.5 81zM414 1389q156 0 257 -101t101 -258t-101 -257.5t-257 -100.5q-157 0 -257 100t-100 258t100 258.5t257 100.5z" />
    <glyph glyph-name="Omega.MacRoman" horiz-adv-x="1567" 
d="M1100 188v-26h313l66 203h61l-108 -365h-500q134 233 202 451t68 413q0 271 -107.5 416t-308.5 145t-309 -145t-108 -416q0 -195 68 -411t204 -453h-500l-110 365h61l68 -203h311v26q-165 203 -234 361.5t-69 327.5q0 272 174.5 446t443.5 174t443 -174.5t174 -445.5
q0 -169 -69 -327.5t-234 -361.5z" />
    <glyph glyph-name="ae" unicode="&#xe6;" horiz-adv-x="1485" 
d="M824 608h388q0 9 1 24.5t1 22.5q0 128 -46.5 194t-137.5 66q-97 0 -150.5 -79t-55.5 -228zM664 188v361q-249 -71 -326.5 -130t-77.5 -155q0 -76 43.5 -122t116.5 -46q46 0 105.5 22.5t138.5 69.5zM340 711h-143q-35 0 -48.5 13.5t-13.5 49.5q0 101 110.5 166.5
t286.5 65.5q102 0 163 -29.5t96 -93.5q55 62 122 92.5t148 30.5q160 0 248 -106t88 -300q0 -29 -0.5 -43.5t-1.5 -27.5l-572 -1v-284q66 -68 142 -100.5t165 -32.5q78 0 140.5 25t126.5 81v-113q-79 -61 -161.5 -91.5t-170.5 -30.5q-103 0 -196.5 38.5t-166.5 110.5
q-100 -75 -188 -110t-174 -35q-114 0 -183 70t-69 184q0 136 99.5 211t476.5 170v65q0 129 -41 179t-142 50q-37 0 -71.5 -8t-69.5 -24v-172z" />
    <glyph glyph-name="oslash" unicode="&#xf8;" horiz-adv-x="1104" 
d="M760 803l-379 -662q35 -36 76.5 -53.5t93.5 -17.5q132 0 211.5 115t79.5 309q0 92 -20.5 168t-61.5 141zM705 864q-34 26 -72 38.5t-82 12.5q-130 0 -208.5 -114t-78.5 -307q0 -78 15.5 -148t46.5 -133zM866 1147l70 -39l-107 -190q102 -77 150.5 -180.5t48.5 -243.5
q0 -225 -134.5 -368.5t-342.5 -143.5q-64 0 -121 14t-111 43l-118 -203l-66 41l119 209q-90 75 -134 175.5t-44 232.5q0 225 133 368.5t342 143.5q58 0 110 -11.5t99 -33.5z" />
    <glyph glyph-name="questiondown" unicode="&#xbf;" horiz-adv-x="995" 
d="M498 1030h106v-299q-147 -55 -221 -147t-74 -219q0 -138 74.5 -213.5t210.5 -75.5h14l80 202q7 2 14.5 2.5t22.5 0.5q59 0 92 -29t33 -80q0 -81 -85.5 -135.5t-215.5 -54.5q-194 0 -310 101t-116 269q0 142 91 249t284 190v239zM551 1399q48 0 82.5 -34t34.5 -83
t-34.5 -83t-82.5 -34q-49 0 -83 34t-34 83q0 48 34 82.5t83 34.5z" />
    <glyph glyph-name="exclamdown" unicode="&#xa1;" horiz-adv-x="692" 
d="M297 1030h98l58 -783q3 -41 4.5 -72t1.5 -46q0 -72 -29 -109.5t-84 -37.5q-56 0 -84.5 37t-28.5 110q0 25 2 55t5 64zM346 1399q48 0 82.5 -34t34.5 -83t-34.5 -83t-82.5 -34q-49 0 -83 34t-34 83q0 48 34.5 82.5t82.5 34.5z" />
    <glyph glyph-name="logicalnot" unicode="&#xac;" horiz-adv-x="1706" 
d="M254 858h1198v-502h-115v385h-1083v117z" />
    <glyph glyph-name="radical" unicode="&#x221a;" horiz-adv-x="1288" 
d="M1106 1647h182v-82h-119l-594 -1606h-53l-323 893l-119 -43l-23 68l262 92l265 -729z" />
    <glyph glyph-name="florin" unicode="&#x192;" horiz-adv-x="1139" 
d="M946 1149l-174 147q-87 -31 -122.5 -110t-35.5 -268v-164h332v-101h-331q0 -37 0.5 -80t0.5 -124q0 -221 -21.5 -344.5t-72.5 -210.5q-61 -110 -163.5 -175t-211.5 -65q-61 0 -98 32t-37 85q0 37 19 68.5t55 54.5l209 -117q84 49 119 143t35 285v448h-236v101h236v153
q0 133 29 215t100 152q57 57 134 91t150 34q78 0 127 -36t49 -91q0 -38 -22 -67.5t-70 -55.5z" />
    <glyph glyph-name="approxequal" unicode="&#x2248;" horiz-adv-x="1706" 
d="M1530 584v-131q-107 -75 -202 -110.5t-187 -35.5q-98 0 -288 69.5t-290 69.5q-82 0 -169.5 -35.5t-215.5 -123.5v131q108 74 203.5 110.5t183.5 36.5q111 0 301.5 -69.5t276.5 -69.5q85 0 173.5 35.5t213.5 122.5zM1530 934v-131q-104 -73 -200 -108.5t-187 -35.5
q-100 0 -290 69t-290 69q-83 0 -171.5 -36t-213.5 -122v131q106 73 202 109t185 36q111 0 300.5 -68.5t277.5 -68.5q87 0 175 35t212 121z" />
    <glyph glyph-name="Delta" unicode="&#x2206;" horiz-adv-x="1208" 
d="M555 1212l-389 -1042h768zM596 1497h29l555 -1497h-1151z" />
    <glyph glyph-name="guillemotleft" unicode="&#xab;" horiz-adv-x="905" 
d="M819 846v-135l-239 -219l239 -222v-133l-334 273v163zM416 846v-135l-240 -219l240 -222v-133l-336 273v163z" />
    <glyph glyph-name="guillemotright" unicode="&#xbb;" horiz-adv-x="905" 
d="M498 846l336 -273v-163l-336 -273v133l239 222l-239 219v135zM94 846l334 -273v-163l-334 -273v133l240 222l-240 219v135z" />
    <glyph glyph-name="ellipsis" unicode="&#x2026;" horiz-adv-x="2048" 
d="M342 242q54 0 91.5 -38t37.5 -93q0 -54 -38 -91.5t-91 -37.5q-55 0 -93 37t-38 92q0 54 38 92.5t93 38.5zM1024 242q54 0 91.5 -38t37.5 -93q0 -54 -38 -91.5t-91 -37.5q-55 0 -93 37t-38 92q0 54 38 92.5t93 38.5zM1708 242q54 0 91.5 -38t37.5 -93q0 -54 -38 -91.5
t-91 -37.5q-55 0 -93 37t-38 92q0 54 38 92.5t93 38.5z" />
    <glyph glyph-name="nonbreakingspace" unicode="&#xa0;" horiz-adv-x="1139" 
 />
    <glyph glyph-name="Agrave" unicode="&#xc0;" horiz-adv-x="1309" 
d="M614 1176l-202 -568h413zM582 1391h135l491 -1282l123 -25v-84h-465v84l127 10l15 29l-148 391h-483l-146 -391l21 -29l133 -10v-84h-401v84l118 25zM356 1910h203l198 -389h-102z" />
    <glyph glyph-name="Atilde" unicode="&#xc3;" horiz-adv-x="1309" 
d="M614 1176l-202 -568h413zM582 1391h135l491 -1282l123 -25v-84h-465v84l127 10l15 29l-148 391h-483l-146 -391l21 -29l133 -10v-84h-401v84l118 25zM882 1853h84q0 -5 1 -15t1 -16q0 -96 -48.5 -156.5t-123.5 -60.5q-70 0 -171 53.5t-124 53.5q-33 0 -53 -30t-20 -81
q0 -4 1 -12t1 -12h-88v20q0 110 44.5 167.5t129.5 57.5q62 0 158.5 -53t123.5 -53q44 0 64 30t20 97v10z" />
    <glyph glyph-name="Otilde" unicode="&#xd5;" horiz-adv-x="1497" 
d="M750 1298q-206 0 -327.5 -164.5t-121.5 -445.5q0 -280 122.5 -446t326.5 -166q202 0 324 166.5t122 445.5t-122 444.5t-324 165.5zM750 1409q131 0 244 -45t206 -135q104 -101 157.5 -238t53.5 -303q0 -114 -26 -215t-78 -190q-87 -149 -234 -232.5t-323 -83.5
q-131 0 -246.5 45t-204.5 131q-104 101 -157.5 239t-53.5 306q0 167 53 304t156 237q92 89 206.5 134.5t246.5 45.5zM977 1853h84q0 -5 1 -15t1 -16q0 -96 -48.5 -156.5t-123.5 -60.5q-70 0 -171 53.5t-124 53.5q-33 0 -53 -30t-20 -81q0 -4 1 -12t1 -12h-88v20
q0 110 44.5 167.5t129.5 57.5q62 0 158.5 -53t123.5 -53q44 0 64 30t20 97v10z" />
    <glyph glyph-name="OE" unicode="&#x152;" horiz-adv-x="2034" 
d="M1133 1124v250h770v-299h-115l-29 174l-28 31h-426v-518h286l31 29l20 149h97v-451h-97l-20 148l-31 31h-286v-574h499l31 33l33 207h108v-334h-843v252q-73 -132 -183.5 -200t-253.5 -68q-120 0 -225.5 43.5t-187.5 128.5q-96 97 -145.5 232t-49.5 300q0 163 49.5 296.5
t147.5 234.5q79 82 186 127t225 45q161 0 267.5 -65t169.5 -202zM717 1284q-190 0 -303 -160t-113 -432q0 -277 113 -439.5t303 -162.5q189 0 303.5 162t114.5 434q0 273 -114.5 435.5t-303.5 162.5z" />
    <glyph glyph-name="oe" unicode="&#x153;" horiz-adv-x="1673" 
d="M1587 539h-610v-7q0 -199 90 -311t248 -112q65 0 127 24t145 84v-113q-86 -62 -169.5 -93t-166.5 -31q-112 0 -203 51t-159 153q-76 -102 -165 -153t-192 -51q-199 0 -327.5 144t-128.5 370q0 225 128.5 368.5t327.5 143.5q119 0 213.5 -51.5t155.5 -149.5
q56 96 143 148.5t189 52.5q169 0 262.5 -106.5t93.5 -299.5q0 -24 -0.5 -37.5t-1.5 -23.5zM1405 625v28q0 125 -48.5 192.5t-137.5 67.5q-91 0 -153.5 -77t-78.5 -211h418zM535 915q-121 0 -194 -114t-73 -307t73.5 -308.5t193.5 -115.5t193 115t73 309q0 193 -72.5 307
t-193.5 114z" />
    <glyph glyph-name="endash" unicode="&#x2013;" horiz-adv-x="1024" 
d="M0 555h1024v-125h-1024v125z" />
    <glyph glyph-name="emdash" unicode="&#x2014;" horiz-adv-x="2048" 
d="M0 430v125h2048v-125h-2048z" />
    <glyph glyph-name="quotedblleft" unicode="&#x201c;" horiz-adv-x="825" 
d="M680 1460h88q-84 -94 -124 -170.5t-40 -144.5q0 -20 1 -29.5t3 -17.5h133q14 -20 20.5 -37.5t6.5 -34.5q0 -53 -34.5 -87t-88.5 -34q-73 0 -117.5 51.5t-44.5 137.5q0 89 49.5 181t147.5 185zM268 1460h88q-84 -94 -123.5 -170.5t-39.5 -144.5q0 -20 0.5 -29.5t3.5 -17.5
h131q13 -20 19.5 -37.5t6.5 -34.5q0 -53 -34 -87t-89 -34q-72 0 -115.5 51.5t-43.5 137.5q0 89 49 181t147 185z" />
    <glyph glyph-name="quotedblright" unicode="&#x201d;" horiz-adv-x="825" 
d="M563 905h-88q84 92 124 169t40 147q0 19 -1 28.5t-3 18.5h-131q-14 19 -20.5 38t-6.5 37q0 52 34 84.5t87 32.5q73 0 117.5 -51.5t44.5 -136.5q0 -89 -50 -181.5t-147 -185.5zM152 905h-89q85 92 124.5 169t39.5 147q0 19 -1 28.5t-3 18.5h-133q-13 19 -20 38t-7 37
q0 51 35 84t88 33q73 0 117.5 -51.5t44.5 -136.5q0 -89 -49.5 -181.5t-146.5 -185.5z" />
    <glyph glyph-name="quoteleft" unicode="&#x2018;" horiz-adv-x="412" 
d="M268 1460h88q-84 -94 -123.5 -170.5t-39.5 -144.5q0 -20 0.5 -29.5t3.5 -17.5h131q13 -20 19.5 -37.5t6.5 -34.5q0 -53 -34 -87t-89 -34q-72 0 -115.5 51.5t-43.5 137.5q0 89 49 181t147 185z" />
    <glyph glyph-name="quoteright" unicode="&#x2019;" horiz-adv-x="412" 
d="M152 905h-89q85 92 124.5 169t39.5 147q0 19 -1 28.5t-3 18.5h-133q-13 19 -20 38t-7 37q0 51 35 84t88 33q73 0 117.5 -51.5t44.5 -136.5q0 -89 -49.5 -181.5t-146.5 -185.5z" />
    <glyph glyph-name="divide" unicode="&#xf7;" horiz-adv-x="1706" 
d="M854 365q47 0 81 -34t34 -81t-33.5 -81t-81.5 -34t-81.5 33.5t-33.5 81.5t34 81.5t81 33.5zM254 670h1198v-117h-1198v117zM854 1085q48 0 81.5 -33.5t33.5 -80.5q0 -48 -33.5 -81.5t-81.5 -33.5q-49 0 -82 33.5t-33 81.5q0 47 34 80.5t81 33.5z" />
    <glyph glyph-name="lozenge" unicode="&#x25ca;" horiz-adv-x="1012" 
d="M506 1409l-385 -817l385 -825l385 825zM506 1653l500 -1061l-500 -1069l-500 1069z" />
    <glyph glyph-name="ydieresis" unicode="&#xff;" horiz-adv-x="1014" 
d="M-2 985h444v-76l-108 -8l-25 -33l246 -637l256 637l-16 33l-111 8v76h365v-76l-119 -16l-410 -995q-75 -181 -153 -262.5t-174 -81.5q-64 0 -103 31.5t-39 82.5q0 30 13.5 58t39.5 53l197 -78q45 48 87.5 127t78.5 180l-344 889l-125 12v76zM700 1415q44 0 73.5 -30
t29.5 -74q0 -43 -30 -73t-73 -30t-73.5 30t-30.5 73q0 44 30.5 74t73.5 30zM320 1415q43 0 72.5 -30t29.5 -74q0 -43 -29.5 -73t-72.5 -30q-44 0 -74.5 30t-30.5 73q0 44 30.5 74t74.5 30z" />
    <glyph glyph-name="Ydieresis" unicode="&#x178;" horiz-adv-x="1200" 
d="M-27 1374h476v-82l-117 -12l-21 -23l314 -563l344 547l-19 29l-125 22v82h418v-82l-125 -26l-426 -682v-461l33 -29l139 -10v-84h-530v84l139 10l33 29v434l-408 715l-125 20v82zM790 1818q44 0 73.5 -30t29.5 -74q0 -43 -30 -73t-73 -30t-73.5 30t-30.5 73q0 44 30.5 74
t73.5 30zM410 1818q43 0 72.5 -30t29.5 -74q0 -43 -29.5 -73t-72.5 -30q-44 0 -74.5 30t-30.5 73q0 44 30.5 74t74.5 30z" />
    <glyph glyph-name="fraction" unicode="&#x2215;" horiz-adv-x="342" 
d="M545 1374h125l-875 -1374h-125z" />
    <glyph glyph-name="currency" unicode="&#xa4;" horiz-adv-x="1139" 
d="M1071 47q-107 -37 -195.5 -54.5t-166.5 -17.5q-221 0 -349 133.5t-163 399.5h-168l20 86h139q-1 20 -1.5 39.5t-0.5 44.5q0 26 1.5 57.5t4.5 71.5h-163l20 86h156q44 239 181.5 372.5t340.5 133.5q65 0 150 -17.5t194 -52.5v-315h-104l-31 198l-29 37q-47 28 -92 41
t-94 13q-138 0 -216.5 -97.5t-113.5 -312.5h465l-20 -86h-453q-1 -15 -2 -42q-2 -57 -2 -77q0 -29 0.5 -51t1.5 -43h399l-20 -86h-373q28 -233 109 -333.5t239 -100.5q36 0 73.5 6.5t80.5 19.5l33 33l49 238h100v-324z" />
    <glyph glyph-name="guilsinglleft" unicode="&#x2039;" horiz-adv-x="502" 
d="M416 846v-135l-240 -219l240 -222v-133l-336 273v163z" />
    <glyph glyph-name="guilsinglright" unicode="&#x203a;" horiz-adv-x="502" 
d="M94 846l334 -273v-163l-334 -273v133l240 222l-240 219v135z" />
    <glyph glyph-name="fi" unicode="&#xf001;" horiz-adv-x="1176" 
d="M817 1321q0 45 30.5 74.5t76.5 29.5q44 0 75 -30.5t31 -73.5q0 -45 -31 -76t-75 -31q-45 0 -76 31t-31 76zM653 1305l-157 114q-60 -34 -89.5 -111t-29.5 -200v-150h422l119 56h67v-897l33 -33l96 -10v-74h-446v74l110 10l35 33v745h-438v-745l35 -33l104 -10v-74h-455
v74l109 10l37 33v745h-131v64l131 32v33q0 234 113.5 383.5t285.5 149.5q62 0 99.5 -30t37.5 -79q0 -38 -21.5 -65t-66.5 -45z" />
    <glyph glyph-name="fi" unicode="&#xfb01;" horiz-adv-x="1176" 
d="M817 1321q0 45 30.5 74.5t76.5 29.5q44 0 75 -30.5t31 -73.5q0 -45 -31 -76t-75 -31q-45 0 -76 31t-31 76zM653 1305l-157 114q-60 -34 -89.5 -111t-29.5 -200v-150h422l119 56h67v-897l33 -33l96 -10v-74h-446v74l110 10l35 33v745h-438v-745l35 -33l104 -10v-74h-455
v74l109 10l37 33v745h-131v64l131 32v33q0 234 113.5 383.5t285.5 149.5q62 0 99.5 -30t37.5 -79q0 -38 -21.5 -65t-66.5 -45z" />
    <glyph glyph-name="fl" unicode="&#xf002;" horiz-adv-x="1186" 
d="M950 1522h45v-1405l35 -33l117 -10v-74h-465v74l109 10l34 33v1249h-92l-71 -53l-152 114q-66 -30 -99.5 -110.5t-33.5 -208.5v-150h285v-96h-287v-745l35 -33l104 -10v-74h-455v74l109 10l37 33v745h-131v64l131 32v33q0 234 113.5 383.5t285.5 149.5q59 0 95 -26.5
t42 -74.5z" />
    <glyph glyph-name="fl" unicode="&#xfb02;" horiz-adv-x="1186" 
d="M950 1522h45v-1405l35 -33l117 -10v-74h-465v74l109 10l34 33v1249h-92l-71 -53l-152 114q-66 -30 -99.5 -110.5t-33.5 -208.5v-150h285v-96h-287v-745l35 -33l104 -10v-74h-455v74l109 10l37 33v745h-131v64l131 32v33q0 234 113.5 383.5t285.5 149.5q59 0 95 -26.5
t42 -74.5z" />
    <glyph glyph-name="daggerdbl" unicode="&#x2021;" horiz-adv-x="1024" 
d="M498 172h28l76 -287l-92 -155l-90 155zM840 309l149 -92l-149 -94l-289 72v32zM180 309l295 -82v-32l-295 -72l-145 94zM498 942h28l99 -340l-99 -342h-28l-105 342zM840 1081l149 -92l-149 -94l-289 72v32zM180 1081l295 -82v-32l-295 -72l-145 94zM510 1470l92 -155
l-76 -287h-28l-78 287z" />
    <glyph glyph-name="periodcentered" unicode="&#xb7;" horiz-adv-x="569" 
d="M285 817q54 0 91.5 -38t37.5 -93q0 -54 -38 -91.5t-91 -37.5q-54 0 -92.5 38t-38.5 91q0 55 38 93t93 38z" />
    <glyph glyph-name="quotesinglbase" unicode="&#x201a;" horiz-adv-x="412" 
d="M152 -336h-89q86 97 125 172t39 141q0 20 -1 29.5t-3 18.5h-131q-13 19 -19.5 37.5t-6.5 37.5q0 51 34.5 85t87.5 34q73 0 116.5 -51.5t43.5 -136.5q0 -89 -49.5 -181.5t-146.5 -185.5z" />
    <glyph glyph-name="quotedblbase" unicode="&#x201e;" horiz-adv-x="825" 
d="M565 -336h-88q86 97 125 172t39 141q0 20 -1 29.5t-3 18.5h-133q-14 19 -20.5 37.5t-6.5 37.5q0 51 35 85t88 34q73 0 116.5 -51.5t43.5 -136.5q0 -90 -49.5 -182.5t-145.5 -184.5zM152 -336h-89q86 97 125 172t39 141q0 20 -1 29.5t-3 18.5h-131q-13 19 -19.5 37.5
t-6.5 37.5q0 51 34.5 85t87.5 34q73 0 116.5 -51.5t43.5 -136.5q0 -89 -49.5 -181.5t-146.5 -185.5z" />
    <glyph glyph-name="perthousand" unicode="&#x2030;" horiz-adv-x="2509" 
d="M2132 762q-78 0 -119 -91.5t-41 -264.5q0 -176 40.5 -266.5t119.5 -90.5q80 0 122 90.5t42 266.5q0 173 -42 264.5t-122 91.5zM1370 762q-77 0 -118.5 -91.5t-41.5 -264.5q0 -176 40.5 -266.5t119.5 -90.5q81 0 122.5 90.5t41.5 266.5q0 173 -42 264.5t-122 91.5z
M2136 834q142 0 224.5 -115t82.5 -313q0 -201 -82.5 -316t-224.5 -115q-143 0 -225 114.5t-82 316.5q0 198 83 313t224 115zM1374 834q142 0 224.5 -115t82.5 -313q0 -201 -82 -316t-225 -115t-225 114.5t-82 316.5q0 198 83 313t224 115zM367 1325q-78 0 -119 -90.5
t-41 -263.5q0 -176 40.5 -266.5t119.5 -90.5q80 0 121.5 91t41.5 266q0 173 -41.5 263.5t-121.5 90.5zM1245 1374h125l-876 -1374h-123zM371 1399q141 0 224 -115t83 -313q0 -201 -82.5 -315.5t-224.5 -114.5q-143 0 -225.5 114t-82.5 316q0 198 83 313t225 115z" />
    <glyph glyph-name="Acircumflex" unicode="&#xc2;" horiz-adv-x="1309" 
d="M614 1176l-202 -568h413zM582 1391h135l491 -1282l123 -25v-84h-465v84l127 10l15 29l-148 391h-483l-146 -391l21 -29l133 -10v-84h-401v84l118 25zM589 1910h132l225 -389h-111l-180 289l-178 -289h-113z" />
    <glyph glyph-name="Ecircumflex" unicode="&#xca;" horiz-adv-x="1180" 
d="M68 0v84l116 10l35 29v1128l-35 29l-116 12v82h981v-299h-115l-29 174l-28 31h-474v-518h336l29 29l20 149h97v-451h-97l-20 148l-29 31h-336v-574h549l29 33l35 207h106v-334h-1054zM524 1910h132l225 -389h-111l-180 289l-178 -289h-113z" />
    <glyph glyph-name="Aacute" unicode="&#xc1;" horiz-adv-x="1309" 
d="M614 1176l-202 -568h413zM582 1391h135l491 -1282l123 -25v-84h-465v84l127 10l15 29l-148 391h-483l-146 -391l21 -29l133 -10v-84h-401v84l118 25zM776 1910h203l-299 -389h-103z" />
    <glyph glyph-name="Edieresis" unicode="&#xcb;" horiz-adv-x="1180" 
d="M68 0v84l116 10l35 29v1128l-35 29l-116 12v82h981v-299h-115l-29 174l-28 31h-474v-518h336l29 29l20 149h97v-451h-97l-20 148l-29 31h-336v-574h549l29 33l35 207h106v-334h-1054zM780 1818q44 0 73.5 -30t29.5 -74q0 -43 -30 -73t-73 -30t-73.5 30t-30.5 73
q0 44 30.5 74t73.5 30zM400 1818q43 0 72.5 -30t29.5 -74q0 -43 -29.5 -73t-72.5 -30q-44 0 -74.5 30t-30.5 73q0 44 30.5 74t74.5 30z" />
    <glyph glyph-name="Egrave" unicode="&#xc8;" horiz-adv-x="1180" 
d="M68 0v84l116 10l35 29v1128l-35 29l-116 12v82h981v-299h-115l-29 174l-28 31h-474v-518h336l29 29l20 149h97v-451h-97l-20 148l-29 31h-336v-574h549l29 33l35 207h106v-334h-1054zM291 1910h203l198 -389h-102z" />
    <glyph glyph-name="Iacute" unicode="&#xcd;" horiz-adv-x="664" 
d="M72 0v84l131 10l35 29v1128l-35 29l-131 12v82h520v-82l-131 -12l-35 -29v-1128l35 -29l131 -10v-84h-520zM455 1910h203l-299 -389h-103z" />
    <glyph glyph-name="Icircumflex" unicode="&#xce;" horiz-adv-x="664" 
d="M72 0v84l131 10l35 29v1128l-35 29l-131 12v82h520v-82l-131 -12l-35 -29v-1128l35 -29l131 -10v-84h-520zM268 1910h132l225 -389h-111l-180 289l-178 -289h-113z" />
    <glyph glyph-name="Idieresis" unicode="&#xcf;" horiz-adv-x="664" 
d="M72 0v84l131 10l35 29v1128l-35 29l-131 12v82h520v-82l-131 -12l-35 -29v-1128l35 -29l131 -10v-84h-520zM524 1818q44 0 73.5 -30t29.5 -74q0 -43 -30 -73t-73 -30t-73.5 30t-30.5 73q0 44 30.5 74t73.5 30zM144 1818q43 0 72.5 -30t29.5 -74q0 -43 -29.5 -73
t-72.5 -30q-44 0 -74.5 30t-30.5 73q0 44 30.5 74t74.5 30z" />
    <glyph glyph-name="Igrave" unicode="&#xcc;" horiz-adv-x="664" 
d="M72 0v84l131 10l35 29v1128l-35 29l-131 12v82h520v-82l-131 -12l-35 -29v-1128l35 -29l131 -10v-84h-520zM35 1910h203l198 -389h-102z" />
    <glyph glyph-name="Oacute" unicode="&#xd3;" horiz-adv-x="1497" 
d="M750 1298q-206 0 -327.5 -164.5t-121.5 -445.5q0 -280 122.5 -446t326.5 -166q202 0 324 166.5t122 445.5t-122 444.5t-324 165.5zM750 1409q131 0 244 -45t206 -135q104 -101 157.5 -238t53.5 -303q0 -114 -26 -215t-78 -190q-87 -149 -234 -232.5t-323 -83.5
q-131 0 -246.5 45t-204.5 131q-104 101 -157.5 239t-53.5 306q0 167 53 304t156 237q92 89 206.5 134.5t246.5 45.5zM871 1910h203l-299 -389h-103z" />
    <glyph glyph-name="Ocircumflex" unicode="&#xd4;" horiz-adv-x="1497" 
d="M750 1298q-206 0 -327.5 -164.5t-121.5 -445.5q0 -280 122.5 -446t326.5 -166q202 0 324 166.5t122 445.5t-122 444.5t-324 165.5zM750 1409q131 0 244 -45t206 -135q104 -101 157.5 -238t53.5 -303q0 -114 -26 -215t-78 -190q-87 -149 -234 -232.5t-323 -83.5
q-131 0 -246.5 45t-204.5 131q-104 101 -157.5 239t-53.5 306q0 167 53 304t156 237q92 89 206.5 134.5t246.5 45.5zM684 1910h132l225 -389h-111l-180 289l-178 -289h-113z" />
    <glyph glyph-name="apple" unicode="&#xf000;" horiz-adv-x="1618" 
d="M836 1216q-1 6 -1.5 14t-0.5 23q0 124 95 229.5t236 131.5q1 -10 1.5 -23t0.5 -39q0 -131 -103.5 -234.5t-203.5 -103.5h-8q-3 0 -7.5 1t-8.5 1zM1505 403q-114 -247 -205 -342.5t-204 -95.5q-50 0 -131.5 33t-122.5 33q-45 0 -131 -33t-127 -33q-64 0 -128.5 44
t-129.5 132q-102 140 -157.5 295.5t-55.5 300.5q0 219 125 356.5t323 137.5q68 0 155 -34t124 -34q34 0 121.5 35t152.5 35q110 0 198 -40t161 -124q-102 -65 -151.5 -145.5t-49.5 -182.5q0 -113 60 -200t173 -138z" />
    <glyph glyph-name="Ograve" unicode="&#xd2;" horiz-adv-x="1497" 
d="M750 1298q-206 0 -327.5 -164.5t-121.5 -445.5q0 -280 122.5 -446t326.5 -166q202 0 324 166.5t122 445.5t-122 444.5t-324 165.5zM750 1409q131 0 244 -45t206 -135q104 -101 157.5 -238t53.5 -303q0 -114 -26 -215t-78 -190q-87 -149 -234 -232.5t-323 -83.5
q-131 0 -246.5 45t-204.5 131q-104 101 -157.5 239t-53.5 306q0 167 53 304t156 237q92 89 206.5 134.5t246.5 45.5zM451 1910h203l198 -389h-102z" />
    <glyph glyph-name="Uacute" unicode="&#xda;" horiz-adv-x="1421" 
d="M51 1374h502v-82l-127 -12l-35 -29v-741q0 -215 86.5 -311.5t278.5 -96.5q190 0 277 97.5t87 310.5v727l-39 37l-123 18v82h433v-82l-123 -18l-37 -37v-745q0 -147 -21 -225t-69 -136q-61 -73 -172.5 -114.5t-251.5 -41.5q-141 0 -252 41.5t-172 114.5q-49 59 -69.5 136
t-20.5 225v759l-35 29l-117 12v82zM832 1910h203l-299 -389h-103z" />
    <glyph glyph-name="Ucircumflex" unicode="&#xdb;" horiz-adv-x="1421" 
d="M51 1374h502v-82l-127 -12l-35 -29v-741q0 -215 86.5 -311.5t278.5 -96.5q190 0 277 97.5t87 310.5v727l-39 37l-123 18v82h433v-82l-123 -18l-37 -37v-745q0 -147 -21 -225t-69 -136q-61 -73 -172.5 -114.5t-251.5 -41.5q-141 0 -252 41.5t-172 114.5q-49 59 -69.5 136
t-20.5 225v759l-35 29l-117 12v82zM645 1910h132l225 -389h-111l-180 289l-178 -289h-113z" />
    <glyph glyph-name="Ugrave" unicode="&#xd9;" horiz-adv-x="1421" 
d="M51 1374h502v-82l-127 -12l-35 -29v-741q0 -215 86.5 -311.5t278.5 -96.5q190 0 277 97.5t87 310.5v727l-39 37l-123 18v82h433v-82l-123 -18l-37 -37v-745q0 -147 -21 -225t-69 -136q-61 -73 -172.5 -114.5t-251.5 -41.5q-141 0 -252 41.5t-172 114.5q-49 59 -69.5 136
t-20.5 225v759l-35 29l-117 12v82zM412 1910h203l198 -389h-102z" />
    <glyph glyph-name="dotlessi" unicode="&#x131;" horiz-adv-x="573" 
d="M307 995h80v-878l35 -33l110 -10v-74h-460v74l108 10l35 33v741h-143v64z" />
    <glyph glyph-name="circumflex" unicode="&#x2c6;" horiz-adv-x="1024" 
d="M446 1507h132l225 -389h-111l-180 289l-178 -289h-113z" />
    <glyph glyph-name="tilde" unicode="&#x2dc;" horiz-adv-x="1024" 
d="M739 1450h84q0 -5 1 -15t1 -16q0 -96 -48.5 -156.5t-123.5 -60.5q-70 0 -171 53.5t-124 53.5q-33 0 -53 -30t-20 -81q0 -4 1 -12t1 -12h-88v20q0 110 44.5 167.5t129.5 57.5q62 0 158.5 -53t123.5 -53q44 0 64 30t20 97v10z" />
    <glyph glyph-name="macron" unicode="&#xaf;" horiz-adv-x="1024" 
d="M209 1368h616v-123h-616v123z" />
    <glyph glyph-name="breve" unicode="&#x2d8;" horiz-adv-x="1024" 
d="M223 1452h80v-16q0 -80 47 -113t164 -33q115 0 161 33t46 113v16h82v-22q0 -145 -66 -207t-223 -62q-159 0 -225 61t-66 208v22z" />
    <glyph glyph-name="dotaccent" unicode="&#x2d9;" horiz-adv-x="1024" 
d="M512 1425q47 0 79 -31.5t32 -78.5q0 -46 -32 -76.5t-79 -30.5q-46 0 -77.5 31t-31.5 76q0 46 31.5 78t77.5 32z" />
    <glyph glyph-name="ring" unicode="&#x2da;" horiz-adv-x="1024" 
d="M512 1507q-62 0 -104.5 -43t-42.5 -106q0 -62 43 -105t104 -43q63 0 106.5 43t43.5 105q0 63 -43.5 106t-106.5 43zM512 1599q102 0 172 -69t70 -170q0 -102 -70.5 -172t-171.5 -70t-170.5 70t-69.5 172q0 101 69.5 170t170.5 69z" />
    <glyph glyph-name="cedilla" unicode="&#xb8;" horiz-adv-x="1024" 
d="M481 0h76v-124q9 0 18.5 0.5t22.5 0.5q72 0 113 -39t41 -108q0 -86 -65 -136.5t-177 -50.5q-33 0 -68 5.5t-73 15.5v74q32 -9 61.5 -13t58.5 -4q65 0 101.5 23.5t36.5 64.5q0 36 -27 56t-76 20q-7 0 -16 -1l-26 -3z" />
    <glyph glyph-name="hungarumlaut" unicode="&#x2dd;" horiz-adv-x="1024" 
d="M768 1507h201l-387 -389h-97zM465 1507h180l-289 -389h-84z" />
    <glyph glyph-name="ogonek" unicode="&#x2db;" horiz-adv-x="1024" 
d="M512 0h90q-53 -45 -81.5 -102t-28.5 -115q0 -57 29.5 -87t86.5 -30q14 0 59 7q6 1 9 1v-102q-24 -7 -50.5 -10.5t-54.5 -3.5q-97 0 -147.5 44t-50.5 130q0 74 37 146t102 122z" />
    <glyph glyph-name="caron" unicode="&#x2c7;" horiz-adv-x="1024" 
d="M221 1507h113l178 -288l180 288h111l-225 -389h-132z" />
    <glyph glyph-name="Lslash" unicode="&#x141;" horiz-adv-x="1065" 
d="M55 1374h500v-82l-117 -12l-35 -29v-417l193 127l53 -78l-246 -166v-623h463l29 33l35 246h106v-373h-981v84l129 10l35 29v473l-149 -102l-50 81l199 134v542l-35 29l-129 12v82z" />
    <glyph glyph-name="lslash" unicode="&#x142;" horiz-adv-x="578" 
d="M305 1507h78v-647l176 117l53 -80l-229 -154v-626l37 -33l117 -10v-74h-480v74l121 10l35 33v512l-154 -105l-49 82l203 135v629h-158v64z" />
    <glyph glyph-name="Scaron" unicode="&#x160;" horiz-adv-x="1139" 
d="M123 41v360h121l24 -235l27 -35q45 -23 103 -35t126 -12q143 0 226.5 66.5t83.5 179.5q0 157 -294 282l-49 21q-210 91 -278 169.5t-68 203.5q0 176 129.5 284.5t343.5 108.5q86 0 172.5 -14.5t176.5 -43.5v-317h-107l-31 195l-30 34q-39 22 -85 32.5t-100 10.5
q-128 0 -203 -66.5t-75 -180.5q0 -83 52.5 -137.5t234.5 -131.5l51 -20q179 -70 258 -148q45 -44 67.5 -101t22.5 -124q0 -185 -145 -298.5t-385 -113.5q-107 0 -201.5 17t-167.5 49zM278 1910h113l178 -288l180 288h111l-225 -389h-132z" />
    <glyph glyph-name="scaron" unicode="&#x161;" horiz-adv-x="819" 
d="M705 961v-232h-101l-16 145q-41 22 -78 33t-74 11q-80 0 -125 -39t-45 -109q0 -57 36 -97t138 -89q16 -8 49 -23q116 -53 168 -96q38 -30 58 -75.5t20 -100.5q0 -144 -101.5 -225.5t-281.5 -81.5q-74 0 -141.5 10.5t-124.5 32.5v266h98l25 -174q43 -25 86.5 -37t87.5 -12
q87 0 139.5 45.5t52.5 119.5q0 62 -36 102.5t-172 102.5q-154 69 -209.5 130t-55.5 151q0 137 95 212t268 75q69 0 128.5 -11.5t111.5 -33.5zM121 1507h113l178 -288l180 288h111l-225 -389h-132z" />
    <glyph glyph-name="Zcaron" unicode="&#x17d;" horiz-adv-x="1200" 
d="M137 1374h957v-86l-779 -1188h619l22 27l37 244h111v-371h-1012v84l776 1192h-546l-39 -27l-33 -192h-113v317zM309 1910h113l178 -288l180 288h111l-225 -389h-132z" />
    <glyph glyph-name="zcaron" unicode="&#x17e;" horiz-adv-x="958" 
d="M92 0v102l547 789h-379l-29 -33l-22 -158h-96v285h739v-78l-567 -813h440l31 33l22 174h105v-301h-791zM190 1507h113l178 -288l180 288h111l-225 -389h-132z" />
    <glyph glyph-name="brokenbar" unicode="&#xa6;" horiz-adv-x="1024" 
d="M449 408h126v-758h-126v758zM449 1432h126v-758h-126v758z" />
    <glyph glyph-name="Eth" unicode="&#xd0;" horiz-adv-x="1419" 
d="M403 670v-576h162q280 0 418.5 147.5t138.5 446.5t-137.5 445.5t-419.5 146.5h-162v-512h340v-98h-340zM573 1374q360 0 558 -179.5t198 -506.5q0 -182 -64.5 -323.5t-191.5 -237.5q-90 -68 -203 -97.5t-297 -29.5h-505v84l116 10l35 29v547h-188v98h188v483l-35 29
l-116 12v82h505z" />
    <glyph glyph-name="eth" unicode="&#xf0;" horiz-adv-x="1081" 
d="M752 883q-51 13 -91 19.5t-71 6.5q-157 0 -244.5 -108.5t-87.5 -304.5t80 -313t209 -117q132 0 210.5 121t78.5 327q0 119 -21 209t-63 160zM700 981q-36 59 -77 116t-86 111l-263 -157l-45 77l240 146l-74 84l-166 14v60l232 69l145 -149l225 135l46 -80l-211 -127
q177 -205 260.5 -382.5t83.5 -350.5q0 -250 -134 -408.5t-339 -158.5q-207 0 -338 145.5t-131 374.5q0 219 140.5 357t362.5 138q25 0 54 -3t75 -11z" />
    <glyph glyph-name="Yacute" unicode="&#xdd;" horiz-adv-x="1200" 
d="M-27 1374h476v-82l-117 -12l-21 -23l314 -563l344 547l-19 29l-125 22v82h418v-82l-125 -26l-426 -682v-461l33 -29l139 -10v-84h-530v84l139 10l33 29v434l-408 715l-125 20v82zM721 1910h203l-299 -389h-103z" />
    <glyph glyph-name="yacute" unicode="&#xfd;" horiz-adv-x="1014" 
d="M-2 985h444v-76l-108 -8l-25 -33l246 -637l256 637l-16 33l-111 8v76h365v-76l-119 -16l-410 -995q-75 -181 -153 -262.5t-174 -81.5q-64 0 -103 31.5t-39 82.5q0 30 13.5 58t39.5 53l197 -78q45 48 87.5 127t78.5 180l-344 889l-125 12v76zM631 1507h203l-299 -389h-103
z" />
    <glyph glyph-name="Thorn" unicode="&#xde;" horiz-adv-x="1143" 
d="M410 381q40 -4 74.5 -6t60.5 -2q175 0 266.5 86t91.5 252q0 160 -94 236.5t-291 76.5q-43 0 -65.5 -1t-42.5 -3v-639zM72 1374h497v-82l-127 -12l-32 -29v-135h112q308 0 439 -95t131 -314q0 -197 -144 -315t-387 -118q-24 0 -58 2.5t-93 8.5v-162l32 -29l127 -10v-84
h-497v84l118 10l33 29v1128l-33 29l-118 12v82z" />
    <glyph glyph-name="thorn" unicode="&#xfe;" horiz-adv-x="1128" 
d="M371 119q48 -16 92.5 -24.5t83.5 -8.5q152 0 246 113.5t94 300.5q0 173 -81.5 275t-217.5 102q-50 0 -103 -17t-114 -53v-688zM57 -446v73l109 11l35 32v1700h-160v64l252 73h78v-624q83 63 156.5 93t144.5 30q172 0 283.5 -134.5t111.5 -345.5q0 -241 -137.5 -386.5
t-366.5 -145.5q-39 0 -87.5 4.5t-104.5 13.5v-342l37 -32l129 -11v-73h-480z" />
    <glyph glyph-name="minus" unicode="&#x2212;" horiz-adv-x="1706" 
d="M254 670h1198v-119h-1198v119z" />
    <glyph glyph-name="multiply" unicode="&#xd7;" horiz-adv-x="1706" 
d="M381 1169l477 -477l475 477l82 -82l-475 -477l475 -475l-82 -82l-475 475l-477 -475l-80 82l475 475l-475 477z" />
    <glyph glyph-name="onesuperior" unicode="&#xb9;" horiz-adv-x="752" 
d="M422 1389h37v-764l16 -19l146 -6v-51h-453v53l156 6l16 23v659l-211 -33v52z" />
    <glyph glyph-name="twosuperior" unicode="&#xb2;" horiz-adv-x="752" 
d="M190 645h408l25 105h59v-201h-625v78q299 222 382 321t83 193q0 87 -47.5 135.5t-132.5 48.5q-32 0 -62 -7t-59 -22v-130q-14 -10 -29 -14.5t-30 -4.5q-36 0 -56 18t-20 49q0 70 84 122.5t203 52.5q128 0 204 -64t76 -170q0 -96 -92.5 -202.5t-370.5 -307.5z" />
    <glyph glyph-name="threesuperior" unicode="&#xb3;" horiz-adv-x="752" 
d="M428 983q111 -8 174.5 -60.5t63.5 -138.5q0 -107 -96.5 -178t-245.5 -71q-111 0 -190 41.5t-79 93.5q0 27 22 45t54 18q10 0 20 -1.5t21 -4.5l41 -104q26 -15 54.5 -22t60.5 -7q91 0 152 55t61 137q0 75 -52 114.5t-149 39.5q-27 0 -42.5 -1t-29.5 -3v72h29q101 0 156 41
t55 116q0 74 -46.5 117t-125.5 43q-37 0 -69 -8.5t-60 -26.5v-116q-12 -8 -26 -11.5t-29 -3.5q-33 0 -53.5 18.5t-20.5 47.5q0 66 83.5 115t203.5 49q121 0 193.5 -56.5t72.5 -150.5q0 -72 -52 -122.5t-151 -76.5z" />
    <glyph glyph-name="onequarter" unicode="&#xbc;" horiz-adv-x="1776" 
d="M1509 651l-319 -354h319v354zM1534 776h74v-479h147v-74h-147v-266h-99v266h-415v74zM1262 1374h124l-874 -1374h-125zM399 1386h37v-710l17 -19l139 -4v-49h-432v49l147 6l17 21v616l-203 -30v47z" />
    <glyph glyph-name="onehalf" unicode="&#xbd;" horiz-adv-x="1776" 
d="M1241 90h387l25 98h57v-188h-598v72q284 205 364 298t80 181q0 83 -45 128.5t-127 45.5q-30 0 -58 -7t-56 -22l-1 -121q-12 -9 -26.5 -13.5t-30.5 -4.5q-33 0 -52 17.5t-19 48.5q0 64 79.5 111.5t192.5 47.5q124 0 196 -58t72 -157q0 -90 -87.5 -189t-352.5 -288z
M1262 1374h124l-874 -1374h-125zM399 1386h37v-710l17 -19l139 -4v-49h-432v49l147 6l17 21v616l-203 -30v47z" />
    <glyph glyph-name="threequarters" unicode="&#xbe;" horiz-adv-x="1778" 
d="M1509 651l-319 -354h319v354zM1534 776h74v-479h147v-74h-147v-266h-99v266h-415v74zM1262 1374h124l-874 -1374h-125zM410 1010q105 -8 165 -57t60 -128q0 -101 -91.5 -167t-234.5 -66q-105 0 -180.5 38.5t-75.5 86.5q0 26 20.5 42.5t51.5 16.5q9 0 18.5 -1.5t20.5 -4.5
l41 -96q27 -15 54 -22t54 -7q87 0 145 52.5t58 129.5q0 69 -49.5 106.5t-140.5 37.5q-16 0 -34 -1.5t-36 -4.5v67h29q95 0 146.5 38.5t51.5 109.5q0 68 -44.5 108.5t-119.5 40.5q-34 0 -63.5 -8t-58.5 -25v-108q-10 -7 -22.5 -10.5t-29.5 -3.5q-31 0 -50 16.5t-19 44.5
q0 61 78.5 106t191.5 45q117 0 186.5 -52t69.5 -140q0 -66 -49.5 -113.5t-142.5 -70.5z" />
    <glyph glyph-name="franc" unicode="&#x20a3;" horiz-adv-x="1882" 
d="M68 0v84l116 10l35 29v1128l-35 29l-133 12v82h983v-319h-112l-31 194l-27 31h-461v-539h336l29 29l20 150h97v-453h-97l-20 149l-29 31h-336v-524l35 -29l146 -10v-84h-516zM1161 0v74l109 10l35 33v741h-144v64l238 73h78v-192q50 51 104.5 100.5t114.5 97.5
q9 3 19.5 4t31.5 1q31 0 61 -6.5t62 -20.5v-176h-65q-20 24 -46.5 36.5t-58.5 12.5q-49 0 -103.5 -36.5t-119.5 -113.5v-585l35 -33l143 -10v-74h-494z" />
    <glyph glyph-name="Gbreve" unicode="&#x11e;" horiz-adv-x="1421" 
d="M854 659h512v-84l-113 -10l-34 -28v-490q-124 -36 -229.5 -54t-194.5 -18q-102 0 -191.5 21t-161.5 61q-165 94 -259.5 262t-94.5 369q0 326 199 518.5t536 192.5q93 0 192 -15t202 -45v-325h-115l-31 186l-29 37q-58 27 -115.5 40t-117.5 13q-237 0 -373.5 -157
t-136.5 -431q0 -287 141.5 -452.5t384.5 -165.5q47 0 99.5 6.5t109.5 20.5v426l-35 28l-145 10v84zM422 1855h80v-16q0 -80 47 -113t164 -33q115 0 161 33t46 113v16h82v-22q0 -145 -66 -207t-223 -62q-159 0 -225 61t-66 208v22z" />
    <glyph glyph-name="gbreve" unicode="&#x11f;" horiz-adv-x="1071" 
d="M422 61q-83 -25 -129.5 -78t-46.5 -122q0 -92 78 -152.5t200 -60.5q131 0 218 63t87 154q0 69 -38 102t-170 58zM504 926q-92 0 -146.5 -68.5t-54.5 -183.5q0 -114 55.5 -183t145.5 -69t145.5 69t55.5 183t-55 183t-146 69zM756 948h293v-96h-226q30 -45 44 -91t14 -99
q0 -141 -109 -230.5t-283 -89.5h-34q-12 -23 -17.5 -46t-5.5 -46q0 -7 2 -30q2 -13 2 -19l197 -31q192 -29 270 -86.5t78 -165.5q0 -59 -32.5 -120.5t-90.5 -108.5q-81 -66 -185 -100.5t-220 -34.5q-175 0 -273 70t-98 194q0 99 59 167t162 87q-10 24 -15 47t-5 45
q0 39 24 87t74 107q-117 26 -185.5 109.5t-68.5 200.5q0 151 109.5 244.5t287.5 93.5q59 0 116.5 -14.5t115.5 -43.5zM248 1452h80v-16q0 -80 47 -113t164 -33q115 0 161 33t46 113v16h82v-22q0 -145 -66 -207t-223 -62q-159 0 -225 61t-66 208v22z" />
    <glyph glyph-name="Idotaccent" unicode="&#x130;" horiz-adv-x="664" 
d="M72 0v84l131 10l35 29v1128l-35 29l-131 12v82h520v-82l-131 -12l-35 -29v-1128l35 -29l131 -10v-84h-520zM334 1828q47 0 79 -31.5t32 -78.5q0 -46 -32 -76.5t-79 -30.5q-46 0 -77.5 31t-31.5 76q0 46 31.5 78t77.5 32z" />
    <glyph glyph-name="Scedilla" unicode="&#x15e;" horiz-adv-x="1139" 
d="M123 41v360h121l24 -235l27 -35q45 -23 103 -35t126 -12q143 0 226.5 66.5t83.5 179.5q0 157 -294 282l-49 21q-210 91 -278 169.5t-68 203.5q0 176 129.5 284.5t343.5 108.5q86 0 172.5 -14.5t176.5 -43.5v-317h-107l-31 195l-30 34q-39 22 -85 32.5t-100 10.5
q-128 0 -203 -66.5t-75 -180.5q0 -83 52.5 -137.5t234.5 -131.5l51 -20q179 -70 258 -148q45 -44 67.5 -101t22.5 -124q0 -185 -145 -298.5t-385 -113.5q-107 0 -201.5 17t-167.5 49zM538 0h76v-124q9 0 18.5 0.5t22.5 0.5q72 0 113 -39t41 -108q0 -86 -65 -136.5
t-177 -50.5q-33 0 -68 5.5t-73 15.5v74q32 -9 61.5 -13t58.5 -4q65 0 101.5 23.5t36.5 64.5q0 36 -27 56t-76 20q-7 0 -16 -1l-26 -3z" />
    <glyph glyph-name="scedilla" unicode="&#x15f;" horiz-adv-x="819" 
d="M705 961v-232h-101l-16 145q-41 22 -78 33t-74 11q-80 0 -125 -39t-45 -109q0 -57 36 -97t138 -89q16 -8 49 -23q116 -53 168 -96q38 -30 58 -75.5t20 -100.5q0 -144 -101.5 -225.5t-281.5 -81.5q-74 0 -141.5 10.5t-124.5 32.5v266h98l25 -174q43 -25 86.5 -37t87.5 -12
q87 0 139.5 45.5t52.5 119.5q0 62 -36 102.5t-172 102.5q-154 69 -209.5 130t-55.5 151q0 137 95 212t268 75q69 0 128.5 -11.5t111.5 -33.5zM381 0h76v-124q9 0 18.5 0.5t22.5 0.5q72 0 113 -39t41 -108q0 -86 -65 -136.5t-177 -50.5q-33 0 -68 5.5t-73 15.5v74
q32 -9 61.5 -13t58.5 -4q65 0 101.5 23.5t36.5 64.5q0 36 -27 56t-76 20q-7 0 -16 -1l-26 -3z" />
    <glyph glyph-name="Cacute" unicode="&#x106;" horiz-adv-x="1294" 
d="M1204 47q-101 -35 -206 -53.5t-207 -18.5q-101 0 -189 21t-160 61q-165 94 -259.5 262.5t-94.5 368.5q0 320 195.5 515.5t515.5 195.5q92 0 193.5 -17.5t211.5 -52.5v-315h-114l-31 186l-27 37q-59 27 -115 40t-114 13q-232 0 -368 -158t-136 -430q0 -289 142 -453.5
t393 -164.5q44 0 88.5 6.5t89.5 20.5l32 32l50 228h110v-324zM869 1910h203l-299 -389h-103z" />
    <glyph glyph-name="cacute" unicode="&#x107;" horiz-adv-x="913" 
d="M870 86q-86 -50 -169 -75t-164 -25q-208 0 -334.5 139.5t-126.5 368.5q0 227 134.5 369.5t350.5 142.5q143 0 225 -54.5t82 -146.5q0 -49 -31 -79t-83 -30q-23 0 -46 8t-46 23v168q-24 14 -49 21.5t-50 7.5q-136 0 -218.5 -113.5t-82.5 -302.5q0 -187 93.5 -294.5
t254.5 -107.5q67 0 131 21.5t129 65.5v-107zM633 1507h203l-299 -389h-103z" />
    <glyph glyph-name="Ccaron" unicode="&#x10c;" horiz-adv-x="1294" 
d="M1204 47q-101 -35 -206 -53.5t-207 -18.5q-101 0 -189 21t-160 61q-165 94 -259.5 262.5t-94.5 368.5q0 320 195.5 515.5t515.5 195.5q92 0 193.5 -17.5t211.5 -52.5v-315h-114l-31 186l-27 37q-59 27 -115 40t-114 13q-232 0 -368 -158t-136 -430q0 -289 142 -453.5
t393 -164.5q44 0 88.5 6.5t89.5 20.5l32 32l50 228h110v-324zM457 1910h113l178 -288l180 288h111l-225 -389h-132z" />
    <glyph glyph-name="ccaron" unicode="&#x10d;" horiz-adv-x="913" 
d="M870 86q-86 -50 -169 -75t-164 -25q-208 0 -334.5 139.5t-126.5 368.5q0 227 134.5 369.5t350.5 142.5q143 0 225 -54.5t82 -146.5q0 -49 -31 -79t-83 -30q-23 0 -46 8t-46 23v168q-24 14 -49 21.5t-50 7.5q-136 0 -218.5 -113.5t-82.5 -302.5q0 -187 93.5 -294.5
t254.5 -107.5q67 0 131 21.5t129 65.5v-107zM221 1507h113l178 -288l180 288h111l-225 -389h-132z" />
    <glyph glyph-name="dcroat" unicode="&#x111;" horiz-adv-x="1157" 
d="M784 182v703q-55 17 -99 25t-81 8q-156 0 -253 -117t-97 -305q0 -176 83.5 -280.5t223.5 -104.5q54 0 108.5 17.5t114.5 53.5zM784 1165h-288v95h288v110h-157v64l250 73h77v-247h131v-95h-131v-1048l35 -33l98 -10v-74h-303v106q-87 -67 -160.5 -95.5t-154.5 -28.5
q-172 0 -283.5 134.5t-111.5 344.5q0 244 147 395.5t381 151.5q42 0 88.5 -6t93.5 -17v180z" />
    <glyph glyph-name="sfthyphen" unicode="&#xad;" horiz-adv-x="653" 
d="M96 561h461v-137h-461v137z" />
    <glyph glyph-name="middot.001" unicode="&#x2219;" horiz-adv-x="569" 
d="M285 817q54 0 91.5 -38t37.5 -93q0 -54 -38 -91.5t-91 -37.5q-54 0 -92.5 38t-38.5 91q0 55 38 93t93 38z" />
    <glyph glyph-name="Euro" horiz-adv-x="1139" 
d="M1071 47q-107 -37 -195.5 -54.5t-166.5 -17.5q-221 0 -349 133.5t-163 399.5h-168l20 86h139q-1 20 -1.5 39.5t-0.5 44.5q0 26 1.5 57.5t4.5 71.5h-163l20 86h156q44 239 181.5 372.5t340.5 133.5q65 0 150 -17.5t194 -52.5v-315h-104l-31 198l-29 37q-47 28 -92 41
t-94 13q-138 0 -216.5 -97.5t-113.5 -312.5h465l-20 -86h-453q-1 -15 -2 -42q-2 -57 -2 -77q0 -29 0.5 -51t1.5 -43h399l-20 -86h-373q28 -233 109 -333.5t239 -100.5q36 0 73.5 6.5t80.5 19.5l33 33l49 238h100v-324z" />
    <glyph glyph-name="Euro" unicode="&#x20ac;" horiz-adv-x="1139" 
d="M1071 47q-107 -37 -195.5 -54.5t-166.5 -17.5q-221 0 -349 133.5t-163 399.5h-168l20 86h139q-1 20 -1.5 39.5t-0.5 44.5q0 26 1.5 57.5t4.5 71.5h-163l20 86h156q44 239 181.5 372.5t340.5 133.5q65 0 150 -17.5t194 -52.5v-315h-104l-31 198l-29 37q-47 28 -92 41
t-94 13q-138 0 -216.5 -97.5t-113.5 -312.5h465l-20 -86h-453q-1 -15 -2 -42q-2 -57 -2 -77q0 -29 0.5 -51t1.5 -43h399l-20 -86h-373q28 -233 109 -333.5t239 -100.5q36 0 73.5 6.5t80.5 19.5l33 33l49 238h100v-324z" />
    <glyph glyph-name="gravecmb" unicode="&#x300;" 
d="M-1024 1507h203l198 -389h-102z" />
    <glyph glyph-name="acutecmb" unicode="&#x301;" 
d="M-825 1507h203l-299 -389h-103z" />
    <glyph glyph-name="circumflexcmb" unicode="&#x302;" 
d="M-799 1507h132l225 -389h-111l-180 289l-178 -289h-113z" />
    <glyph glyph-name="tildecmb" unicode="&#x303;" 
d="M-484 1450h84q0 -5 1 -15t1 -16q0 -96 -48.5 -156.5t-123.5 -60.5q-70 0 -171 53.5t-124 53.5q-33 0 -53 -30t-20 -81q0 -4 1 -12t1 -12h-88v20q0 110 44.5 167.5t129.5 57.5q62 0 158.5 -53t123.5 -53q44 0 64 30t20 97v10z" />
    <glyph glyph-name="macroncmb" unicode="&#x304;" 
d="M-829 1484h616v-123h-616v123z" />
    <glyph glyph-name="brevecmb" unicode="&#x306;" 
d="M-1024 1452h80v-16q0 -80 47 -113t164 -33q115 0 161 33t46 113v16h82v-22q0 -145 -66 -207t-223 -62q-159 0 -225 61t-66 208v22z" />
    <glyph glyph-name="dotaccentcmb" unicode="&#x307;" 
d="M-915 1425q47 0 79 -31.5t32 -78.5q0 -46 -32 -76.5t-79 -30.5q-46 0 -77.5 31t-31.5 76q0 46 31.5 78t77.5 32z" />
    <glyph glyph-name="dieresiscmb" unicode="&#x308;" 
d="M-539 1415q44 0 73.5 -30t29.5 -74q0 -43 -30 -73t-73 -30t-73.5 30t-30.5 73q0 44 30.5 74t73.5 30zM-919 1415q43 0 72.5 -30t29.5 -74q0 -43 -29.5 -73t-72.5 -30q-44 0 -74.5 30t-30.5 73q0 44 30.5 74t74.5 30z" />
    <glyph glyph-name="hookabovecmb" unicode="&#x309;" 
d="M-504 1205v-87h-68v109q93 20 140 54t47 80q0 50 -47 77.5t-133 27.5h-8l-52 -73q-4 -1 -8.5 -1h-13.5q-38 0 -58 10.5t-20 28.5q0 30 54 50t135 20q122 0 195.5 -37.5t73.5 -98.5q0 -51 -58 -90t-179 -70z" />
    <glyph glyph-name="ringcmb" unicode="&#x30a;" 
d="M-683 1453q-53 0 -89.5 -33.5t-36.5 -83.5q0 -49 37 -83t89 -34q54 0 91.5 34t37.5 83q0 50 -37.5 83.5t-91.5 33.5zM-683 1526q88 0 148 -54.5t60 -134.5t-60.5 -135t-147.5 -55t-146.5 55t-59.5 135t59.5 134.5t146.5 54.5z" />
    <glyph glyph-name="hungarumlautcmb" unicode="&#x30b;" 
d="M-528 1507h201l-387 -389h-97zM-831 1507h180l-289 -389h-84z" />
    <glyph glyph-name="caroncmb" unicode="&#x30c;" 
d="M-1024 1507h113l178 -288l180 288h111l-225 -389h-132z" />
    <glyph glyph-name="doublegravecmb" unicode="&#x30f;" 
d="M-919 1531h193l190 -352h-97zM-586 1538h194l189 -352h-97z" />
    <glyph glyph-name="invertedbrevecmb" unicode="&#x311;" 
d="M-580 1452h80v-16q0 -80 47 -113t164 -33q115 0 161 33t46 113v16h82v-22q0 -145 -66 -207t-223 -62q-159 0 -225 61t-66 208v22z" />
    <glyph glyph-name="horncmb" unicode="&#x31b;" 
d="M-515 1083v48q99 16 149.5 65.5t50.5 131.5v16h-117q-15 14 -22 30t-7 35q0 36 30.5 59t77.5 23q69 0 107 -39t38 -109q0 -100 -87 -174.5t-220 -85.5z" />
    <glyph glyph-name="dotbelowcmb" unicode="&#x323;" 
d="M-438 -140q54 0 91.5 -38t37.5 -93q0 -54 -38 -91.5t-91 -37.5q-55 0 -93 37t-38 92q0 54 38 92.5t93 38.5z" />
    <glyph glyph-name="dieresisbelowcmb" unicode="&#x324;" 
d="M-539 -140q44 0 73.5 -30t29.5 -74q0 -43 -30 -73t-73 -30t-73.5 30t-30.5 73q0 44 30.5 74t73.5 30zM-919 -140q43 0 72.5 -30t29.5 -74q0 -43 -29.5 -73t-72.5 -30q-44 0 -74.5 30t-30.5 73q0 44 30.5 74t74.5 30z" />
    <glyph glyph-name="ringbelowcmb" unicode="&#x325;" 
d="M-659 -119q-53 0 -89 -35.5t-36 -87.5q0 -50 36.5 -85.5t88.5 -35.5q53 0 90 35.5t37 85.5q0 52 -37 87.5t-90 35.5zM-659 -44q86 0 145.5 -57t59.5 -139q0 -84 -60 -141t-145 -57q-86 0 -145 57t-59 141q0 82 59 139t145 57z" />
    <glyph glyph-name="commabelowcmb" unicode="&#x326;" 
d="M-559 -475v54q99 19 149.5 74.5t50.5 148.5v17h-116q-16 16 -23 34.5t-7 39.5q0 42 30 67.5t77 25.5q70 0 108 -44t38 -124q0 -112 -87 -196t-220 -97z" />
    <glyph glyph-name="cedillacmb" unicode="&#x327;" 
d="M-912 0h76v-124q9 0 18.5 0.5t22.5 0.5q72 0 113 -39t41 -108q0 -86 -65 -136.5t-177 -50.5q-33 0 -68 5.5t-73 15.5v74q32 -9 61.5 -13t58.5 -4q65 0 101.5 23.5t36.5 64.5q0 36 -27 56t-76 20q-7 0 -16 -1l-26 -3z" />
    <glyph glyph-name="ogonekcmb" unicode="&#x328;" 
d="M-885 0h90q-53 -45 -81.5 -102t-28.5 -115q0 -57 29.5 -87t86.5 -30q14 0 59 7q6 1 9 1v-102q-24 -7 -50.5 -10.5t-54.5 -3.5q-97 0 -147.5 44t-50.5 130q0 74 37 146t102 122z" />
    <glyph glyph-name="circumflexbelowcmb" unicode="&#x32d;" 
d="M-798 -80h121l206 -374h-102l-164 278l-163 -278h-104z" />
    <glyph glyph-name="brevebelowcmb" unicode="&#x32e;" 
d="M-1024 -140h80v-16q0 -80 47 -113t164 -33q115 0 161 33t46 113v16h82v-22q0 -145 -66 -207t-223 -62q-159 0 -225 61t-66 208v22z" />
    <glyph glyph-name="tildebelowcmb" unicode="&#x330;" 
d="M-484 -140h84q0 -5 1 -15t1 -16q0 -96 -48.5 -156.5t-123.5 -60.5q-70 0 -171 53.5t-124 53.5q-33 0 -53 -30t-20 -81q0 -4 1 -12t1 -12h-88v20q0 110 44.5 167.5t129.5 57.5q62 0 158.5 -53t123.5 -53q44 0 64 30t20 97v10z" />
    <glyph glyph-name="macronbelowcmb" unicode="&#x331;" 
d="M-811 -149h616v-123h-616v123z" />
    <glyph glyph-name="clickdental" unicode="&#x1c0;" horiz-adv-x="1024" 
d="M449 1565h126v-2048h-126v2048z" />
    <glyph glyph-name="clicklateral" unicode="&#x1c1;" horiz-adv-x="2048" 
d="M449 1565h126v-2048h-126v2048zM1473 1565h126v-2048h-126v2048z" />
    <glyph glyph-name="centigrade" unicode="&#x2103;" horiz-adv-x="1968" 
d="M338 1372q-84 0 -143.5 -58.5t-59.5 -142.5t59.5 -143t143.5 -59t142.5 59t58.5 143t-58.5 142.5t-142.5 58.5zM338 1454q117 0 200 -83t83 -200q0 -116 -83.5 -199t-201.5 -83t-199.5 82t-81.5 200q0 119 82.5 201t200.5 82zM1878 47q-101 -35 -206 -53.5t-207 -18.5
q-101 0 -189 21t-160 61q-165 94 -259.5 262.5t-94.5 368.5q0 320 195.5 515.5t515.5 195.5q92 0 193.5 -17.5t211.5 -52.5v-315h-114l-31 186l-27 37q-59 27 -115 40t-114 13q-232 0 -368 -158t-136 -430q0 -289 142 -453.5t393 -164.5q44 0 88.5 6.5t89.5 20.5l32 32
l50 228h110v-324z" />
    <glyph glyph-name="fahrenheit" unicode="&#x2109;" horiz-adv-x="1774" 
d="M338 1372q-84 0 -143.5 -58.5t-59.5 -142.5t59.5 -143t143.5 -59t142.5 59t58.5 143t-58.5 142.5t-142.5 58.5zM338 1454q117 0 200 -83t83 -200q0 -116 -83.5 -199t-201.5 -83t-199.5 82t-81.5 200q0 119 82.5 201t200.5 82zM742 0v84l116 10l35 29v1128l-35 29l-133 12
v82h983v-319h-112l-31 194l-27 31h-461v-539h336l29 29l20 150h97v-453h-97l-20 149l-29 31h-336v-524l35 -29l146 -10v-84h-516z" />
    <glyph glyph-name="kelvin" unicode="&#x212a;" horiz-adv-x="1251" 
d="M68 0v84l116 10l35 29v1128l-35 29l-116 12v82h497v-82l-127 -12l-35 -29v-555h78l455 555l-12 29l-115 12v82h426v-82l-135 -18l-430 -512l465 -668l149 -10v-84h-338v61l-391 551h-152v-489l35 -29l127 -10v-84h-497z" />
    <glyph glyph-name="angstrom" unicode="&#x212b;" horiz-adv-x="1309" 
d="M614 1176l-202 -568h413zM582 1391h135l491 -1282l123 -25v-84h-465v84l127 10l15 29l-148 391h-483l-146 -391l21 -29l133 -10v-84h-401v84l118 25zM629 1880q-62 0 -106 -43.5t-44 -105.5t44 -105t106 -43t104.5 43t42.5 105q0 63 -42.5 106t-104.5 43zM627 1972
q101 0 171 -69t70 -170q0 -102 -70 -172t-171 -70t-170.5 70t-69.5 172q0 101 69 170t171 69z" />
    <glyph glyph-name="Oneroman" unicode="&#x2160;" horiz-adv-x="664" 
d="M72 0v84l131 10l35 29v1128l-35 29l-131 12v82h520v-82l-131 -12l-35 -29v-1128l35 -29l131 -10v-84h-520z" />
    <glyph glyph-name="Tworoman" unicode="&#x2161;" horiz-adv-x="1328" 
d="M72 0v84l131 10l35 29v1128l-35 29l-131 12v82h520v-82l-131 -12l-35 -29v-1128l35 -29l131 -10v-84h-520zM736 0v84l131 10l35 29v1128l-35 29l-131 12v82h520v-82l-131 -12l-35 -29v-1128l35 -29l131 -10v-84h-520z" />
    <glyph glyph-name="Threeroman" unicode="&#x2162;" horiz-adv-x="1992" 
d="M72 0v84l131 10l35 29v1128l-35 29l-131 12v82h520v-82l-131 -12l-35 -29v-1128l35 -29l131 -10v-84h-520zM736 0v84l131 10l35 29v1128l-35 29l-131 12v82h520v-82l-131 -12l-35 -29v-1128l35 -29l131 -10v-84h-520zM1400 0v84l131 10l35 29v1128l-35 29l-131 12v82h520
v-82l-131 -12l-35 -29v-1128l35 -29l131 -10v-84h-520z" />
    <glyph glyph-name="Fourroman" unicode="&#x2163;" horiz-adv-x="1930" 
d="M72 0v84l131 10l35 29v1128l-35 29l-131 12v82h520v-82l-131 -12l-35 -29v-1128l35 -29l131 -10v-84h-520zM617 1374h477v-82l-119 -12l-22 -29l385 -1032l370 1032l-20 29l-127 12v82h408v-82l-127 -24l-471 -1278h-142l-481 1278l-131 24v82z" />
    <glyph glyph-name="Fiveroman" unicode="&#x2164;" horiz-adv-x="1266" 
d="M-47 1374h477v-82l-119 -12l-22 -29l385 -1032l370 1032l-20 29l-127 12v82h408v-82l-127 -24l-471 -1278h-142l-481 1278l-131 24v82z" />
    <glyph glyph-name="Sixroman" unicode="&#x2165;" horiz-adv-x="1930" 
d="M-47 1374h477v-82l-119 -12l-22 -29l385 -1032l370 1032l-20 29l-127 12v82h408v-82l-127 -24l-471 -1278h-142l-481 1278l-131 24v82zM1338 0v84l131 10l35 29v1128l-35 29l-131 12v82h520v-82l-131 -12l-35 -29v-1128l35 -29l131 -10v-84h-520z" />
    <glyph glyph-name="Sevenroman" unicode="&#x2166;" horiz-adv-x="2594" 
d="M-47 1374h477v-82l-119 -12l-22 -29l385 -1032l370 1032l-20 29l-127 12v82h408v-82l-127 -24l-471 -1278h-142l-481 1278l-131 24v82zM1338 0v84l131 10l35 29v1128l-35 29l-131 12v82h520v-82l-131 -12l-35 -29v-1128l35 -29l131 -10v-84h-520zM2002 0v84l131 10l35 29
v1128l-35 29l-131 12v82h520v-82l-131 -12l-35 -29v-1128l35 -29l131 -10v-84h-520z" />
    <glyph glyph-name="Eightroman" unicode="&#x2167;" horiz-adv-x="3258" 
d="M-47 1374h477v-82l-119 -12l-22 -29l385 -1032l370 1032l-20 29l-127 12v82h408v-82l-127 -24l-471 -1278h-142l-481 1278l-131 24v82zM1338 0v84l131 10l35 29v1128l-35 29l-131 12v82h520v-82l-131 -12l-35 -29v-1128l35 -29l131 -10v-84h-520zM2002 0v84l131 10l35 29
v1128l-35 29l-131 12v82h520v-82l-131 -12l-35 -29v-1128l35 -29l131 -10v-84h-520zM2666 0v84l131 10l35 29v1128l-35 29l-131 12v82h520v-82l-131 -12l-35 -29v-1128l35 -29l131 -10v-84h-520z" />
    <glyph glyph-name="Nineroman" unicode="&#x2168;" horiz-adv-x="1893" 
d="M72 0v84l131 10l35 29v1128l-35 29l-131 12v82h520v-82l-131 -12l-35 -29v-1128l35 -29l131 -10v-84h-520zM687 1374h493v-82l-123 -12l-16 -25l268 -421l291 413l-18 27l-119 18v82h418v-82l-132 -20l-374 -535l397 -628l139 -25v-84h-518v84l137 14l15 29l-289 465
l-324 -459l13 -37l137 -12v-84h-436v84l135 27l411 575l-370 580l-135 26v82z" />
    <glyph glyph-name="Tenroman" unicode="&#x2169;" horiz-adv-x="1229" 
d="M23 1374h493v-82l-123 -12l-16 -25l268 -421l291 413l-18 27l-119 18v82h418v-82l-132 -20l-374 -535l397 -628l139 -25v-84h-518v84l137 14l15 29l-289 465l-324 -459l13 -37l137 -12v-84h-436v84l135 27l411 575l-370 580l-135 26v82z" />
    <glyph glyph-name="Elevenroman" unicode="&#x216a;" horiz-adv-x="1893" 
d="M23 1374h493v-82l-123 -12l-16 -25l268 -421l291 413l-18 27l-119 18v82h418v-82l-132 -20l-374 -535l397 -628l139 -25v-84h-518v84l137 14l15 29l-289 465l-324 -459l13 -37l137 -12v-84h-436v84l135 27l411 575l-370 580l-135 26v82zM1301 0v84l131 10l35 29v1128
l-35 29l-131 12v82h520v-82l-131 -12l-35 -29v-1128l35 -29l131 -10v-84h-520z" />
    <glyph glyph-name="Twelveroman" unicode="&#x216b;" horiz-adv-x="2557" 
d="M23 1374h493v-82l-123 -12l-16 -25l268 -421l291 413l-18 27l-119 18v82h418v-82l-132 -20l-374 -535l397 -628l139 -25v-84h-518v84l137 14l15 29l-289 465l-324 -459l13 -37l137 -12v-84h-436v84l135 27l411 575l-370 580l-135 26v82zM1301 0v84l131 10l35 29v1128
l-35 29l-131 12v82h520v-82l-131 -12l-35 -29v-1128l35 -29l131 -10v-84h-520zM1965 0v84l131 10l35 29v1128l-35 29l-131 12v82h520v-82l-131 -12l-35 -29v-1128l35 -29l131 -10v-84h-520z" />
    <glyph glyph-name="uni216C" unicode="&#x216c;" horiz-adv-x="1065" 
d="M55 0v84l129 10l35 29v1128l-35 29l-129 12v82h500v-82l-117 -12l-35 -29v-1157h463l29 33l35 246h106v-373h-981z" />
    <glyph glyph-name="uni216D" unicode="&#x216d;" horiz-adv-x="1294" 
d="M1204 47q-101 -35 -206 -53.5t-207 -18.5q-101 0 -189 21t-160 61q-165 94 -259.5 262.5t-94.5 368.5q0 320 195.5 515.5t515.5 195.5q92 0 193.5 -17.5t211.5 -52.5v-315h-114l-31 186l-27 37q-59 27 -115 40t-114 13q-232 0 -368 -158t-136 -430q0 -289 142 -453.5
t393 -164.5q44 0 88.5 6.5t89.5 20.5l32 32l50 228h110v-324z" />
    <glyph glyph-name="uni216E" unicode="&#x216e;" horiz-adv-x="1419" 
d="M403 1280v-1186h162q280 0 418.5 147.5t138.5 446.5t-137.5 445.5t-419.5 146.5h-162zM573 1374q360 0 558 -179.5t198 -506.5q0 -182 -64.5 -323.5t-191.5 -237.5q-90 -68 -203 -97.5t-297 -29.5h-505v84l116 10l35 29v1128l-35 29l-116 12v82h505z" />
    <glyph glyph-name="uni216F" unicode="&#x216f;" horiz-adv-x="1774" 
d="M63 0v84l123 16l37 39v1112l-26 29l-136 12v82h435v-55l385 -1028l389 1020v63h438v-82l-129 -12l-25 -29v-1128l25 -29l129 -10v-84h-489v84l135 10l20 29v1155l-485 -1278h-88l-467 1257v-1118l37 -39l125 -16v-84h-433z" />
    <glyph glyph-name="oneroman" unicode="&#x2170;" horiz-adv-x="573" 
d="M307 995h80v-878l35 -33l110 -10v-74h-460v74l108 10l35 33v741h-143v64zM315 1450q50 0 84.5 -35t34.5 -84t-34.5 -83t-84.5 -34q-49 0 -83.5 34t-34.5 83q0 50 34.5 84.5t83.5 34.5z" />
    <glyph glyph-name="tworoman" unicode="&#x2171;" horiz-adv-x="1146" 
d="M307 995h80v-878l35 -33l110 -10v-74h-460v74l108 10l35 33v741h-143v64zM315 1450q50 0 84.5 -35t34.5 -84t-34.5 -83t-84.5 -34q-49 0 -83.5 34t-34.5 83q0 50 34.5 84.5t83.5 34.5zM880 995h80v-878l35 -33l110 -10v-74h-460v74l108 10l35 33v741h-143v64zM888 1450
q50 0 84.5 -35t34.5 -84t-34.5 -83t-84.5 -34q-49 0 -83.5 34t-34.5 83q0 50 34.5 84.5t83.5 34.5z" />
    <glyph glyph-name="threeroman" unicode="&#x2172;" horiz-adv-x="1719" 
d="M307 995h80v-878l35 -33l110 -10v-74h-460v74l108 10l35 33v741h-143v64zM315 1450q50 0 84.5 -35t34.5 -84t-34.5 -83t-84.5 -34q-49 0 -83.5 34t-34.5 83q0 50 34.5 84.5t83.5 34.5zM880 995h80v-878l35 -33l110 -10v-74h-460v74l108 10l35 33v741h-143v64zM888 1450
q50 0 84.5 -35t34.5 -84t-34.5 -83t-84.5 -34q-49 0 -83.5 34t-34.5 83q0 50 34.5 84.5t83.5 34.5zM1453 995h80v-878l35 -33l110 -10v-74h-460v74l108 10l35 33v741h-143v64zM1461 1450q50 0 84.5 -35t34.5 -84t-34.5 -83t-84.5 -34q-49 0 -83.5 34t-34.5 83
q0 50 34.5 84.5t83.5 34.5z" />
    <glyph glyph-name="fourroman" unicode="&#x2173;" horiz-adv-x="1585" 
d="M307 995h80v-878l35 -33l110 -10v-74h-460v74l108 10l35 33v741h-143v64zM315 1450q50 0 84.5 -35t34.5 -84t-34.5 -83t-84.5 -34q-49 0 -83.5 34t-34.5 83q0 50 34.5 84.5t83.5 34.5zM563 985h444v-76l-108 -8l-25 -33l240 -669l262 669l-17 33l-110 8v76h362v-76
l-120 -16l-359 -893h-115l-329 897l-125 12v76z" />
    <glyph glyph-name="fiveroman" unicode="&#x2174;" horiz-adv-x="1012" 
d="M-10 985h444v-76l-108 -8l-25 -33l240 -669l262 669l-17 33l-110 8v76h362v-76l-120 -16l-359 -893h-115l-329 897l-125 12v76z" />
    <glyph glyph-name="sixroman" unicode="&#x2175;" horiz-adv-x="1585" 
d="M-10 985h444v-76l-108 -8l-25 -33l240 -669l262 669l-17 33l-110 8v76h362v-76l-120 -16l-359 -893h-115l-329 897l-125 12v76zM1319 995h80v-878l35 -33l110 -10v-74h-460v74l108 10l35 33v741h-143v64zM1327 1450q50 0 84.5 -35t34.5 -84t-34.5 -83t-84.5 -34
q-49 0 -83.5 34t-34.5 83q0 50 34.5 84.5t83.5 34.5z" />
    <glyph glyph-name="sevenroman" unicode="&#x2176;" horiz-adv-x="2158" 
d="M-10 985h444v-76l-108 -8l-25 -33l240 -669l262 669l-17 33l-110 8v76h362v-76l-120 -16l-359 -893h-115l-329 897l-125 12v76zM1319 995h80v-878l35 -33l110 -10v-74h-460v74l108 10l35 33v741h-143v64zM1327 1450q50 0 84.5 -35t34.5 -84t-34.5 -83t-84.5 -34
q-49 0 -83.5 34t-34.5 83q0 50 34.5 84.5t83.5 34.5zM1892 995h80v-878l35 -33l110 -10v-74h-460v74l108 10l35 33v741h-143v64zM1900 1450q50 0 84.5 -35t34.5 -84t-34.5 -83t-84.5 -34q-49 0 -83.5 34t-34.5 83q0 50 34.5 84.5t83.5 34.5z" />
    <glyph glyph-name="eightroman" unicode="&#x2177;" horiz-adv-x="2731" 
d="M-10 985h444v-76l-108 -8l-25 -33l240 -669l262 669l-17 33l-110 8v76h362v-76l-120 -16l-359 -893h-115l-329 897l-125 12v76zM1319 995h80v-878l35 -33l110 -10v-74h-460v74l108 10l35 33v741h-143v64zM1327 1450q50 0 84.5 -35t34.5 -84t-34.5 -83t-84.5 -34
q-49 0 -83.5 34t-34.5 83q0 50 34.5 84.5t83.5 34.5zM1892 995h80v-878l35 -33l110 -10v-74h-460v74l108 10l35 33v741h-143v64zM1900 1450q50 0 84.5 -35t34.5 -84t-34.5 -83t-84.5 -34q-49 0 -83.5 34t-34.5 83q0 50 34.5 84.5t83.5 34.5zM2465 995h80v-878l35 -33
l110 -10v-74h-460v74l108 10l35 33v741h-143v64zM2473 1450q50 0 84.5 -35t34.5 -84t-34.5 -83t-84.5 -34q-49 0 -83.5 34t-34.5 83q0 50 34.5 84.5t83.5 34.5z" />
    <glyph glyph-name="nineroman" unicode="&#x2178;" horiz-adv-x="1603" 
d="M307 995h80v-878l35 -33l110 -10v-74h-460v74l108 10l35 33v741h-143v64zM315 1450q50 0 84.5 -35t34.5 -84t-34.5 -83t-84.5 -34q-49 0 -83.5 34t-34.5 83q0 50 34.5 84.5t83.5 34.5zM610 985h440v-76l-94 -12l-10 -20l172 -269l186 262l-16 27l-99 12v76h369v-76
l-115 -20l-270 -359l301 -438l123 -16v-76h-436v76l86 14l10 16l-190 306l-209 -297l10 -25l117 -14v-76h-387v76l116 16l295 395l-274 400l-125 22v76z" />
    <glyph glyph-name="tenroman" unicode="&#x2179;" horiz-adv-x="1030" 
d="M37 985h440v-76l-94 -12l-10 -20l172 -269l186 262l-16 27l-99 12v76h369v-76l-115 -20l-270 -359l301 -438l123 -16v-76h-436v76l86 14l10 16l-190 306l-209 -297l10 -25l117 -14v-76h-387v76l116 16l295 395l-274 400l-125 22v76z" />
    <glyph glyph-name="elevenroman" unicode="&#x217a;" horiz-adv-x="1603" 
d="M37 985h440v-76l-94 -12l-10 -20l172 -269l186 262l-16 27l-99 12v76h369v-76l-115 -20l-270 -359l301 -438l123 -16v-76h-436v76l86 14l10 16l-190 306l-209 -297l10 -25l117 -14v-76h-387v76l116 16l295 395l-274 400l-125 22v76zM1337 995h80v-878l35 -33l110 -10v-74
h-460v74l108 10l35 33v741h-143v64zM1345 1450q50 0 84.5 -35t34.5 -84t-34.5 -83t-84.5 -34q-49 0 -83.5 34t-34.5 83q0 50 34.5 84.5t83.5 34.5z" />
    <glyph glyph-name="twelveroman" unicode="&#x217b;" horiz-adv-x="2176" 
d="M37 985h440v-76l-94 -12l-10 -20l172 -269l186 262l-16 27l-99 12v76h369v-76l-115 -20l-270 -359l301 -438l123 -16v-76h-436v76l86 14l10 16l-190 306l-209 -297l10 -25l117 -14v-76h-387v76l116 16l295 395l-274 400l-125 22v76zM1337 995h80v-878l35 -33l110 -10v-74
h-460v74l108 10l35 33v741h-143v64zM1345 1450q50 0 84.5 -35t34.5 -84t-34.5 -83t-84.5 -34q-49 0 -83.5 34t-34.5 83q0 50 34.5 84.5t83.5 34.5zM1910 995h80v-878l35 -33l110 -10v-74h-460v74l108 10l35 33v741h-143v64zM1918 1450q50 0 84.5 -35t34.5 -84t-34.5 -83
t-84.5 -34q-49 0 -83.5 34t-34.5 83q0 50 34.5 84.5t83.5 34.5z" />
    <glyph glyph-name="uni217C" unicode="&#x217c;" horiz-adv-x="578" 
d="M57 0v74l121 10l35 33v1253h-158v64l250 73h78v-1390l37 -33l117 -10v-74h-480z" />
    <glyph glyph-name="uni217D" unicode="&#x217d;" horiz-adv-x="913" 
d="M870 86q-86 -50 -169 -75t-164 -25q-208 0 -334.5 139.5t-126.5 368.5q0 227 134.5 369.5t350.5 142.5q143 0 225 -54.5t82 -146.5q0 -49 -31 -79t-83 -30q-23 0 -46 8t-46 23v168q-24 14 -49 21.5t-50 7.5q-136 0 -218.5 -113.5t-82.5 -302.5q0 -187 93.5 -294.5
t254.5 -107.5q67 0 131 21.5t129 65.5v-107z" />
    <glyph glyph-name="uni217E" unicode="&#x217e;" horiz-adv-x="1157" 
d="M784 182v703q-56 16 -100.5 24.5t-79.5 8.5q-157 0 -253.5 -116t-96.5 -306q0 -177 83.5 -281t223.5 -104q54 0 109.5 17.5t113.5 53.5zM784 1370h-157v64l250 73h77v-1390l35 -33l98 -10v-74h-303v106q-80 -64 -156 -94t-159 -30q-172 0 -283.5 134.5t-111.5 344.5
q0 244 146.5 395.5t381.5 151.5q41 0 87 -6t95 -17v385z" />
    <glyph glyph-name="thousandroman" unicode="&#x217f;" horiz-adv-x="1726" 
d="M930 868q118 70 205 104t147 34q124 0 193 -80.5t69 -225.5v-6v-577l37 -33l109 -10v-74h-447v74l96 10l37 33v542q0 109 -45 160t-139 51q-47 0 -104.5 -16.5t-126.5 -50.5v-686l36 -33l97 -10v-74h-437v74l99 10l35 33v542q0 108 -44.5 159.5t-136.5 51.5
q-50 0 -107.5 -16.5t-125.5 -50.5v-686l35 -33l98 -10v-74h-449v74l111 10l35 33v741h-146v64l238 73h78v-112q107 63 186.5 93t141.5 30q75 0 132.5 -35t92.5 -103z" />
    <glyph glyph-name="Dcroat" unicode="&#x110;" horiz-adv-x="1419" 
d="M403 670v-576h162q280 0 418.5 147.5t138.5 446.5t-137.5 445.5t-419.5 146.5h-162v-512h340v-98h-340zM573 1374q360 0 558 -179.5t198 -506.5q0 -182 -64.5 -323.5t-191.5 -237.5q-90 -68 -203 -97.5t-297 -29.5h-505v84l116 10l35 29v547h-188v98h188v483l-35 29
l-116 12v82h505z" />
    <glyph glyph-name="Ibreve" unicode="&#x12c;" horiz-adv-x="664" 
d="M72 0v84l131 10l35 29v1128l-35 29l-131 12v82h520v-82l-131 -12l-35 -29v-1128l35 -29l131 -10v-84h-520zM43 1767h80v-16q0 -80 47 -113t164 -33q115 0 161 33t46 113v16h82v-22q0 -145 -66 -207t-223 -62q-159 0 -225 61t-66 208v22z" />
    <glyph glyph-name="ibreve" unicode="&#x12d;" horiz-adv-x="573" 
d="M307 995h80v-878l35 -33l110 -10v-74h-460v74l108 10l35 33v741h-143v64zM13 1389h80v-16q0 -80 47 -113t164 -33q115 0 161 33t46 113v16h82v-22q0 -145 -66 -207t-223 -62q-159 0 -225 61t-66 208v22z" />
    <glyph glyph-name="IJ" unicode="&#x132;" horiz-adv-x="1573" 
d="M72 0v84l131 10l35 29v1128l-35 29l-131 12v82h520v-82l-131 -12l-35 -29v-1128l35 -29l131 -10v-84h-520zM1219 1251l-35 29l-137 12v82h518v-82l-127 -12l-35 -29v-727q0 -284 -108 -416.5t-338 -132.5q-64 0 -130.5 12.5t-137.5 37.5v342h114l49 -258l29 -27
q18 -4 36 -6t36 -2q139 0 202.5 104t63.5 338v735z" />
    <glyph glyph-name="ij" unicode="&#x133;" horiz-adv-x="1118" 
d="M307 995h80v-878l35 -33l110 -10v-74h-460v74l108 10l35 33v741h-143v64zM315 1450q50 0 84.5 -35t34.5 -84t-34.5 -83t-84.5 -34q-49 0 -83.5 34t-34.5 83q0 50 34.5 84.5t83.5 34.5zM753 1331q0 50 34.5 84.5t84.5 34.5q49 0 84 -35t35 -84t-35 -83t-84 -34t-84 34
t-35 83zM796 858h-145v64l237 73h78v-823q0 -225 -26.5 -320.5t-90.5 -164.5q-59 -65 -135 -99t-159 -34q-66 0 -104 29.5t-38 80.5q0 36 19.5 63t56.5 44l199 -121q55 18 81.5 95.5t26.5 221.5v891z" />
    <glyph glyph-name="Jcircumflex" unicode="&#x134;" horiz-adv-x="909" 
d="M555 1251l-35 29l-137 12v82h518v-82l-127 -12l-35 -29v-727q0 -284 -108 -416.5t-338 -132.5q-64 0 -130.5 12.5t-137.5 37.5v342h114l49 -258l29 -27q18 -4 36 -6t36 -2q139 0 202.5 104t63.5 338v735zM398 1865h132l225 -389h-111l-180 289l-178 -289h-113z" />
    <glyph glyph-name="napostrophe" unicode="&#x149;" horiz-adv-x="1575" 
d="M152 905h-89q85 92 124.5 169t39.5 147q0 19 -1 28.5t-3 18.5h-133q-13 19 -20 38t-7 37q0 51 35 84t88 33q73 0 117.5 -51.5t44.5 -136.5q0 -89 -49.5 -181.5t-146.5 -185.5zM473 0v74l111 10l35 33v741h-146v64l238 73h78v-112q123 68 198 95.5t132 27.5q134 0 205 -80
t71 -232v-577l35 -33l110 -10v-74h-448v74l98 10l35 33v542q0 115 -47.5 163t-159.5 48q-49 0 -106 -16.5t-123 -50.5v-686l35 -33l98 -10v-74h-449z" />
    <glyph glyph-name="clickretroflex" unicode="&#x1c3;" horiz-adv-x="692" 
d="M346 215q49 0 83 -34t34 -83q0 -48 -34 -82t-83 -34q-48 0 -82.5 34t-34.5 82q0 49 34.5 83t82.5 34zM453 1133l-58 -783h-98l-57 782q-3 34 -5 64t-2 55q0 73 28.5 110.5t84.5 37.5q55 0 84 -37.5t29 -110.5q0 -16 -1.5 -45t-4.5 -73z" />
    <glyph glyph-name="DZcaron" unicode="&#x1c4;" horiz-adv-x="2619" 
d="M403 1280v-1186h162q280 0 418.5 147.5t138.5 446.5t-137.5 445.5t-419.5 146.5h-162zM573 1374q360 0 558 -179.5t198 -506.5q0 -182 -64.5 -323.5t-191.5 -237.5q-90 -68 -203 -97.5t-297 -29.5h-505v84l116 10l35 29v1128l-35 29l-116 12v82h505zM1556 1374h957v-86
l-779 -1188h619l22 27l37 244h111v-371h-1012v84l776 1192h-546l-39 -27l-33 -192h-113v317zM1726 1865h113l178 -288l180 288h111l-225 -389h-132z" />
    <glyph glyph-name="Dzcaron" unicode="&#x1c5;" horiz-adv-x="2418" 
d="M403 1280v-1186h162q280 0 418.5 147.5t138.5 446.5t-137.5 445.5t-419.5 146.5h-162zM573 1374q360 0 558 -179.5t198 -506.5q0 -182 -64.5 -323.5t-191.5 -237.5q-90 -68 -203 -97.5t-297 -29.5h-505v84l116 10l35 29v1128l-35 29l-116 12v82h505zM1511 0v102l547 789
h-379l-29 -33l-22 -158h-96v285h739v-78l-567 -813h440l31 33l22 174h105v-301h-791zM1615 1477h113l178 -288l180 288h111l-225 -389h-132z" />
    <glyph glyph-name="dzcaron" unicode="&#x1c6;" horiz-adv-x="2156" 
d="M784 182v703q-56 16 -100.5 24.5t-79.5 8.5q-157 0 -253.5 -116t-96.5 -306q0 -177 83.5 -281t223.5 -104q54 0 109.5 17.5t113.5 53.5zM784 1370h-157v64l250 73h77v-1390l35 -33l98 -10v-74h-303v106q-80 -64 -156 -94t-159 -30q-172 0 -283.5 134.5t-111.5 344.5
q0 244 146.5 395.5t381.5 151.5q41 0 87 -6t95 -17v385zM1249 0v102l547 789h-379l-29 -33l-22 -158h-96v285h739v-78l-567 -813h440l31 33l22 174h105v-301h-791zM1353 1477h113l178 -288l180 288h111l-225 -389h-132z" />
    <glyph glyph-name="LJ" unicode="&#x1c7;" horiz-adv-x="1974" 
d="M55 0v84l129 10l35 29v1128l-35 29l-129 12v82h500v-82l-117 -12l-35 -29v-1157h463l29 33l35 246h106v-373h-981zM1620 1251l-35 29l-137 12v82h518v-82l-127 -12l-35 -29v-727q0 -284 -108 -416.5t-338 -132.5q-64 0 -130.5 12.5t-137.5 37.5v342h114l49 -258l29 -27
q18 -4 36 -6t36 -2q139 0 202.5 104t63.5 338v735z" />
    <glyph glyph-name="Lj" unicode="&#x1c8;" horiz-adv-x="1610" 
d="M55 0v84l129 10l35 29v1128l-35 29l-129 12v82h500v-82l-117 -12l-35 -29v-1157h463l29 33l35 246h106v-373h-981zM1245 1331q0 50 34.5 84.5t84.5 34.5q49 0 84 -35t35 -84t-35 -83t-84 -34t-84 34t-35 83zM1288 858h-145v64l237 73h78v-823q0 -225 -26.5 -320.5
t-90.5 -164.5q-59 -65 -135 -99t-159 -34q-66 0 -104 29.5t-38 80.5q0 36 19.5 63t56.5 44l199 -121q55 18 81.5 95.5t26.5 221.5v891z" />
    <glyph glyph-name="lj" unicode="&#x1c9;" horiz-adv-x="1123" 
d="M57 0v74l121 10l35 33v1253h-158v64l250 73h78v-1390l37 -33l117 -10v-74h-480zM758 1331q0 50 34.5 84.5t84.5 34.5q49 0 84 -35t35 -84t-35 -83t-84 -34t-84 34t-35 83zM801 858h-145v64l237 73h78v-823q0 -225 -26.5 -320.5t-90.5 -164.5q-59 -65 -135 -99t-159 -34
q-66 0 -104 29.5t-38 80.5q0 36 19.5 63t56.5 44l199 -121q55 18 81.5 95.5t26.5 221.5v891z" />
    <glyph glyph-name="NJ" unicode="&#x1ca;" horiz-adv-x="2369" 
d="M59 0v84l125 16l37 39v1112l-37 29l-131 12v82h385v-51l699 -1049v963l-37 37l-123 18v82h430v-82l-123 -18l-37 -37v-1237h-135l-780 1163v-1024l37 -39l123 -16v-84h-433zM2015 1251l-35 29l-137 12v82h518v-82l-127 -12l-35 -29v-727q0 -284 -108 -416.5t-338 -132.5
q-64 0 -130.5 12.5t-137.5 37.5v342h114l49 -258l29 -27q18 -4 36 -6t36 -2q139 0 202.5 104t63.5 338v735z" />
    <glyph glyph-name="Nj" unicode="&#x1cb;" horiz-adv-x="2005" 
d="M59 0v84l125 16l37 39v1112l-37 29l-131 12v82h385v-51l699 -1049v963l-37 37l-123 18v82h430v-82l-123 -18l-37 -37v-1237h-135l-780 1163v-1024l37 -39l123 -16v-84h-433zM1640 1331q0 50 34.5 84.5t84.5 34.5q49 0 84 -35t35 -84t-35 -83t-84 -34t-84 34t-35 83z
M1683 858h-145v64l237 73h78v-823q0 -225 -26.5 -320.5t-90.5 -164.5q-59 -65 -135 -99t-159 -34q-66 0 -104 29.5t-38 80.5q0 36 19.5 63t56.5 44l199 -121q55 18 81.5 95.5t26.5 221.5v891z" />
    <glyph glyph-name="nj" unicode="&#x1cc;" horiz-adv-x="1708" 
d="M61 0v74l111 10l35 33v741h-146v64l238 73h78v-112q123 68 198 95.5t132 27.5q134 0 205 -80t71 -232v-577l35 -33l110 -10v-74h-448v74l98 10l35 33v542q0 115 -47.5 163t-159.5 48q-49 0 -106 -16.5t-123 -50.5v-686l35 -33l98 -10v-74h-449zM1343 1331q0 50 34.5 84.5
t84.5 34.5q49 0 84 -35t35 -84t-35 -83t-84 -34t-84 34t-35 83zM1386 858h-145v64l237 73h78v-823q0 -225 -26.5 -320.5t-90.5 -164.5q-59 -65 -135 -99t-159 -34q-66 0 -104 29.5t-38 80.5q0 36 19.5 63t56.5 44l199 -121q55 18 81.5 95.5t26.5 221.5v891z" />
    <glyph glyph-name="Acaron" unicode="&#x1cd;" horiz-adv-x="1309" 
d="M614 1176l-202 -568h413zM582 1391h135l491 -1282l123 -25v-84h-465v84l127 10l15 29l-148 391h-483l-146 -391l21 -29l133 -10v-84h-401v84l118 25zM366 1882h113l178 -288l180 288h111l-225 -389h-132z" />
    <glyph glyph-name="acaron" unicode="&#x1ce;" horiz-adv-x="1038" 
d="M684 188v361q-257 -71 -337.5 -130t-80.5 -155q0 -77 44.5 -122.5t119.5 -45.5q48 0 110.5 23t143.5 69zM684 119q-99 -68 -181.5 -100.5t-154.5 -32.5q-119 0 -190.5 72t-71.5 190q0 131 107.5 206t490.5 167v65q0 129 -42 179t-146 50q-39 0 -77 -8t-79 -24v-172h-141
q-37 0 -50.5 13.5t-13.5 49.5q0 100 115.5 166t298.5 66q161 0 234 -70t73 -225v-594l35 -33l108 -10v-74h-288zM251 1498h113l178 -288l180 288h111l-225 -389h-132z" />
    <glyph glyph-name="Icaron" unicode="&#x1cf;" horiz-adv-x="664" 
d="M72 0v84l131 10l35 29v1128l-35 29l-131 12v82h520v-82l-131 -12l-35 -29v-1128l35 -29l131 -10v-84h-520zM42 1865h113l178 -288l180 288h111l-225 -389h-132z" />
    <glyph glyph-name="icaron" unicode="&#x1d0;" horiz-adv-x="573" 
d="M307 995h80v-878l35 -33l110 -10v-74h-460v74l108 10l35 33v741h-143v64zM12 1487h113l178 -288l180 288h111l-225 -389h-132z" />
    <glyph glyph-name="Ocaron" unicode="&#x1d1;" horiz-adv-x="1497" 
d="M750 1298q-206 0 -327.5 -164.5t-121.5 -445.5q0 -280 122.5 -446t326.5 -166q202 0 324 166.5t122 445.5t-122 444.5t-324 165.5zM750 1409q131 0 244 -45t206 -135q104 -101 157.5 -238t53.5 -303q0 -114 -26 -215t-78 -190q-87 -149 -234 -232.5t-323 -83.5
q-131 0 -246.5 45t-204.5 131q-104 101 -157.5 239t-53.5 306q0 167 53 304t156 237q92 89 206.5 134.5t246.5 45.5zM458 1900h113l178 -288l180 288h111l-225 -389h-132z" />
    <glyph glyph-name="ocaron" unicode="&#x1d2;" horiz-adv-x="1104" 
d="M551 918q-128 0 -205.5 -115.5t-77.5 -308.5t78 -308.5t205 -115.5q129 0 207 115t78 309q0 192 -78.5 308t-206.5 116zM551 1006q209 0 343 -143.5t134 -368.5t-134.5 -368.5t-342.5 -143.5t-341.5 143t-133.5 369t132.5 369t342.5 143zM261 1498h113l178 -288l180 288
h111l-225 -389h-132z" />
    <glyph glyph-name="Ucaron" unicode="&#x1d3;" horiz-adv-x="1421" 
d="M51 1374h502v-82l-127 -12l-35 -29v-741q0 -215 86.5 -311.5t278.5 -96.5q190 0 277 97.5t87 310.5v727l-39 37l-123 18v82h433v-82l-123 -18l-37 -37v-745q0 -147 -21 -225t-69 -136q-61 -73 -172.5 -114.5t-251.5 -41.5q-141 0 -252 41.5t-172 114.5q-49 59 -69.5 136
t-20.5 225v759l-35 29l-117 12v82zM430 1865h113l178 -288l180 288h111l-225 -389h-132z" />
    <glyph glyph-name="ucaron" unicode="&#x1d4;" horiz-adv-x="1165" 
d="M291 1006h78v-678q0 -112 48 -164.5t150 -52.5q57 0 115.5 15t122.5 46v694h-146v64l238 76h78v-889l37 -33l96 -10v-74h-303v115q-96 -69 -177.5 -102t-154.5 -33q-133 0 -203.5 80.5t-70.5 232.5v573h-146v64zM289 1498h113l178 -288l180 288h111l-225 -389h-132z" />
    <glyph glyph-name="Udieresismacron" unicode="&#x1d5;" horiz-adv-x="1421" 
d="M51 1374h502v-82l-127 -12l-35 -29v-741q0 -215 86.5 -311.5t278.5 -96.5q190 0 277 97.5t87 310.5v727l-39 37l-123 18v82h433v-82l-123 -18l-37 -37v-745q0 -147 -21 -225t-69 -136q-61 -73 -172.5 -114.5t-251.5 -41.5q-141 0 -252 41.5t-172 114.5q-49 59 -69.5 136
t-20.5 225v759l-35 29l-117 12v82zM912 1683q44 0 73.5 -30t29.5 -74q0 -43 -30 -73t-73 -30t-73.5 30t-30.5 73q0 44 30.5 74t73.5 30zM532 1683q43 0 72.5 -30t29.5 -74q0 -43 -29.5 -73t-72.5 -30q-44 0 -74.5 30t-30.5 73q0 44 30.5 74t74.5 30zM413 1908h616v-123h-616
v123z" />
    <glyph glyph-name="udieresismacron" unicode="&#x1d6;" horiz-adv-x="1165" 
d="M291 1006h78v-678q0 -112 48 -164.5t150 -52.5q57 0 115.5 15t122.5 46v694h-146v64l238 76h78v-889l37 -33l96 -10v-74h-303v115q-96 -69 -177.5 -102t-154.5 -33q-133 0 -203.5 80.5t-70.5 232.5v573h-146v64zM771 1316q44 0 73.5 -30t29.5 -74q0 -43 -30 -73t-73 -30
t-73.5 30t-30.5 73q0 44 30.5 74t73.5 30zM391 1316q43 0 72.5 -30t29.5 -74q0 -43 -29.5 -73t-72.5 -30q-44 0 -74.5 30t-30.5 73q0 44 30.5 74t74.5 30zM272 1540h616v-123h-616v123z" />
    <glyph glyph-name="Udieresisacute" unicode="&#x1d7;" horiz-adv-x="1421" 
d="M51 1374h502v-82l-127 -12l-35 -29v-741q0 -215 86.5 -311.5t278.5 -96.5q190 0 277 97.5t87 310.5v727l-39 37l-123 18v82h433v-82l-123 -18l-37 -37v-745q0 -147 -21 -225t-69 -136q-61 -73 -172.5 -114.5t-251.5 -41.5q-141 0 -252 41.5t-172 114.5q-49 59 -69.5 136
t-20.5 225v759l-35 29l-117 12v82zM912 1683q44 0 73.5 -30t29.5 -74q0 -43 -30 -73t-73 -30t-73.5 30t-30.5 73q0 44 30.5 74t73.5 30zM532 1683q43 0 72.5 -30t29.5 -74q0 -43 -29.5 -73t-72.5 -30q-44 0 -74.5 30t-30.5 73q0 44 30.5 74t74.5 30zM719 2174h203l-299 -389
h-103z" />
    <glyph glyph-name="udieresisacute" unicode="&#x1d8;" horiz-adv-x="1165" 
d="M291 1006h78v-678q0 -112 48 -164.5t150 -52.5q57 0 115.5 15t122.5 46v694h-146v64l238 76h78v-889l37 -33l96 -10v-74h-303v115q-96 -69 -177.5 -102t-154.5 -33q-133 0 -203.5 80.5t-70.5 232.5v573h-146v64zM771 1316q44 0 73.5 -30t29.5 -74q0 -43 -30 -73t-73 -30
t-73.5 30t-30.5 73q0 44 30.5 74t73.5 30zM391 1316q43 0 72.5 -30t29.5 -74q0 -43 -29.5 -73t-72.5 -30q-44 0 -74.5 30t-30.5 73q0 44 30.5 74t74.5 30zM579 1806h203l-299 -389h-103z" />
    <glyph glyph-name="Udieresiscaron" unicode="&#x1d9;" horiz-adv-x="1421" 
d="M51 1374h502v-82l-127 -12l-35 -29v-741q0 -215 86.5 -311.5t278.5 -96.5q190 0 277 97.5t87 310.5v727l-39 37l-123 18v82h433v-82l-123 -18l-37 -37v-745q0 -147 -21 -225t-69 -136q-61 -73 -172.5 -114.5t-251.5 -41.5q-141 0 -252 41.5t-172 114.5q-49 59 -69.5 136
t-20.5 225v759l-35 29l-117 12v82zM912 1683q44 0 73.5 -30t29.5 -74q0 -43 -30 -73t-73 -30t-73.5 30t-30.5 73q0 44 30.5 74t73.5 30zM532 1683q43 0 72.5 -30t29.5 -74q0 -43 -29.5 -73t-72.5 -30q-44 0 -74.5 30t-30.5 73q0 44 30.5 74t74.5 30zM430 2174h113l178 -288
l180 288h111l-225 -389h-132z" />
    <glyph glyph-name="udieresiscaron" unicode="&#x1da;" horiz-adv-x="1165" 
d="M291 1006h78v-678q0 -112 48 -164.5t150 -52.5q57 0 115.5 15t122.5 46v694h-146v64l238 76h78v-889l37 -33l96 -10v-74h-303v115q-96 -69 -177.5 -102t-154.5 -33q-133 0 -203.5 80.5t-70.5 232.5v573h-146v64zM771 1316q44 0 73.5 -30t29.5 -74q0 -43 -30 -73t-73 -30
t-73.5 30t-30.5 73q0 44 30.5 74t73.5 30zM391 1316q43 0 72.5 -30t29.5 -74q0 -43 -29.5 -73t-72.5 -30q-44 0 -74.5 30t-30.5 73q0 44 30.5 74t74.5 30zM289 1806h113l178 -288l180 288h111l-225 -389h-132z" />
    <glyph glyph-name="Udieresisgrave" unicode="&#x1db;" horiz-adv-x="1421" 
d="M51 1374h502v-82l-127 -12l-35 -29v-741q0 -215 86.5 -311.5t278.5 -96.5q190 0 277 97.5t87 310.5v727l-39 37l-123 18v82h433v-82l-123 -18l-37 -37v-745q0 -147 -21 -225t-69 -136q-61 -73 -172.5 -114.5t-251.5 -41.5q-141 0 -252 41.5t-172 114.5q-49 59 -69.5 136
t-20.5 225v759l-35 29l-117 12v82zM912 1683q44 0 73.5 -30t29.5 -74q0 -43 -30 -73t-73 -30t-73.5 30t-30.5 73q0 44 30.5 74t73.5 30zM532 1683q43 0 72.5 -30t29.5 -74q0 -43 -29.5 -73t-72.5 -30q-44 0 -74.5 30t-30.5 73q0 44 30.5 74t74.5 30zM521 2174h203l198 -389
h-102z" />
    <glyph glyph-name="udieresisgrave" unicode="&#x1dc;" horiz-adv-x="1165" 
d="M291 1006h78v-678q0 -112 48 -164.5t150 -52.5q57 0 115.5 15t122.5 46v694h-146v64l238 76h78v-889l37 -33l96 -10v-74h-303v115q-96 -69 -177.5 -102t-154.5 -33q-133 0 -203.5 80.5t-70.5 232.5v573h-146v64zM771 1316q44 0 73.5 -30t29.5 -74q0 -43 -30 -73t-73 -30
t-73.5 30t-30.5 73q0 44 30.5 74t73.5 30zM391 1316q43 0 72.5 -30t29.5 -74q0 -43 -29.5 -73t-72.5 -30q-44 0 -74.5 30t-30.5 73q0 44 30.5 74t74.5 30zM380 1806h203l198 -389h-102z" />
    <glyph glyph-name="Adieresismacron" unicode="&#x1de;" horiz-adv-x="1309" 
d="M614 1176l-202 -568h413zM582 1391h135l491 -1282l123 -25v-84h-465v84l127 10l15 29l-148 391h-483l-146 -391l21 -29l133 -10v-84h-401v84l118 25zM848 1700q44 0 73.5 -30t29.5 -74q0 -43 -30 -73t-73 -30t-73.5 30t-30.5 73q0 44 30.5 74t73.5 30zM468 1700
q43 0 72.5 -30t29.5 -74q0 -43 -29.5 -73t-72.5 -30q-44 0 -74.5 30t-30.5 73q0 44 30.5 74t74.5 30zM349 1925h616v-123h-616v123z" />
    <glyph glyph-name="adieresismacron" unicode="&#x1df;" horiz-adv-x="1038" 
d="M684 188v361q-257 -71 -337.5 -130t-80.5 -155q0 -77 44.5 -122.5t119.5 -45.5q48 0 110.5 23t143.5 69zM684 119q-99 -68 -181.5 -100.5t-154.5 -32.5q-119 0 -190.5 72t-71.5 190q0 131 107.5 206t490.5 167v65q0 129 -42 179t-146 50q-39 0 -77 -8t-79 -24v-172h-141
q-37 0 -50.5 13.5t-13.5 49.5q0 100 115.5 166t298.5 66q161 0 234 -70t73 -225v-594l35 -33l108 -10v-74h-288zM733 1316q44 0 73.5 -30t29.5 -74q0 -43 -30 -73t-73 -30t-73.5 30t-30.5 73q0 44 30.5 74t73.5 30zM353 1316q43 0 72.5 -30t29.5 -74q0 -43 -29.5 -73
t-72.5 -30q-44 0 -74.5 30t-30.5 73q0 44 30.5 74t74.5 30zM234 1540h616v-123h-616v123z" />
    <glyph glyph-name="Adotmacron" unicode="&#x1e0;" horiz-adv-x="1309" 
d="M614 1176l-202 -568h413zM582 1391h135l491 -1282l123 -25v-84h-465v84l127 10l15 29l-148 391h-483l-146 -391l21 -29l133 -10v-84h-401v84l118 25zM656 1710q47 0 79 -31.5t32 -78.5q0 -46 -32 -76.5t-79 -30.5q-46 0 -77.5 31t-31.5 76q0 46 31.5 78t77.5 32z
M349 1935h616v-123h-616v123z" />
    <glyph glyph-name="adotmacron" unicode="&#x1e1;" horiz-adv-x="1038" 
d="M684 188v361q-257 -71 -337.5 -130t-80.5 -155q0 -77 44.5 -122.5t119.5 -45.5q48 0 110.5 23t143.5 69zM684 119q-99 -68 -181.5 -100.5t-154.5 -32.5q-119 0 -190.5 72t-71.5 190q0 131 107.5 206t490.5 167v65q0 129 -42 179t-146 50q-39 0 -77 -8t-79 -24v-172h-141
q-37 0 -50.5 13.5t-13.5 49.5q0 100 115.5 166t298.5 66q161 0 234 -70t73 -225v-594l35 -33l108 -10v-74h-288zM541 1326q47 0 79 -31.5t32 -78.5q0 -46 -32 -76.5t-79 -30.5q-46 0 -77.5 31t-31.5 76q0 46 31.5 78t77.5 32zM234 1550h616v-123h-616v123z" />
    <glyph glyph-name="AEmacron" unicode="&#x1e2;" horiz-adv-x="1774" 
d="M872 1284l-423 -674h423v674zM580 1374h1060v-299h-112l-29 174l-29 31h-421v-518h282l31 29l20 149h95v-451h-95l-20 148l-31 31h-282v-574h495l31 33l33 207h106v-334h-993v84l117 10l34 29v391h-477l-245 -391l10 -29l131 -10v-84h-406v84l117 18l715 1149l-19 29
l-118 12v82zM491 1599h616v-123h-616v123z" />
    <glyph glyph-name="aemacron" unicode="&#x1e3;" horiz-adv-x="1485" 
d="M824 608h388q0 9 1 24.5t1 22.5q0 128 -46.5 194t-137.5 66q-97 0 -150.5 -79t-55.5 -228zM664 188v361q-249 -71 -326.5 -130t-77.5 -155q0 -76 43.5 -122t116.5 -46q46 0 105.5 22.5t138.5 69.5zM340 711h-143q-35 0 -48.5 13.5t-13.5 49.5q0 101 110.5 166.5
t286.5 65.5q102 0 163 -29.5t96 -93.5q55 62 122 92.5t148 30.5q160 0 248 -106t88 -300q0 -29 -0.5 -43.5t-1.5 -27.5l-572 -1v-284q66 -68 142 -100.5t165 -32.5q78 0 140.5 25t126.5 81v-113q-79 -61 -161.5 -91.5t-170.5 -30.5q-103 0 -196.5 38.5t-166.5 110.5
q-100 -75 -188 -110t-174 -35q-114 0 -183 70t-69 184q0 136 99.5 211t476.5 170v65q0 129 -41 179t-142 50q-37 0 -71.5 -8t-69.5 -24v-172zM434 1232h616v-123h-616v123z" />
    <glyph glyph-name="Gcaron" unicode="&#x1e6;" horiz-adv-x="1421" 
d="M854 659h512v-84l-113 -10l-34 -28v-490q-124 -36 -229.5 -54t-194.5 -18q-102 0 -191.5 21t-161.5 61q-165 94 -259.5 262t-94.5 369q0 326 199 518.5t536 192.5q93 0 192 -15t202 -45v-325h-115l-31 186l-29 37q-58 27 -115.5 40t-117.5 13q-237 0 -373.5 -157
t-136.5 -431q0 -287 141.5 -452.5t384.5 -165.5q47 0 99.5 6.5t109.5 20.5v426l-35 28l-145 10v84zM436 1890h113l178 -288l180 288h111l-225 -389h-132z" />
    <glyph glyph-name="gcaron" unicode="&#x1e7;" horiz-adv-x="1071" 
d="M422 61q-83 -25 -129.5 -78t-46.5 -122q0 -92 78 -152.5t200 -60.5q131 0 218 63t87 154q0 69 -38 102t-170 58zM504 926q-92 0 -146.5 -68.5t-54.5 -183.5q0 -114 55.5 -183t145.5 -69t145.5 69t55.5 183t-55 183t-146 69zM756 948h293v-96h-226q30 -45 44 -91t14 -99
q0 -141 -109 -230.5t-283 -89.5h-34q-12 -23 -17.5 -46t-5.5 -46q0 -7 2 -30q2 -13 2 -19l197 -31q192 -29 270 -86.5t78 -165.5q0 -59 -32.5 -120.5t-90.5 -108.5q-81 -66 -185 -100.5t-220 -34.5q-175 0 -273 70t-98 194q0 99 59 167t162 87q-10 24 -15 47t-5 45
q0 39 24 87t74 107q-117 26 -185.5 109.5t-68.5 200.5q0 151 109.5 244.5t287.5 93.5q59 0 116.5 -14.5t115.5 -43.5zM274 1498h113l178 -288l180 288h111l-225 -389h-132z" />
    <glyph glyph-name="Kcaron" unicode="&#x1e8;" horiz-adv-x="1251" 
d="M68 0v84l116 10l35 29v1128l-35 29l-116 12v82h497v-82l-127 -12l-35 -29v-555h78l455 555l-12 29l-115 12v82h426v-82l-135 -18l-430 -512l465 -668l149 -10v-84h-338v61l-391 551h-152v-489l35 -29l127 -10v-84h-497zM385 1865h113l178 -288l180 288h111l-225 -389
h-132z" />
    <glyph glyph-name="kcaron" unicode="&#x1e9;" horiz-adv-x="1059" 
d="M51 0v74l111 10l35 33v1253h-158v64l250 73h78v-985h39l313 350l-14 29l-93 8v76h389v-76l-131 -16l-280 -297l360 -508l131 -10v-78h-319v68l-277 397h-118v-348l36 -33l97 -10v-74h-449zM269 1998h113l178 -288l180 288h111l-225 -389h-132z" />
    <glyph glyph-name="Oogonek" unicode="&#x1ea;" horiz-adv-x="1497" 
d="M750 1298q-206 0 -327.5 -164.5t-121.5 -445.5q0 -280 122.5 -446t326.5 -166q202 0 324 166.5t122 445.5t-122 444.5t-324 165.5zM750 1409q131 0 244 -45t206 -135q104 -101 157.5 -238t53.5 -303q0 -114 -26 -215t-78 -190q-87 -149 -234 -232.5t-323 -83.5
q-131 0 -246.5 45t-204.5 131q-104 101 -157.5 239t-53.5 306q0 167 53 304t156 237q92 89 206.5 134.5t246.5 45.5zM737 -32h90q-53 -45 -81.5 -102t-28.5 -115q0 -57 29.5 -87t86.5 -30q14 0 59 7q6 1 9 1v-102q-24 -7 -50.5 -10.5t-54.5 -3.5q-97 0 -147.5 44t-50.5 130
q0 74 37 146t102 122z" />
    <glyph glyph-name="oogonek" unicode="&#x1eb;" horiz-adv-x="1104" 
d="M551 918q-128 0 -205.5 -115.5t-77.5 -308.5t78 -308.5t205 -115.5q129 0 207 115t78 309q0 192 -78.5 308t-206.5 116zM551 1006q209 0 343 -143.5t134 -368.5t-134.5 -368.5t-342.5 -143.5t-341.5 143t-133.5 369t132.5 369t342.5 143zM540 -17h90q-53 -45 -81.5 -102
t-28.5 -115q0 -57 29.5 -87t86.5 -30q14 0 59 7q6 1 9 1v-102q-24 -7 -50.5 -10.5t-54.5 -3.5q-97 0 -147.5 44t-50.5 130q0 74 37 146t102 122z" />
    <glyph glyph-name="Oogonekmacron" unicode="&#x1ec;" horiz-adv-x="1497" 
d="M750 1298q-206 0 -327.5 -164.5t-121.5 -445.5q0 -280 122.5 -446t326.5 -166q202 0 324 166.5t122 445.5t-122 444.5t-324 165.5zM750 1409q131 0 244 -45t206 -135q104 -101 157.5 -238t53.5 -303q0 -114 -26 -215t-78 -190q-87 -149 -234 -232.5t-323 -83.5
q-131 0 -246.5 45t-204.5 131q-104 101 -157.5 239t-53.5 306q0 167 53 304t156 237q92 89 206.5 134.5t246.5 45.5zM737 -32h90q-53 -45 -81.5 -102t-28.5 -115q0 -57 29.5 -87t86.5 -30q14 0 59 7q6 1 9 1v-102q-24 -7 -50.5 -10.5t-54.5 -3.5q-97 0 -147.5 44t-50.5 130
q0 74 37 146t102 122zM441 1634h616v-123h-616v123z" />
    <glyph glyph-name="oogonekmacron" unicode="&#x1ed;" horiz-adv-x="1104" 
d="M551 918q-128 0 -205.5 -115.5t-77.5 -308.5t78 -308.5t205 -115.5q129 0 207 115t78 309q0 192 -78.5 308t-206.5 116zM551 1006q209 0 343 -143.5t134 -368.5t-134.5 -368.5t-342.5 -143.5t-341.5 143t-133.5 369t132.5 369t342.5 143zM540 -17h90q-53 -45 -81.5 -102
t-28.5 -115q0 -57 29.5 -87t86.5 -30q14 0 59 7q6 1 9 1v-102q-24 -7 -50.5 -10.5t-54.5 -3.5q-97 0 -147.5 44t-50.5 130q0 74 37 146t102 122zM244 1232h616v-123h-616v123z" />
    <glyph glyph-name="DZ" unicode="&#x1f1;" horiz-adv-x="2619" 
d="M403 1280v-1186h162q280 0 418.5 147.5t138.5 446.5t-137.5 445.5t-419.5 146.5h-162zM573 1374q360 0 558 -179.5t198 -506.5q0 -182 -64.5 -323.5t-191.5 -237.5q-90 -68 -203 -97.5t-297 -29.5h-505v84l116 10l35 29v1128l-35 29l-116 12v82h505zM1556 1374h957v-86
l-779 -1188h619l22 27l37 244h111v-371h-1012v84l776 1192h-546l-39 -27l-33 -192h-113v317z" />
    <glyph glyph-name="Dz" unicode="&#x1f2;" horiz-adv-x="2377" 
d="M403 1280v-1186h162q280 0 418.5 147.5t138.5 446.5t-137.5 445.5t-419.5 146.5h-162zM573 1374q360 0 558 -179.5t198 -506.5q0 -182 -64.5 -323.5t-191.5 -237.5q-90 -68 -203 -97.5t-297 -29.5h-505v84l116 10l35 29v1128l-35 29l-116 12v82h505zM1511 0v102l547 789
h-379l-29 -33l-22 -158h-96v285h739v-78l-567 -813h440l31 33l22 174h105v-301h-791z" />
    <glyph glyph-name="dz" unicode="&#x1f3;" horiz-adv-x="2115" 
d="M784 182v703q-56 16 -100.5 24.5t-79.5 8.5q-157 0 -253.5 -116t-96.5 -306q0 -177 83.5 -281t223.5 -104q54 0 109.5 17.5t113.5 53.5zM784 1370h-157v64l250 73h77v-1390l35 -33l98 -10v-74h-303v106q-80 -64 -156 -94t-159 -30q-172 0 -283.5 134.5t-111.5 344.5
q0 244 146.5 395.5t381.5 151.5q41 0 87 -6t95 -17v385zM1249 0v102l547 789h-379l-29 -33l-22 -158h-96v285h739v-78l-567 -813h440l31 33l22 174h105v-301h-791z" />
    <glyph glyph-name="Gacute" unicode="&#x1f4;" horiz-adv-x="1421" 
d="M854 659h512v-84l-113 -10l-34 -28v-490q-124 -36 -229.5 -54t-194.5 -18q-102 0 -191.5 21t-161.5 61q-165 94 -259.5 262t-94.5 369q0 326 199 518.5t536 192.5q93 0 192 -15t202 -45v-325h-115l-31 186l-29 37q-58 27 -115.5 40t-117.5 13q-237 0 -373.5 -157
t-136.5 -431q0 -287 141.5 -452.5t384.5 -165.5q47 0 99.5 6.5t109.5 20.5v426l-35 28l-145 10v84zM725 1890h203l-299 -389h-103z" />
    <glyph glyph-name="gacute" unicode="&#x1f5;" horiz-adv-x="1071" 
d="M422 61q-83 -25 -129.5 -78t-46.5 -122q0 -92 78 -152.5t200 -60.5q131 0 218 63t87 154q0 69 -38 102t-170 58zM504 926q-92 0 -146.5 -68.5t-54.5 -183.5q0 -114 55.5 -183t145.5 -69t145.5 69t55.5 183t-55 183t-146 69zM756 948h293v-96h-226q30 -45 44 -91t14 -99
q0 -141 -109 -230.5t-283 -89.5h-34q-12 -23 -17.5 -46t-5.5 -46q0 -7 2 -30q2 -13 2 -19l197 -31q192 -29 270 -86.5t78 -165.5q0 -59 -32.5 -120.5t-90.5 -108.5q-81 -66 -185 -100.5t-220 -34.5q-175 0 -273 70t-98 194q0 99 59 167t162 87q-10 24 -15 47t-5 45
q0 39 24 87t74 107q-117 26 -185.5 109.5t-68.5 200.5q0 151 109.5 244.5t287.5 93.5q59 0 116.5 -14.5t115.5 -43.5zM564 1498h203l-299 -389h-103z" />
    <glyph glyph-name="Ngrave" unicode="&#x1f8;" horiz-adv-x="1460" 
d="M59 0v84l125 16l37 39v1112l-37 29l-131 12v82h385v-51l699 -1049v963l-37 37l-123 18v82h430v-82l-123 -18l-37 -37v-1237h-135l-780 1163v-1024l37 -39l123 -16v-84h-433zM530 1865h203l198 -389h-102z" />
    <glyph glyph-name="ngrave" unicode="&#x1f9;" horiz-adv-x="1163" 
d="M61 0v74l111 10l35 33v741h-146v64l238 73h78v-112q123 68 198 95.5t132 27.5q134 0 205 -80t71 -232v-577l35 -33l110 -10v-74h-448v74l98 10l35 33v542q0 115 -47.5 163t-159.5 48q-49 0 -106 -16.5t-123 -50.5v-686l35 -33l98 -10v-74h-449zM394 1498h203l198 -389
h-102z" />
    <glyph glyph-name="Aringacute" unicode="&#x1fa;" horiz-adv-x="1309" 
d="M614 1176l-202 -568h413zM582 1391h135l491 -1282l123 -25v-84h-465v84l127 10l15 29l-148 391h-483l-146 -391l21 -29l133 -10v-84h-401v84l118 25zM656 1882q-62 0 -104.5 -43t-42.5 -106q0 -62 43 -105t104 -43q63 0 106.5 43t43.5 105q0 63 -43.5 106t-106.5 43z
M656 1974q102 0 172 -69t70 -170q0 -102 -70.5 -172t-171.5 -70t-170.5 70t-69.5 172q0 101 69.5 170t170.5 69zM655 2465h203l-299 -389h-103z" />
    <glyph glyph-name="aringacute" unicode="&#x1fb;" horiz-adv-x="1038" 
d="M684 188v361q-257 -71 -337.5 -130t-80.5 -155q0 -77 44.5 -122.5t119.5 -45.5q48 0 110.5 23t143.5 69zM684 119q-99 -68 -181.5 -100.5t-154.5 -32.5q-119 0 -190.5 72t-71.5 190q0 131 107.5 206t490.5 167v65q0 129 -42 179t-146 50q-39 0 -77 -8t-79 -24v-172h-141
q-37 0 -50.5 13.5t-13.5 49.5q0 100 115.5 166t298.5 66q161 0 234 -70t73 -225v-594l35 -33l108 -10v-74h-288zM541 1498q-62 0 -104.5 -43t-42.5 -106q0 -62 43 -105t104 -43q63 0 106.5 43t43.5 105q0 63 -43.5 106t-106.5 43zM541 1590q102 0 172 -69t70 -170
q0 -102 -70.5 -172t-171.5 -70t-170.5 70t-69.5 172q0 101 69.5 170t170.5 69zM541 2080h203l-299 -389h-103z" />
    <glyph glyph-name="AEacute" unicode="&#x1fc;" horiz-adv-x="1774" 
d="M872 1284l-423 -674h423v674zM580 1374h1060v-299h-112l-29 174l-29 31h-421v-518h282l31 29l20 149h95v-451h-95l-20 148l-31 31h-282v-574h495l31 33l33 207h106v-334h-993v84l117 10l34 29v391h-477l-245 -391l10 -29l131 -10v-84h-406v84l117 18l715 1149l-19 29
l-118 12v82zM797 1865h203l-299 -389h-103z" />
    <glyph glyph-name="aeacute" unicode="&#x1fd;" horiz-adv-x="1485" 
d="M824 608h388q0 9 1 24.5t1 22.5q0 128 -46.5 194t-137.5 66q-97 0 -150.5 -79t-55.5 -228zM664 188v361q-249 -71 -326.5 -130t-77.5 -155q0 -76 43.5 -122t116.5 -46q46 0 105.5 22.5t138.5 69.5zM340 711h-143q-35 0 -48.5 13.5t-13.5 49.5q0 101 110.5 166.5
t286.5 65.5q102 0 163 -29.5t96 -93.5q55 62 122 92.5t148 30.5q160 0 248 -106t88 -300q0 -29 -0.5 -43.5t-1.5 -27.5l-572 -1v-284q66 -68 142 -100.5t165 -32.5q78 0 140.5 25t126.5 81v-113q-79 -61 -161.5 -91.5t-170.5 -30.5q-103 0 -196.5 38.5t-166.5 110.5
q-100 -75 -188 -110t-174 -35q-114 0 -183 70t-69 184q0 136 99.5 211t476.5 170v65q0 129 -41 179t-142 50q-37 0 -71.5 -8t-69.5 -24v-172zM740 1498h203l-299 -389h-103z" />
    <glyph glyph-name="Oslashacute" unicode="&#x1fe;" horiz-adv-x="1497" 
d="M1069 1151l-588 -979q60 -47 126.5 -70.5t142.5 -23.5q208 0 332 165t124 445q0 141 -33.5 255t-103.5 208zM995 1219q-54 41 -114 60t-131 19q-209 0 -333 -165t-124 -445q0 -135 29.5 -243t89.5 -195zM1184 1532l84 -49l-125 -205q135 -108 201.5 -254.5t66.5 -335.5
q0 -165 -54.5 -304.5t-158.5 -240.5q-89 -86 -203.5 -131t-244.5 -45q-88 0 -173 22.5t-167 67.5l-127 -215l-80 56l129 217q-122 104 -183 248t-61 325q0 166 53.5 304t157.5 239q88 87 203.5 132.5t247.5 45.5q78 0 156 -18t159 -56zM747 2023h203l-299 -389h-103z" />
    <glyph glyph-name="oslashacute" unicode="&#x1ff;" horiz-adv-x="1104" 
d="M760 803l-379 -662q35 -36 76.5 -53.5t93.5 -17.5q132 0 211.5 115t79.5 309q0 92 -20.5 168t-61.5 141zM705 864q-34 26 -72 38.5t-82 12.5q-130 0 -208.5 -114t-78.5 -307q0 -78 15.5 -148t46.5 -133zM866 1147l70 -39l-107 -190q102 -77 150.5 -180.5t48.5 -243.5
q0 -225 -134.5 -368.5t-342.5 -143.5q-64 0 -121 14t-111 43l-118 -203l-66 41l119 209q-90 75 -134 175.5t-44 232.5q0 225 133 368.5t342 143.5q58 0 110 -11.5t99 -33.5zM551 1638h203l-299 -389h-103z" />
    <glyph glyph-name="Adblgrave" unicode="&#x200;" horiz-adv-x="1309" 
d="M614 1176l-202 -568h413zM582 1391h135l491 -1282l123 -25v-84h-465v84l127 10l15 29l-148 391h-483l-146 -391l21 -29l133 -10v-84h-401v84l118 25zM299 1845h193l190 -352h-97zM632 1852h194l189 -352h-97z" />
    <glyph glyph-name="adblgrave" unicode="&#x201;" horiz-adv-x="1038" 
d="M684 188v361q-257 -71 -337.5 -130t-80.5 -155q0 -77 44.5 -122.5t119.5 -45.5q48 0 110.5 23t143.5 69zM684 119q-99 -68 -181.5 -100.5t-154.5 -32.5q-119 0 -190.5 72t-71.5 190q0 131 107.5 206t490.5 167v65q0 129 -42 179t-146 50q-39 0 -77 -8t-79 -24v-172h-141
q-37 0 -50.5 13.5t-13.5 49.5q0 100 115.5 166t298.5 66q161 0 234 -70t73 -225v-594l35 -33l108 -10v-74h-288zM184 1461h193l190 -352h-97zM517 1468h194l189 -352h-97z" />
    <glyph glyph-name="Ainvertedbreve" unicode="&#x202;" horiz-adv-x="1309" 
d="M614 1176l-202 -568h413zM582 1391h135l491 -1282l123 -25v-84h-465v84l127 10l15 29l-148 391h-483l-146 -391l21 -29l133 -10v-84h-401v84l118 25zM367 1784h80v-16q0 -80 47 -113t164 -33q115 0 161 33t46 113v16h82v-22q0 -145 -66 -207t-223 -62q-159 0 -225 61
t-66 208v22z" />
    <glyph glyph-name="ainvertedbreve" unicode="&#x203;" horiz-adv-x="1038" 
d="M684 188v361q-257 -71 -337.5 -130t-80.5 -155q0 -77 44.5 -122.5t119.5 -45.5q48 0 110.5 23t143.5 69zM684 119q-99 -68 -181.5 -100.5t-154.5 -32.5q-119 0 -190.5 72t-71.5 190q0 131 107.5 206t490.5 167v65q0 129 -42 179t-146 50q-39 0 -77 -8t-79 -24v-172h-141
q-37 0 -50.5 13.5t-13.5 49.5q0 100 115.5 166t298.5 66q161 0 234 -70t73 -225v-594l35 -33l108 -10v-74h-288zM252 1400h80v-16q0 -80 47 -113t164 -33q115 0 161 33t46 113v16h82v-22q0 -145 -66 -207t-223 -62q-159 0 -225 61t-66 208v22z" />
    <glyph glyph-name="Edblgrave" unicode="&#x204;" horiz-adv-x="1180" 
d="M68 0v84l116 10l35 29v1128l-35 29l-116 12v82h981v-299h-115l-29 174l-28 31h-474v-518h336l29 29l20 149h97v-451h-97l-20 148l-29 31h-336v-574h549l29 33l35 207h106v-334h-1054zM237 1828h193l190 -352h-97zM570 1835h194l189 -352h-97z" />
    <glyph glyph-name="edblgrave" unicode="&#x205;" horiz-adv-x="1006" 
d="M735 625v32q0 124 -54.5 190t-158.5 66q-102 0 -176.5 -81.5t-83.5 -206.5h473zM918 217v-113q-91 -60 -189 -91t-197 -31q-203 0 -329.5 139.5t-126.5 363.5q0 230 132.5 375.5t340.5 145.5q170 0 269.5 -108.5t99.5 -295.5q0 -25 -0.5 -38t-2.5 -25h-663v-23
q0 -193 93 -305.5t251 -112.5q73 0 151.5 29t170.5 90zM139 1461h193l190 -352h-97zM472 1468h194l189 -352h-97z" />
    <glyph glyph-name="Einvertedbreve" unicode="&#x206;" horiz-adv-x="1180" 
d="M68 0v84l116 10l35 29v1128l-35 29l-116 12v82h981v-299h-115l-29 174l-28 31h-474v-518h336l29 29l20 149h97v-451h-97l-20 148l-29 31h-336v-574h549l29 33l35 207h106v-334h-1054zM305 1767h80v-16q0 -80 47 -113t164 -33q115 0 161 33t46 113v16h82v-22
q0 -145 -66 -207t-223 -62q-159 0 -225 61t-66 208v22z" />
    <glyph glyph-name="einvertedbreve" unicode="&#x207;" horiz-adv-x="1006" 
d="M735 625v32q0 124 -54.5 190t-158.5 66q-102 0 -176.5 -81.5t-83.5 -206.5h473zM918 217v-113q-91 -60 -189 -91t-197 -31q-203 0 -329.5 139.5t-126.5 363.5q0 230 132.5 375.5t340.5 145.5q170 0 269.5 -108.5t99.5 -295.5q0 -25 -0.5 -38t-2.5 -25h-663v-23
q0 -193 93 -305.5t251 -112.5q73 0 151.5 29t170.5 90zM207 1400h80v-16q0 -80 47 -113t164 -33q115 0 161 33t46 113v16h82v-22q0 -145 -66 -207t-223 -62q-159 0 -225 61t-66 208v22z" />
    <glyph glyph-name="Idblgrave" unicode="&#x208;" horiz-adv-x="664" 
d="M72 0v84l131 10l35 29v1128l-35 29l-131 12v82h520v-82l-131 -12l-35 -29v-1128l35 -29l131 -10v-84h-520zM-26 1828h193l190 -352h-97zM307 1835h194l189 -352h-97z" />
    <glyph glyph-name="idblgrave" unicode="&#x209;" horiz-adv-x="573" 
d="M307 995h80v-878l35 -33l110 -10v-74h-460v74l108 10l35 33v741h-143v64zM-56 1450h193l190 -352h-97zM277 1457h194l189 -352h-97z" />
    <glyph glyph-name="Iinvertedbreve" unicode="&#x20a;" horiz-adv-x="664" 
d="M72 0v84l131 10l35 29v1128l-35 29l-131 12v82h520v-82l-131 -12l-35 -29v-1128l35 -29l131 -10v-84h-520zM42 1767h80v-16q0 -80 47 -113t164 -33q115 0 161 33t46 113v16h82v-22q0 -145 -66 -207t-223 -62q-159 0 -225 61t-66 208v22z" />
    <glyph glyph-name="iinvertedbreve" unicode="&#x20b;" horiz-adv-x="573" 
d="M307 995h80v-878l35 -33l110 -10v-74h-460v74l108 10l35 33v741h-143v64zM12 1389h80v-16q0 -80 47 -113t164 -33q115 0 161 33t46 113v16h82v-22q0 -145 -66 -207t-223 -62q-159 0 -225 61t-66 208v22z" />
    <glyph glyph-name="Odblgrave" unicode="&#x20c;" horiz-adv-x="1497" 
d="M750 1298q-206 0 -327.5 -164.5t-121.5 -445.5q0 -280 122.5 -446t326.5 -166q202 0 324 166.5t122 445.5t-122 444.5t-324 165.5zM750 1409q131 0 244 -45t206 -135q104 -101 157.5 -238t53.5 -303q0 -114 -26 -215t-78 -190q-87 -149 -234 -232.5t-323 -83.5
q-131 0 -246.5 45t-204.5 131q-104 101 -157.5 239t-53.5 306q0 167 53 304t156 237q92 89 206.5 134.5t246.5 45.5zM391 1863h193l190 -352h-97zM724 1870h194l189 -352h-97z" />
    <glyph glyph-name="odblgrave" unicode="&#x20d;" horiz-adv-x="1104" 
d="M551 918q-128 0 -205.5 -115.5t-77.5 -308.5t78 -308.5t205 -115.5q129 0 207 115t78 309q0 192 -78.5 308t-206.5 116zM551 1006q209 0 343 -143.5t134 -368.5t-134.5 -368.5t-342.5 -143.5t-341.5 143t-133.5 369t132.5 369t342.5 143zM194 1461h193l190 -352h-97z
M527 1468h194l189 -352h-97z" />
    <glyph glyph-name="Oinvertedbreve" unicode="&#x20e;" horiz-adv-x="1497" 
d="M750 1298q-206 0 -327.5 -164.5t-121.5 -445.5q0 -280 122.5 -446t326.5 -166q202 0 324 166.5t122 445.5t-122 444.5t-324 165.5zM750 1409q131 0 244 -45t206 -135q104 -101 157.5 -238t53.5 -303q0 -114 -26 -215t-78 -190q-87 -149 -234 -232.5t-323 -83.5
q-131 0 -246.5 45t-204.5 131q-104 101 -157.5 239t-53.5 306q0 167 53 304t156 237q92 89 206.5 134.5t246.5 45.5zM459 1802h80v-16q0 -80 47 -113t164 -33q115 0 161 33t46 113v16h82v-22q0 -145 -66 -207t-223 -62q-159 0 -225 61t-66 208v22z" />
    <glyph glyph-name="oinvertedbreve" unicode="&#x20f;" horiz-adv-x="1104" 
d="M551 918q-128 0 -205.5 -115.5t-77.5 -308.5t78 -308.5t205 -115.5q129 0 207 115t78 309q0 192 -78.5 308t-206.5 116zM551 1006q209 0 343 -143.5t134 -368.5t-134.5 -368.5t-342.5 -143.5t-341.5 143t-133.5 369t132.5 369t342.5 143zM262 1400h80v-16q0 -80 47 -113
t164 -33q115 0 161 33t46 113v16h82v-22q0 -145 -66 -207t-223 -62q-159 0 -225 61t-66 208v22z" />
    <glyph glyph-name="Rdblgrave" unicode="&#x210;" horiz-adv-x="1323" 
d="M403 1280v-571q31 -1 59 -1.5t54 -0.5q190 0 276.5 67t86.5 215q0 153 -89 222t-288 69h-99zM68 1374h522q251 0 372 -90.5t121 -277.5q0 -133 -83 -218.5t-248 -121.5q77 -21 129 -54.5t82 -83.5q34 -55 58 -161.5t38 -141.5q31 -84 85 -114.5t181 -30.5h18v-78
q-46 -9 -85 -13.5t-74 -4.5q-71 0 -121.5 14.5t-85.5 44.5q-73 64 -121 250q-18 67 -29 100q-41 125 -110.5 173t-210.5 48q-30 0 -96 -3l-7 -1v-487l35 -29l117 -10v-84h-487v84l116 10l35 29v1128l-35 29l-116 12v82zM347 1828h193l190 -352h-97zM680 1835h194l189 -352
h-97z" />
    <glyph glyph-name="rdblgrave" unicode="&#x211;" horiz-adv-x="782" 
d="M61 0v74l109 10l35 33v741h-144v64l238 73h78v-192q50 51 104.5 100.5t114.5 97.5q9 3 19.5 4t31.5 1q31 0 61 -6.5t62 -20.5v-176h-65q-20 24 -46.5 36.5t-58.5 12.5q-49 0 -103.5 -36.5t-119.5 -113.5v-585l35 -33l143 -10v-74h-494zM57 1461h193l190 -352h-97z
M390 1468h194l189 -352h-97z" />
    <glyph glyph-name="Rinvertedbreve" unicode="&#x212;" horiz-adv-x="1323" 
d="M403 1280v-571q31 -1 59 -1.5t54 -0.5q190 0 276.5 67t86.5 215q0 153 -89 222t-288 69h-99zM68 1374h522q251 0 372 -90.5t121 -277.5q0 -133 -83 -218.5t-248 -121.5q77 -21 129 -54.5t82 -83.5q34 -55 58 -161.5t38 -141.5q31 -84 85 -114.5t181 -30.5h18v-78
q-46 -9 -85 -13.5t-74 -4.5q-71 0 -121.5 14.5t-85.5 44.5q-73 64 -121 250q-18 67 -29 100q-41 125 -110.5 173t-210.5 48q-30 0 -96 -3l-7 -1v-487l35 -29l117 -10v-84h-487v84l116 10l35 29v1128l-35 29l-116 12v82zM415 1767h80v-16q0 -80 47 -113t164 -33q115 0 161 33
t46 113v16h82v-22q0 -145 -66 -207t-223 -62q-159 0 -225 61t-66 208v22z" />
    <glyph glyph-name="rinvertedbreve" unicode="&#x213;" horiz-adv-x="782" 
d="M61 0v74l109 10l35 33v741h-144v64l238 73h78v-192q50 51 104.5 100.5t114.5 97.5q9 3 19.5 4t31.5 1q31 0 61 -6.5t62 -20.5v-176h-65q-20 24 -46.5 36.5t-58.5 12.5q-49 0 -103.5 -36.5t-119.5 -113.5v-585l35 -33l143 -10v-74h-494zM125 1400h80v-16q0 -80 47 -113
t164 -33q115 0 161 33t46 113v16h82v-22q0 -145 -66 -207t-223 -62q-159 0 -225 61t-66 208v22z" />
    <glyph glyph-name="Udblgrave" unicode="&#x214;" horiz-adv-x="1421" 
d="M51 1374h502v-82l-127 -12l-35 -29v-741q0 -215 86.5 -311.5t278.5 -96.5q190 0 277 97.5t87 310.5v727l-39 37l-123 18v82h433v-82l-123 -18l-37 -37v-745q0 -147 -21 -225t-69 -136q-61 -73 -172.5 -114.5t-251.5 -41.5q-141 0 -252 41.5t-172 114.5q-49 59 -69.5 136
t-20.5 225v759l-35 29l-117 12v82zM363 1828h193l190 -352h-97zM696 1835h194l189 -352h-97z" />
    <glyph glyph-name="udblgrave" unicode="&#x215;" horiz-adv-x="1165" 
d="M291 1006h78v-678q0 -112 48 -164.5t150 -52.5q57 0 115.5 15t122.5 46v694h-146v64l238 76h78v-889l37 -33l96 -10v-74h-303v115q-96 -69 -177.5 -102t-154.5 -33q-133 0 -203.5 80.5t-70.5 232.5v573h-146v64zM222 1461h193l190 -352h-97zM555 1468h194l189 -352h-97z
" />
    <glyph glyph-name="Uinvertedbreve" unicode="&#x216;" horiz-adv-x="1421" 
d="M51 1374h502v-82l-127 -12l-35 -29v-741q0 -215 86.5 -311.5t278.5 -96.5q190 0 277 97.5t87 310.5v727l-39 37l-123 18v82h433v-82l-123 -18l-37 -37v-745q0 -147 -21 -225t-69 -136q-61 -73 -172.5 -114.5t-251.5 -41.5q-141 0 -252 41.5t-172 114.5q-49 59 -69.5 136
t-20.5 225v759l-35 29l-117 12v82zM431 1767h80v-16q0 -80 47 -113t164 -33q115 0 161 33t46 113v16h82v-22q0 -145 -66 -207t-223 -62q-159 0 -225 61t-66 208v22z" />
    <glyph glyph-name="uinvertedbreve" unicode="&#x217;" horiz-adv-x="1165" 
d="M291 1006h78v-678q0 -112 48 -164.5t150 -52.5q57 0 115.5 15t122.5 46v694h-146v64l238 76h78v-889l37 -33l96 -10v-74h-303v115q-96 -69 -177.5 -102t-154.5 -33q-133 0 -203.5 80.5t-70.5 232.5v573h-146v64zM290 1400h80v-16q0 -80 47 -113t164 -33q115 0 161 33
t46 113v16h82v-22q0 -145 -66 -207t-223 -62q-159 0 -225 61t-66 208v22z" />
    <glyph glyph-name="Scommaaccent" unicode="&#x218;" horiz-adv-x="1139" 
d="M123 41v360h121l24 -235l27 -35q45 -23 103 -35t126 -12q143 0 226.5 66.5t83.5 179.5q0 157 -294 282l-49 21q-210 91 -278 169.5t-68 203.5q0 176 129.5 284.5t343.5 108.5q86 0 172.5 -14.5t176.5 -43.5v-317h-107l-31 195l-30 34q-39 22 -85 32.5t-100 10.5
q-128 0 -203 -66.5t-75 -180.5q0 -83 52.5 -137.5t234.5 -131.5l51 -20q179 -70 258 -148q45 -44 67.5 -101t22.5 -124q0 -185 -145 -298.5t-385 -113.5q-107 0 -201.5 17t-167.5 49zM418 -587v54q99 19 149.5 74.5t50.5 148.5v17h-116q-16 16 -23 34.5t-7 39.5
q0 42 30 67.5t77 25.5q70 0 108 -44t38 -124q0 -112 -87 -196t-220 -97z" />
    <glyph glyph-name="scommaaccent" unicode="&#x219;" horiz-adv-x="819" 
d="M705 961v-232h-101l-16 145q-41 22 -78 33t-74 11q-80 0 -125 -39t-45 -109q0 -57 36 -97t138 -89q16 -8 49 -23q116 -53 168 -96q38 -30 58 -75.5t20 -100.5q0 -144 -101.5 -225.5t-281.5 -81.5q-74 0 -141.5 10.5t-124.5 32.5v266h98l25 -174q43 -25 86.5 -37t87.5 -12
q87 0 139.5 45.5t52.5 119.5q0 62 -36 102.5t-172 102.5q-154 69 -209.5 130t-55.5 151q0 137 95 212t268 75q69 0 128.5 -11.5t111.5 -33.5zM256 -580v54q99 19 149.5 74.5t50.5 148.5v17h-116q-16 16 -23 34.5t-7 39.5q0 42 30 67.5t77 25.5q70 0 108 -44t38 -124
q0 -112 -87 -196t-220 -97z" />
    <glyph glyph-name="Tcommaaccent" unicode="&#x21a;" horiz-adv-x="1223" 
d="M33 1374h1157v-315h-113l-28 190l-29 31h-313v-1157l34 -29l138 -10v-84h-535v84l137 10l35 29v1157h-313l-29 -31l-29 -190h-112v315zM457 -562v54q99 19 149.5 74.5t50.5 148.5v17h-116q-16 16 -23 34.5t-7 39.5q0 42 30 67.5t77 25.5q70 0 108 -44t38 -124
q0 -112 -87 -196t-220 -97z" />
    <glyph glyph-name="tcommaaccent" unicode="&#x21b;" horiz-adv-x="684" 
d="M180 862h-129v64l135 59l88 191h76v-218h312v-96h-312v-540q0 -133 37 -178.5t133 -45.5q33 0 68.5 4t73.5 13v-76q-70 -22 -138 -33.5t-131 -11.5q-118 0 -165.5 44.5t-47.5 162.5v661zM202 -568v54q99 19 149.5 74.5t50.5 148.5v17h-116q-16 16 -23 34.5t-7 39.5
q0 42 30 67.5t77 25.5q70 0 108 -44t38 -124q0 -112 -87 -196t-220 -97z" />
    <glyph glyph-name="Hcaron" unicode="&#x21e;" horiz-adv-x="1511" 
d="M68 1374h497v-82l-127 -12l-35 -29v-483h705v483l-35 29l-127 12v82h498v-82l-117 -12l-35 -29v-1128l35 -29l117 -10v-84h-498v84l127 10l35 29v551h-705v-551l35 -29l127 -10v-84h-497v84l116 10l35 29v1128l-35 29l-116 12v82zM465 1865h113l178 -288l180 288h111
l-225 -389h-132z" />
    <glyph glyph-name="hcaron" unicode="&#x21f;" horiz-adv-x="1155" 
d="M289 1507h78v-624q121 67 197.5 95t133.5 28q135 0 206 -80t71 -232v-577l35 -33l108 -10v-74h-446v74l96 10l35 33v542q0 115 -48 163t-159 48q-49 0 -106 -16.5t-123 -50.5v-686l36 -33l97 -10v-74h-449v74l111 10l35 33v1253h-158v64zM287 1998h113l178 -288l180 288
h111l-225 -389h-132z" />
    <glyph glyph-name="Adotaccent" unicode="&#x226;" horiz-adv-x="1309" 
d="M614 1176l-202 -568h413zM582 1391h135l491 -1282l123 -25v-84h-465v84l127 10l15 29l-148 391h-483l-146 -391l21 -29l133 -10v-84h-401v84l118 25zM656 1710q47 0 79 -31.5t32 -78.5q0 -46 -32 -76.5t-79 -30.5q-46 0 -77.5 31t-31.5 76q0 46 31.5 78t77.5 32z" />
    <glyph glyph-name="adotaccent" unicode="&#x227;" horiz-adv-x="1038" 
d="M684 188v361q-257 -71 -337.5 -130t-80.5 -155q0 -77 44.5 -122.5t119.5 -45.5q48 0 110.5 23t143.5 69zM684 119q-99 -68 -181.5 -100.5t-154.5 -32.5q-119 0 -190.5 72t-71.5 190q0 131 107.5 206t490.5 167v65q0 129 -42 179t-146 50q-39 0 -77 -8t-79 -24v-172h-141
q-37 0 -50.5 13.5t-13.5 49.5q0 100 115.5 166t298.5 66q161 0 234 -70t73 -225v-594l35 -33l108 -10v-74h-288zM541 1326q47 0 79 -31.5t32 -78.5q0 -46 -32 -76.5t-79 -30.5q-46 0 -77.5 31t-31.5 76q0 46 31.5 78t77.5 32z" />
    <glyph glyph-name="Ecedilla" unicode="&#x228;" horiz-adv-x="1180" 
d="M68 0v84l116 10l35 29v1128l-35 29l-116 12v82h981v-299h-115l-29 174l-28 31h-474v-518h336l29 29l20 149h97v-451h-97l-20 148l-29 31h-336v-574h549l29 33l35 207h106v-334h-1054zM516 0h76v-124q9 0 18.5 0.5t22.5 0.5q72 0 113 -39t41 -108q0 -86 -65 -136.5
t-177 -50.5q-33 0 -68 5.5t-73 15.5v74q32 -9 61.5 -13t58.5 -4q65 0 101.5 23.5t36.5 64.5q0 36 -27 56t-76 20q-7 0 -16 -1l-26 -3z" />
    <glyph glyph-name="ecedilla" unicode="&#x229;" horiz-adv-x="1006" 
d="M735 625v32q0 124 -54.5 190t-158.5 66q-102 0 -176.5 -81.5t-83.5 -206.5h473zM918 217v-113q-91 -60 -189 -91t-197 -31q-203 0 -329.5 139.5t-126.5 363.5q0 230 132.5 375.5t340.5 145.5q170 0 269.5 -108.5t99.5 -295.5q0 -25 -0.5 -38t-2.5 -25h-663v-23
q0 -193 93 -305.5t251 -112.5q73 0 151.5 29t170.5 90zM419 -17h76v-124q9 0 18.5 0.5t22.5 0.5q72 0 113 -39t41 -108q0 -86 -65 -136.5t-177 -50.5q-33 0 -68 5.5t-73 15.5v74q32 -9 61.5 -13t58.5 -4q65 0 101.5 23.5t36.5 64.5q0 36 -27 56t-76 20q-7 0 -16 -1l-26 -3z
" />
    <glyph glyph-name="Odieresismacron" unicode="&#x22a;" horiz-adv-x="1497" 
d="M750 1298q-206 0 -327.5 -164.5t-121.5 -445.5q0 -280 122.5 -446t326.5 -166q202 0 324 166.5t122 445.5t-122 444.5t-324 165.5zM750 1409q131 0 244 -45t206 -135q104 -101 157.5 -238t53.5 -303q0 -114 -26 -215t-78 -190q-87 -149 -234 -232.5t-323 -83.5
q-131 0 -246.5 45t-204.5 131q-104 101 -157.5 239t-53.5 306q0 167 53 304t156 237q92 89 206.5 134.5t246.5 45.5zM940 1718q44 0 73.5 -30t29.5 -74q0 -43 -30 -73t-73 -30t-73.5 30t-30.5 73q0 44 30.5 74t73.5 30zM560 1718q43 0 72.5 -30t29.5 -74q0 -43 -29.5 -73
t-72.5 -30q-44 0 -74.5 30t-30.5 73q0 44 30.5 74t74.5 30zM441 1943h616v-123h-616v123z" />
    <glyph glyph-name="odieresismacron" unicode="&#x22b;" horiz-adv-x="1104" 
d="M551 918q-128 0 -205.5 -115.5t-77.5 -308.5t78 -308.5t205 -115.5q129 0 207 115t78 309q0 192 -78.5 308t-206.5 116zM551 1006q209 0 343 -143.5t134 -368.5t-134.5 -368.5t-342.5 -143.5t-341.5 143t-133.5 369t132.5 369t342.5 143zM743 1316q44 0 73.5 -30
t29.5 -74q0 -43 -30 -73t-73 -30t-73.5 30t-30.5 73q0 44 30.5 74t73.5 30zM363 1316q43 0 72.5 -30t29.5 -74q0 -43 -29.5 -73t-72.5 -30q-44 0 -74.5 30t-30.5 73q0 44 30.5 74t74.5 30zM244 1540h616v-123h-616v123z" />
    <glyph glyph-name="Otildemacron" unicode="&#x22c;" horiz-adv-x="1497" 
d="M750 1298q-206 0 -327.5 -164.5t-121.5 -445.5q0 -280 122.5 -446t326.5 -166q202 0 324 166.5t122 445.5t-122 444.5t-324 165.5zM750 1409q131 0 244 -45t206 -135q104 -101 157.5 -238t53.5 -303q0 -114 -26 -215t-78 -190q-87 -149 -234 -232.5t-323 -83.5
q-131 0 -246.5 45t-204.5 131q-104 101 -157.5 239t-53.5 306q0 167 53 304t156 237q92 89 206.5 134.5t246.5 45.5zM976 1787h84q0 -5 1 -15t1 -16q0 -96 -48.5 -156.5t-123.5 -60.5q-70 0 -171 53.5t-124 53.5q-33 0 -53 -30t-20 -81q0 -4 1 -12t1 -12h-88v20
q0 110 44.5 167.5t129.5 57.5q62 0 158.5 -53t123.5 -53q44 0 64 30t20 97v10zM441 2012h616v-123h-616v123z" />
    <glyph glyph-name="otildemacron" unicode="&#x22d;" horiz-adv-x="1104" 
d="M551 918q-128 0 -205.5 -115.5t-77.5 -308.5t78 -308.5t205 -115.5q129 0 207 115t78 309q0 192 -78.5 308t-206.5 116zM551 1006q209 0 343 -143.5t134 -368.5t-134.5 -368.5t-342.5 -143.5t-341.5 143t-133.5 369t132.5 369t342.5 143zM779 1385h84q0 -5 1 -15t1 -16
q0 -96 -48.5 -156.5t-123.5 -60.5q-70 0 -171 53.5t-124 53.5q-33 0 -53 -30t-20 -81q0 -4 1 -12t1 -12h-88v20q0 110 44.5 167.5t129.5 57.5q62 0 158.5 -53t123.5 -53q44 0 64 30t20 97v10zM244 1609h616v-123h-616v123z" />
    <glyph glyph-name="Odotaccent" unicode="&#x22e;" horiz-adv-x="1497" 
d="M750 1298q-206 0 -327.5 -164.5t-121.5 -445.5q0 -280 122.5 -446t326.5 -166q202 0 324 166.5t122 445.5t-122 444.5t-324 165.5zM750 1409q131 0 244 -45t206 -135q104 -101 157.5 -238t53.5 -303q0 -114 -26 -215t-78 -190q-87 -149 -234 -232.5t-323 -83.5
q-131 0 -246.5 45t-204.5 131q-104 101 -157.5 239t-53.5 306q0 167 53 304t156 237q92 89 206.5 134.5t246.5 45.5zM748 1728q47 0 79 -31.5t32 -78.5q0 -46 -32 -76.5t-79 -30.5q-46 0 -77.5 31t-31.5 76q0 46 31.5 78t77.5 32z" />
    <glyph glyph-name="odotaccent" unicode="&#x22f;" horiz-adv-x="1104" 
d="M551 918q-128 0 -205.5 -115.5t-77.5 -308.5t78 -308.5t205 -115.5q129 0 207 115t78 309q0 192 -78.5 308t-206.5 116zM551 1006q209 0 343 -143.5t134 -368.5t-134.5 -368.5t-342.5 -143.5t-341.5 143t-133.5 369t132.5 369t342.5 143zM551 1326q47 0 79 -31.5
t32 -78.5q0 -46 -32 -76.5t-79 -30.5q-46 0 -77.5 31t-31.5 76q0 46 31.5 78t77.5 32z" />
    <glyph glyph-name="Odotaccentmacron" unicode="&#x230;" horiz-adv-x="1497" 
d="M750 1298q-206 0 -327.5 -164.5t-121.5 -445.5q0 -280 122.5 -446t326.5 -166q202 0 324 166.5t122 445.5t-122 444.5t-324 165.5zM750 1409q131 0 244 -45t206 -135q104 -101 157.5 -238t53.5 -303q0 -114 -26 -215t-78 -190q-87 -149 -234 -232.5t-323 -83.5
q-131 0 -246.5 45t-204.5 131q-104 101 -157.5 239t-53.5 306q0 167 53 304t156 237q92 89 206.5 134.5t246.5 45.5zM748 1728q47 0 79 -31.5t32 -78.5q0 -46 -32 -76.5t-79 -30.5q-46 0 -77.5 31t-31.5 76q0 46 31.5 78t77.5 32zM441 1953h616v-123h-616v123z" />
    <glyph glyph-name="odotaccentmacron" unicode="&#x231;" horiz-adv-x="1104" 
d="M551 918q-128 0 -205.5 -115.5t-77.5 -308.5t78 -308.5t205 -115.5q129 0 207 115t78 309q0 192 -78.5 308t-206.5 116zM551 1006q209 0 343 -143.5t134 -368.5t-134.5 -368.5t-342.5 -143.5t-341.5 143t-133.5 369t132.5 369t342.5 143zM551 1326q47 0 79 -31.5
t32 -78.5q0 -46 -32 -76.5t-79 -30.5q-46 0 -77.5 31t-31.5 76q0 46 31.5 78t77.5 32zM244 1550h616v-123h-616v123z" />
    <glyph glyph-name="Ymacron" unicode="&#x232;" horiz-adv-x="1200" 
d="M-27 1374h476v-82l-117 -12l-21 -23l314 -563l344 547l-19 29l-125 22v82h418v-82l-125 -26l-426 -682v-461l33 -29l139 -10v-84h-530v84l139 10l33 29v434l-408 715l-125 20v82zM300 1599h616v-123h-616v123z" />
    <glyph glyph-name="ymacron" unicode="&#x233;" horiz-adv-x="1014" 
d="M-2 985h444v-76l-108 -8l-25 -33l246 -637l256 637l-16 33l-111 8v76h365v-76l-119 -16l-410 -995q-75 -181 -153 -262.5t-174 -81.5q-64 0 -103 31.5t-39 82.5q0 30 13.5 58t39.5 53l197 -78q45 48 87.5 127t78.5 180l-344 889l-125 12v76zM215 1211h616v-123h-616v123z
" />
    <glyph glyph-name="commaturnedmod" unicode="&#x2bb;" horiz-adv-x="412" 
d="M268 1460h88q-84 -94 -123.5 -170.5t-39.5 -144.5q0 -20 0.5 -29.5t3.5 -17.5h131q13 -20 19.5 -37.5t6.5 -34.5q0 -53 -34 -87t-89 -34q-72 0 -115.5 51.5t-43.5 137.5q0 89 49 181t147 185z" />
    <glyph glyph-name="afii57929" unicode="&#x2bc;" horiz-adv-x="412" 
d="M152 905h-89q85 92 124.5 169t39.5 147q0 19 -1 28.5t-3 18.5h-133q-13 19 -20 38t-7 37q0 51 35 84t88 33q73 0 117.5 -51.5t44.5 -136.5q0 -89 -49.5 -181.5t-146.5 -185.5z" />
    <glyph glyph-name="uni02EE" unicode="&#x2ee;" horiz-adv-x="825" 
d="M563 905h-88q84 92 124 169t40 147q0 19 -1 28.5t-3 18.5h-131q-14 19 -20.5 38t-6.5 37q0 52 34 84.5t87 32.5q73 0 117.5 -51.5t44.5 -136.5q0 -89 -50 -181.5t-147 -185.5zM152 905h-89q85 92 124.5 169t39.5 147q0 19 -1 28.5t-3 18.5h-133q-13 19 -20 38t-7 37
q0 51 35 84t88 33q73 0 117.5 -51.5t44.5 -136.5q0 -89 -49.5 -181.5t-146.5 -185.5z" />
    <glyph glyph-name="palochkacyrillic" unicode="&#x4c0;" horiz-adv-x="664" 
d="M72 0v84l131 10l35 29v1128l-35 29l-131 12v82h520v-82l-131 -12l-35 -29v-1128l35 -29l131 -10v-84h-520z" />
    <glyph glyph-name="Aringbelow" unicode="&#x1e00;" horiz-adv-x="1309" 
d="M614 1176l-202 -568h413zM582 1391h135l491 -1282l123 -25v-84h-465v84l127 10l15 29l-148 391h-483l-146 -391l21 -29l133 -10v-84h-401v84l118 25zM656 -193q-62 0 -104.5 -43t-42.5 -106q0 -62 43 -105t104 -43q63 0 106.5 43t43.5 105q0 63 -43.5 106t-106.5 43z
M656 -101q102 0 172 -69t70 -170q0 -102 -70.5 -172t-171.5 -70t-170.5 70t-69.5 172q0 101 69.5 170t170.5 69z" />
    <glyph glyph-name="aringbelow" unicode="&#x1e01;" horiz-adv-x="1038" 
d="M684 188v361q-257 -71 -337.5 -130t-80.5 -155q0 -77 44.5 -122.5t119.5 -45.5q48 0 110.5 23t143.5 69zM684 119q-99 -68 -181.5 -100.5t-154.5 -32.5q-119 0 -190.5 72t-71.5 190q0 131 107.5 206t490.5 167v65q0 129 -42 179t-146 50q-39 0 -77 -8t-79 -24v-172h-141
q-37 0 -50.5 13.5t-13.5 49.5q0 100 115.5 166t298.5 66q161 0 234 -70t73 -225v-594l35 -33l108 -10v-74h-288zM541 -207q-62 0 -104.5 -43t-42.5 -106q0 -62 43 -105t104 -43q63 0 106.5 43t43.5 105q0 63 -43.5 106t-106.5 43zM541 -115q102 0 172 -69t70 -170
q0 -102 -70.5 -172t-171.5 -70t-170.5 70t-69.5 172q0 101 69.5 170t170.5 69z" />
    <glyph glyph-name="Bdotaccent" unicode="&#x1e02;" horiz-adv-x="1237" 
d="M404 102q37 -3 71 -4.5t66 -1.5q210 0 305.5 69.5t95.5 221.5q0 139 -83.5 207t-254.5 68q-40 0 -90.5 -3.5t-110.5 -9.5zM404 752q13 -1 29.5 -1.5t47.5 -0.5q194 0 284.5 68.5t90.5 215.5q0 125 -84 187.5t-252 62.5q-15 0 -53.5 -2.5t-63.5 -3.5zM68 1374h522
q237 0 353 -82t116 -250q0 -116 -74.5 -194.5t-222.5 -118.5q180 -2 280.5 -88.5t100.5 -239.5q0 -195 -137.5 -298t-397.5 -103h-540v84l116 10l35 29v1128l-35 29l-116 12v82zM604 1693q47 0 79 -31.5t32 -78.5q0 -46 -32 -76.5t-79 -30.5q-46 0 -77.5 31t-31.5 76
q0 46 31.5 78t77.5 32z" />
    <glyph glyph-name="bdotaccent" unicode="&#x1e03;" horiz-adv-x="1104" 
d="M346 94q32 -1 60.5 -1.5t52.5 -0.5q201 0 295 98.5t94 309.5q0 191 -83.5 294t-238.5 103q-36 0 -81 -8t-99 -25v-770zM268 1507h78v-573q76 36 145.5 54t135.5 18q181 0 293 -129.5t112 -337.5q0 -266 -150.5 -402.5t-443.5 -136.5h-264v1370h-158v64zM523 1826
q47 0 79 -31.5t32 -78.5q0 -46 -32 -76.5t-79 -30.5q-46 0 -77.5 31t-31.5 76q0 46 31.5 78t77.5 32z" />
    <glyph glyph-name="Bdotbelow" unicode="&#x1e04;" horiz-adv-x="1237" 
d="M404 102q37 -3 71 -4.5t66 -1.5q210 0 305.5 69.5t95.5 221.5q0 139 -83.5 207t-254.5 68q-40 0 -90.5 -3.5t-110.5 -9.5zM404 752q13 -1 29.5 -1.5t47.5 -0.5q194 0 284.5 68.5t90.5 215.5q0 125 -84 187.5t-252 62.5q-15 0 -53.5 -2.5t-63.5 -3.5zM68 1374h522
q237 0 353 -82t116 -250q0 -116 -74.5 -194.5t-222.5 -118.5q180 -2 280.5 -88.5t100.5 -239.5q0 -195 -137.5 -298t-397.5 -103h-540v84l116 10l35 29v1128l-35 29l-116 12v82zM604 -101q47 0 79 -31.5t32 -78.5q0 -46 -32 -76.5t-79 -30.5q-46 0 -77.5 31t-31.5 76
q0 46 31.5 78t77.5 32z" />
    <glyph glyph-name="bdotbelow" unicode="&#x1e05;" horiz-adv-x="1104" 
d="M346 94q32 -1 60.5 -1.5t52.5 -0.5q201 0 295 98.5t94 309.5q0 191 -83.5 294t-238.5 103q-36 0 -81 -8t-99 -25v-770zM268 1507h78v-573q76 36 145.5 54t135.5 18q181 0 293 -129.5t112 -337.5q0 -266 -150.5 -402.5t-443.5 -136.5h-264v1370h-158v64zM523 -101
q47 0 79 -31.5t32 -78.5q0 -46 -32 -76.5t-79 -30.5q-46 0 -77.5 31t-31.5 76q0 46 31.5 78t77.5 32z" />
    <glyph glyph-name="Blinebelow" unicode="&#x1e06;" horiz-adv-x="1237" 
d="M404 102q37 -3 71 -4.5t66 -1.5q210 0 305.5 69.5t95.5 221.5q0 139 -83.5 207t-254.5 68q-40 0 -90.5 -3.5t-110.5 -9.5zM404 752q13 -1 29.5 -1.5t47.5 -0.5q194 0 284.5 68.5t90.5 215.5q0 125 -84 187.5t-252 62.5q-15 0 -53.5 -2.5t-63.5 -3.5zM68 1374h522
q237 0 353 -82t116 -250q0 -116 -74.5 -194.5t-222.5 -118.5q180 -2 280.5 -88.5t100.5 -239.5q0 -195 -137.5 -298t-397.5 -103h-540v84l116 10l35 29v1128l-35 29l-116 12v82zM297 -101h616v-123h-616v123z" />
    <glyph glyph-name="blinebelow" unicode="&#x1e07;" horiz-adv-x="1104" 
d="M346 94q32 -1 60.5 -1.5t52.5 -0.5q201 0 295 98.5t94 309.5q0 191 -83.5 294t-238.5 103q-36 0 -81 -8t-99 -25v-770zM268 1507h78v-573q76 36 145.5 54t135.5 18q181 0 293 -129.5t112 -337.5q0 -266 -150.5 -402.5t-443.5 -136.5h-264v1370h-158v64zM216 -101h616
v-123h-616v123z" />
    <glyph glyph-name="Ddotaccent" unicode="&#x1e0a;" horiz-adv-x="1419" 
d="M403 1280v-1186h162q280 0 418.5 147.5t138.5 446.5t-137.5 445.5t-419.5 146.5h-162zM573 1374q360 0 558 -179.5t198 -506.5q0 -182 -64.5 -323.5t-191.5 -237.5q-90 -68 -203 -97.5t-297 -29.5h-505v84l116 10l35 29v1128l-35 29l-116 12v82h505zM697 1693
q47 0 79 -31.5t32 -78.5q0 -46 -32 -76.5t-79 -30.5q-46 0 -77.5 31t-31.5 76q0 46 31.5 78t77.5 32z" />
    <glyph glyph-name="ddotaccent" unicode="&#x1e0b;" horiz-adv-x="1157" 
d="M784 182v703q-56 16 -100.5 24.5t-79.5 8.5q-157 0 -253.5 -116t-96.5 -306q0 -177 83.5 -281t223.5 -104q54 0 109.5 17.5t113.5 53.5zM784 1370h-157v64l250 73h77v-1390l35 -33l98 -10v-74h-303v106q-80 -64 -156 -94t-159 -30q-172 0 -283.5 134.5t-111.5 344.5
q0 244 146.5 395.5t381.5 151.5q41 0 87 -6t95 -17v385zM579 1826q47 0 79 -31.5t32 -78.5q0 -46 -32 -76.5t-79 -30.5q-46 0 -77.5 31t-31.5 76q0 46 31.5 78t77.5 32z" />
    <glyph glyph-name="Ddotbelow" unicode="&#x1e0c;" horiz-adv-x="1419" 
d="M403 1280v-1186h162q280 0 418.5 147.5t138.5 446.5t-137.5 445.5t-419.5 146.5h-162zM573 1374q360 0 558 -179.5t198 -506.5q0 -182 -64.5 -323.5t-191.5 -237.5q-90 -68 -203 -97.5t-297 -29.5h-505v84l116 10l35 29v1128l-35 29l-116 12v82h505zM697 -101
q47 0 79 -31.5t32 -78.5q0 -46 -32 -76.5t-79 -30.5q-46 0 -77.5 31t-31.5 76q0 46 31.5 78t77.5 32z" />
    <glyph glyph-name="ddotbelow" unicode="&#x1e0d;" horiz-adv-x="1157" 
d="M784 182v703q-56 16 -100.5 24.5t-79.5 8.5q-157 0 -253.5 -116t-96.5 -306q0 -177 83.5 -281t223.5 -104q54 0 109.5 17.5t113.5 53.5zM784 1370h-157v64l250 73h77v-1390l35 -33l98 -10v-74h-303v106q-80 -64 -156 -94t-159 -30q-172 0 -283.5 134.5t-111.5 344.5
q0 244 146.5 395.5t381.5 151.5q41 0 87 -6t95 -17v385zM579 -119q47 0 79 -31.5t32 -78.5q0 -46 -32 -76.5t-79 -30.5q-46 0 -77.5 31t-31.5 76q0 46 31.5 78t77.5 32z" />
    <glyph glyph-name="Dlinebelow" unicode="&#x1e0e;" horiz-adv-x="1419" 
d="M403 1280v-1186h162q280 0 418.5 147.5t138.5 446.5t-137.5 445.5t-419.5 146.5h-162zM573 1374q360 0 558 -179.5t198 -506.5q0 -182 -64.5 -323.5t-191.5 -237.5q-90 -68 -203 -97.5t-297 -29.5h-505v84l116 10l35 29v1128l-35 29l-116 12v82h505zM390 -101h616v-123
h-616v123z" />
    <glyph glyph-name="dlinebelow" unicode="&#x1e0f;" horiz-adv-x="1157" 
d="M784 182v703q-56 16 -100.5 24.5t-79.5 8.5q-157 0 -253.5 -116t-96.5 -306q0 -177 83.5 -281t223.5 -104q54 0 109.5 17.5t113.5 53.5zM784 1370h-157v64l250 73h77v-1390l35 -33l98 -10v-74h-303v106q-80 -64 -156 -94t-159 -30q-172 0 -283.5 134.5t-111.5 344.5
q0 244 146.5 395.5t381.5 151.5q41 0 87 -6t95 -17v385zM272 -119h616v-123h-616v123z" />
    <glyph glyph-name="Dcommaaccent" unicode="&#x1e10;" horiz-adv-x="1419" 
d="M403 1280v-1186h162q280 0 418.5 147.5t138.5 446.5t-137.5 445.5t-419.5 146.5h-162zM573 1374q360 0 558 -179.5t198 -506.5q0 -182 -64.5 -323.5t-191.5 -237.5q-90 -68 -203 -97.5t-297 -29.5h-505v84l116 10l35 29v1128l-35 29l-116 12v82h505zM544 -562v54
q99 19 149.5 74.5t50.5 148.5v17h-116q-16 16 -23 34.5t-7 39.5q0 42 30 67.5t77 25.5q70 0 108 -44t38 -124q0 -112 -87 -196t-220 -97z" />
    <glyph glyph-name="dcommaaccent" unicode="&#x1e11;" horiz-adv-x="1157" 
d="M784 182v703q-56 16 -100.5 24.5t-79.5 8.5q-157 0 -253.5 -116t-96.5 -306q0 -177 83.5 -281t223.5 -104q54 0 109.5 17.5t113.5 53.5zM784 1370h-157v64l250 73h77v-1390l35 -33l98 -10v-74h-303v106q-80 -64 -156 -94t-159 -30q-172 0 -283.5 134.5t-111.5 344.5
q0 244 146.5 395.5t381.5 151.5q41 0 87 -6t95 -17v385zM426 -580v54q99 19 149.5 74.5t50.5 148.5v17h-116q-16 16 -23 34.5t-7 39.5q0 42 30 67.5t77 25.5q70 0 108 -44t38 -124q0 -112 -87 -196t-220 -97z" />
    <glyph glyph-name="Dcircumflexbelow" unicode="&#x1e12;" horiz-adv-x="1419" 
d="M403 1280v-1186h162q280 0 418.5 147.5t138.5 446.5t-137.5 445.5t-419.5 146.5h-162zM573 1374q360 0 558 -179.5t198 -506.5q0 -182 -64.5 -323.5t-191.5 -237.5q-90 -68 -203 -97.5t-297 -29.5h-505v84l116 10l35 29v1128l-35 29l-116 12v82h505zM632 -101h132
l225 -389h-111l-180 289l-178 -289h-113z" />
    <glyph glyph-name="dcircumflexbelow" unicode="&#x1e13;" horiz-adv-x="1157" 
d="M784 182v703q-56 16 -100.5 24.5t-79.5 8.5q-157 0 -253.5 -116t-96.5 -306q0 -177 83.5 -281t223.5 -104q54 0 109.5 17.5t113.5 53.5zM784 1370h-157v64l250 73h77v-1390l35 -33l98 -10v-74h-303v106q-80 -64 -156 -94t-159 -30q-172 0 -283.5 134.5t-111.5 344.5
q0 244 146.5 395.5t381.5 151.5q41 0 87 -6t95 -17v385zM514 -119h132l225 -389h-111l-180 289l-178 -289h-113z" />
    <glyph glyph-name="Emacrongrave" unicode="&#x1e14;" horiz-adv-x="1180" 
d="M68 0v84l116 10l35 29v1128l-35 29l-116 12v82h981v-299h-115l-29 174l-28 31h-474v-518h336l29 29l20 149h97v-451h-97l-20 148l-29 31h-336v-574h549l29 33l35 207h106v-334h-1054zM287 1599h616v-123h-616v123zM395 2090h203l198 -389h-102z" />
    <glyph glyph-name="emacrongrave" unicode="&#x1e15;" horiz-adv-x="1006" 
d="M735 625v32q0 124 -54.5 190t-158.5 66q-102 0 -176.5 -81.5t-83.5 -206.5h473zM918 217v-113q-91 -60 -189 -91t-197 -31q-203 0 -329.5 139.5t-126.5 363.5q0 230 132.5 375.5t340.5 145.5q170 0 269.5 -108.5t99.5 -295.5q0 -25 -0.5 -38t-2.5 -25h-663v-23
q0 -193 93 -305.5t251 -112.5q73 0 151.5 29t170.5 90zM190 1232h616v-123h-616v123zM297 1722h203l198 -389h-102z" />
    <glyph glyph-name="Emacronacute" unicode="&#x1e16;" horiz-adv-x="1180" 
d="M68 0v84l116 10l35 29v1128l-35 29l-116 12v82h981v-299h-115l-29 174l-28 31h-474v-518h336l29 29l20 149h97v-451h-97l-20 148l-29 31h-336v-574h549l29 33l35 207h106v-334h-1054zM287 1599h616v-123h-616v123zM594 2090h203l-299 -389h-103z" />
    <glyph glyph-name="emacronacute" unicode="&#x1e17;" horiz-adv-x="1006" 
d="M735 625v32q0 124 -54.5 190t-158.5 66q-102 0 -176.5 -81.5t-83.5 -206.5h473zM918 217v-113q-91 -60 -189 -91t-197 -31q-203 0 -329.5 139.5t-126.5 363.5q0 230 132.5 375.5t340.5 145.5q170 0 269.5 -108.5t99.5 -295.5q0 -25 -0.5 -38t-2.5 -25h-663v-23
q0 -193 93 -305.5t251 -112.5q73 0 151.5 29t170.5 90zM190 1232h616v-123h-616v123zM496 1722h203l-299 -389h-103z" />
    <glyph glyph-name="Ecircumflexbelow" unicode="&#x1e18;" horiz-adv-x="1180" 
d="M68 0v84l116 10l35 29v1128l-35 29l-116 12v82h981v-299h-115l-29 174l-28 31h-474v-518h336l29 29l20 149h97v-451h-97l-20 148l-29 31h-336v-574h549l29 33l35 207h106v-334h-1054zM529 -101h132l225 -389h-111l-180 289l-178 -289h-113z" />
    <glyph glyph-name="ecircumflexbelow" unicode="&#x1e19;" horiz-adv-x="1006" 
d="M735 625v32q0 124 -54.5 190t-158.5 66q-102 0 -176.5 -81.5t-83.5 -206.5h473zM918 217v-113q-91 -60 -189 -91t-197 -31q-203 0 -329.5 139.5t-126.5 363.5q0 230 132.5 375.5t340.5 145.5q170 0 269.5 -108.5t99.5 -295.5q0 -25 -0.5 -38t-2.5 -25h-663v-23
q0 -193 93 -305.5t251 -112.5q73 0 151.5 29t170.5 90zM432 -119h132l225 -389h-111l-180 289l-178 -289h-113z" />
    <glyph glyph-name="Etildebelow" unicode="&#x1e1a;" horiz-adv-x="1180" 
d="M68 0v84l116 10l35 29v1128l-35 29l-116 12v82h981v-299h-115l-29 174l-28 31h-474v-518h336l29 29l20 149h97v-451h-97l-20 148l-29 31h-336v-574h549l29 33l35 207h106v-334h-1054zM822 -101h84q0 -5 1 -15t1 -16q0 -96 -48.5 -156.5t-123.5 -60.5q-70 0 -171 53.5
t-124 53.5q-33 0 -53 -30t-20 -81q0 -4 1 -12t1 -12h-88v20q0 110 44.5 167.5t129.5 57.5q62 0 158.5 -53t123.5 -53q44 0 64 30t20 97v10z" />
    <glyph glyph-name="etildebelow" unicode="&#x1e1b;" horiz-adv-x="1006" 
d="M735 625v32q0 124 -54.5 190t-158.5 66q-102 0 -176.5 -81.5t-83.5 -206.5h473zM918 217v-113q-91 -60 -189 -91t-197 -31q-203 0 -329.5 139.5t-126.5 363.5q0 230 132.5 375.5t340.5 145.5q170 0 269.5 -108.5t99.5 -295.5q0 -25 -0.5 -38t-2.5 -25h-663v-23
q0 -193 93 -305.5t251 -112.5q73 0 151.5 29t170.5 90zM725 -119h84q0 -5 1 -15t1 -16q0 -96 -48.5 -156.5t-123.5 -60.5q-70 0 -171 53.5t-124 53.5q-33 0 -53 -30t-20 -81q0 -4 1 -12t1 -12h-88v20q0 110 44.5 167.5t129.5 57.5q62 0 158.5 -53t123.5 -53q44 0 64 30
t20 97v10z" />
    <glyph glyph-name="Ecedillabreve" unicode="&#x1e1c;" horiz-adv-x="1180" 
d="M68 0v84l116 10l35 29v1128l-35 29l-116 12v82h981v-299h-115l-29 174l-28 31h-474v-518h336l29 29l20 149h97v-451h-97l-20 148l-29 31h-336v-574h549l29 33l35 207h106v-334h-1054zM305 1767h80v-16q0 -80 47 -113t164 -33q115 0 161 33t46 113v16h82v-22
q0 -145 -66 -207t-223 -62q-159 0 -225 61t-66 208v22zM516 0h76v-124q9 0 18.5 0.5t22.5 0.5q72 0 113 -39t41 -108q0 -86 -65 -136.5t-177 -50.5q-33 0 -68 5.5t-73 15.5v74q32 -9 61.5 -13t58.5 -4q65 0 101.5 23.5t36.5 64.5q0 36 -27 56t-76 20q-7 0 -16 -1l-26 -3z
" />
    <glyph glyph-name="ecedillabreve" unicode="&#x1e1d;" horiz-adv-x="1006" 
d="M735 625v32q0 124 -54.5 190t-158.5 66q-102 0 -176.5 -81.5t-83.5 -206.5h473zM918 217v-113q-91 -60 -189 -91t-197 -31q-203 0 -329.5 139.5t-126.5 363.5q0 230 132.5 375.5t340.5 145.5q170 0 269.5 -108.5t99.5 -295.5q0 -25 -0.5 -38t-2.5 -25h-663v-23
q0 -193 93 -305.5t251 -112.5q73 0 151.5 29t170.5 90zM208 1400h80v-16q0 -80 47 -113t164 -33q115 0 161 33t46 113v16h82v-22q0 -145 -66 -207t-223 -62q-159 0 -225 61t-66 208v22zM419 -17h76v-124q9 0 18.5 0.5t22.5 0.5q72 0 113 -39t41 -108q0 -86 -65 -136.5
t-177 -50.5q-33 0 -68 5.5t-73 15.5v74q32 -9 61.5 -13t58.5 -4q65 0 101.5 23.5t36.5 64.5q0 36 -27 56t-76 20q-7 0 -16 -1l-26 -3z" />
    <glyph glyph-name="Fdotaccent" unicode="&#x1e1e;" horiz-adv-x="1100" 
d="M68 0v84l116 10l35 29v1128l-35 29l-133 12v82h983v-319h-112l-31 194l-27 31h-461v-539h336l29 29l20 150h97v-453h-97l-20 149l-29 31h-336v-524l35 -29l146 -10v-84h-516zM541 1693q47 0 79 -31.5t32 -78.5q0 -46 -32 -76.5t-79 -30.5q-46 0 -77.5 31t-31.5 76
q0 46 31.5 78t77.5 32z" />
    <glyph glyph-name="fdotaccent" unicode="&#x1e1f;" horiz-adv-x="657" 
d="M59 0v74l109 10l37 33v745h-131v66l131 30v23q0 247 114 395t302 148q69 0 114 -33.5t45 -83.5q0 -37 -22 -64.5t-62 -37.5l-186 122q-66 -30 -99.5 -110.5t-33.5 -208.5v-150h285v-96h-287v-745l35 -33l127 -10v-74h-478zM419 1843q47 0 79 -31.5t32 -78.5
q0 -46 -32 -76.5t-79 -30.5q-46 0 -77.5 31t-31.5 76q0 46 31.5 78t77.5 32z" />
    <glyph glyph-name="Gmacron" unicode="&#x1e20;" horiz-adv-x="1421" 
d="M854 659h512v-84l-113 -10l-34 -28v-490q-124 -36 -229.5 -54t-194.5 -18q-102 0 -191.5 21t-161.5 61q-165 94 -259.5 262t-94.5 369q0 326 199 518.5t536 192.5q93 0 192 -15t202 -45v-325h-115l-31 186l-29 37q-58 27 -115.5 40t-117.5 13q-237 0 -373.5 -157
t-136.5 -431q0 -287 141.5 -452.5t384.5 -165.5q47 0 99.5 6.5t109.5 20.5v426l-35 28l-145 10v84zM419 1624h616v-123h-616v123z" />
    <glyph glyph-name="gmacron" unicode="&#x1e21;" horiz-adv-x="1071" 
d="M422 61q-83 -25 -129.5 -78t-46.5 -122q0 -92 78 -152.5t200 -60.5q131 0 218 63t87 154q0 69 -38 102t-170 58zM504 926q-92 0 -146.5 -68.5t-54.5 -183.5q0 -114 55.5 -183t145.5 -69t145.5 69t55.5 183t-55 183t-146 69zM756 948h293v-96h-226q30 -45 44 -91t14 -99
q0 -141 -109 -230.5t-283 -89.5h-34q-12 -23 -17.5 -46t-5.5 -46q0 -7 2 -30q2 -13 2 -19l197 -31q192 -29 270 -86.5t78 -165.5q0 -59 -32.5 -120.5t-90.5 -108.5q-81 -66 -185 -100.5t-220 -34.5q-175 0 -273 70t-98 194q0 99 59 167t162 87q-10 24 -15 47t-5 45
q0 39 24 87t74 107q-117 26 -185.5 109.5t-68.5 200.5q0 151 109.5 244.5t287.5 93.5q59 0 116.5 -14.5t115.5 -43.5zM257 1232h616v-123h-616v123z" />
    <glyph glyph-name="Hdotaccent" unicode="&#x1e22;" horiz-adv-x="1511" 
d="M68 1374h497v-82l-127 -12l-35 -29v-483h705v483l-35 29l-127 12v82h498v-82l-117 -12l-35 -29v-1128l35 -29l117 -10v-84h-498v84l127 10l35 29v551h-705v-551l35 -29l127 -10v-84h-497v84l116 10l35 29v1128l-35 29l-116 12v82zM755 1693q47 0 79 -31.5t32 -78.5
q0 -46 -32 -76.5t-79 -30.5q-46 0 -77.5 31t-31.5 76q0 46 31.5 78t77.5 32z" />
    <glyph glyph-name="hdotaccent" unicode="&#x1e23;" horiz-adv-x="1155" 
d="M289 1507h78v-624q121 67 197.5 95t133.5 28q135 0 206 -80t71 -232v-577l35 -33l108 -10v-74h-446v74l96 10l35 33v542q0 115 -48 163t-159 48q-49 0 -106 -16.5t-123 -50.5v-686l36 -33l97 -10v-74h-449v74l111 10l35 33v1253h-158v64zM577 1826q47 0 79 -31.5
t32 -78.5q0 -46 -32 -76.5t-79 -30.5q-46 0 -77.5 31t-31.5 76q0 46 31.5 78t77.5 32z" />
    <glyph glyph-name="Hdotbelow" unicode="&#x1e24;" horiz-adv-x="1511" 
d="M68 1374h497v-82l-127 -12l-35 -29v-483h705v483l-35 29l-127 12v82h498v-82l-117 -12l-35 -29v-1128l35 -29l117 -10v-84h-498v84l127 10l35 29v551h-705v-551l35 -29l127 -10v-84h-497v84l116 10l35 29v1128l-35 29l-116 12v82zM755 -101q47 0 79 -31.5t32 -78.5
q0 -46 -32 -76.5t-79 -30.5q-46 0 -77.5 31t-31.5 76q0 46 31.5 78t77.5 32z" />
    <glyph glyph-name="hdotbelow" unicode="&#x1e25;" horiz-adv-x="1155" 
d="M289 1507h78v-624q121 67 197.5 95t133.5 28q135 0 206 -80t71 -232v-577l35 -33l108 -10v-74h-446v74l96 10l35 33v542q0 115 -48 163t-159 48q-49 0 -106 -16.5t-123 -50.5v-686l36 -33l97 -10v-74h-449v74l111 10l35 33v1253h-158v64zM577 -101q47 0 79 -31.5
t32 -78.5q0 -46 -32 -76.5t-79 -30.5q-46 0 -77.5 31t-31.5 76q0 46 31.5 78t77.5 32z" />
    <glyph glyph-name="Hdieresis" unicode="&#x1e26;" horiz-adv-x="1511" 
d="M68 1374h497v-82l-127 -12l-35 -29v-483h705v483l-35 29l-127 12v82h498v-82l-117 -12l-35 -29v-1128l35 -29l117 -10v-84h-498v84l127 10l35 29v551h-705v-551l35 -29l127 -10v-84h-497v84l116 10l35 29v1128l-35 29l-116 12v82zM947 1683q44 0 73.5 -30t29.5 -74
q0 -43 -30 -73t-73 -30t-73.5 30t-30.5 73q0 44 30.5 74t73.5 30zM567 1683q43 0 72.5 -30t29.5 -74q0 -43 -29.5 -73t-72.5 -30q-44 0 -74.5 30t-30.5 73q0 44 30.5 74t74.5 30z" />
    <glyph glyph-name="hdieresis" unicode="&#x1e27;" horiz-adv-x="1155" 
d="M289 1507h78v-624q121 67 197.5 95t133.5 28q135 0 206 -80t71 -232v-577l35 -33l108 -10v-74h-446v74l96 10l35 33v542q0 115 -48 163t-159 48q-49 0 -106 -16.5t-123 -50.5v-686l36 -33l97 -10v-74h-449v74l111 10l35 33v1253h-158v64zM769 1816q44 0 73.5 -30
t29.5 -74q0 -43 -30 -73t-73 -30t-73.5 30t-30.5 73q0 44 30.5 74t73.5 30zM389 1816q43 0 72.5 -30t29.5 -74q0 -43 -29.5 -73t-72.5 -30q-44 0 -74.5 30t-30.5 73q0 44 30.5 74t74.5 30z" />
    <glyph glyph-name="Hcedilla" unicode="&#x1e28;" horiz-adv-x="1511" 
d="M68 1374h497v-82l-127 -12l-35 -29v-483h705v483l-35 29l-127 12v82h498v-82l-117 -12l-35 -29v-1128l35 -29l117 -10v-84h-498v84l127 10l35 29v551h-705v-551l35 -29l127 -10v-84h-497v84l116 10l35 29v1128l-35 29l-116 12v82zM181 0h76v-124q9 0 18.5 0.5t22.5 0.5
q72 0 113 -39t41 -108q0 -86 -65 -136.5t-177 -50.5q-33 0 -68 5.5t-73 15.5v74q32 -9 61.5 -13t58.5 -4q65 0 101.5 23.5t36.5 64.5q0 36 -27 56t-76 20q-7 0 -16 -1l-26 -3z" />
    <glyph glyph-name="hcedilla" unicode="&#x1e29;" horiz-adv-x="1155" 
d="M289 1507h78v-624q121 67 197.5 95t133.5 28q135 0 206 -80t71 -232v-577l35 -33l108 -10v-74h-446v74l96 10l35 33v542q0 115 -48 163t-159 48q-49 0 -106 -16.5t-123 -50.5v-686l36 -33l97 -10v-74h-449v74l111 10l35 33v1253h-158v64zM152 0h76v-124q9 0 18.5 0.5
t22.5 0.5q72 0 113 -39t41 -108q0 -86 -65 -136.5t-177 -50.5q-33 0 -68 5.5t-73 15.5v74q32 -9 61.5 -13t58.5 -4q65 0 101.5 23.5t36.5 64.5q0 36 -27 56t-76 20q-7 0 -16 -1l-26 -3z" />
    <glyph glyph-name="Hbrevebelow" unicode="&#x1e2a;" horiz-adv-x="1511" 
d="M68 1374h497v-82l-127 -12l-35 -29v-483h705v483l-35 29l-127 12v82h498v-82l-117 -12l-35 -29v-1128l35 -29l117 -10v-84h-498v84l127 10l35 29v551h-705v-551l35 -29l127 -10v-84h-497v84l116 10l35 29v1128l-35 29l-116 12v82zM466 -101h80v-16q0 -80 47 -113t164 -33
q115 0 161 33t46 113v16h82v-22q0 -145 -66 -207t-223 -62q-159 0 -225 61t-66 208v22z" />
    <glyph glyph-name="hbrevebelow" unicode="&#x1e2b;" horiz-adv-x="1155" 
d="M289 1507h78v-624q121 67 197.5 95t133.5 28q135 0 206 -80t71 -232v-577l35 -33l108 -10v-74h-446v74l96 10l35 33v542q0 115 -48 163t-159 48q-49 0 -106 -16.5t-123 -50.5v-686l36 -33l97 -10v-74h-449v74l111 10l35 33v1253h-158v64zM288 -101h80v-16q0 -80 47 -113
t164 -33q115 0 161 33t46 113v16h82v-22q0 -145 -66 -207t-223 -62q-159 0 -225 61t-66 208v22z" />
    <glyph glyph-name="Itildebelow" unicode="&#x1e2c;" horiz-adv-x="664" 
d="M72 0v84l131 10l35 29v1128l-35 29l-131 12v82h520v-82l-131 -12l-35 -29v-1128l35 -29l131 -10v-84h-520zM560 -101h84q0 -5 1 -15t1 -16q0 -96 -48.5 -156.5t-123.5 -60.5q-70 0 -171 53.5t-124 53.5q-33 0 -53 -30t-20 -81q0 -4 1 -12t1 -12h-88v20q0 110 44.5 167.5
t129.5 57.5q62 0 158.5 -53t123.5 -53q44 0 64 30t20 97v10z" />
    <glyph glyph-name="itildebelow" unicode="&#x1e2d;" horiz-adv-x="573" 
d="M307 995h80v-878l35 -33l110 -10v-74h-460v74l108 10l35 33v741h-143v64zM315 1450q50 0 84.5 -35t34.5 -84t-34.5 -83t-84.5 -34q-49 0 -83.5 34t-34.5 83q0 50 34.5 84.5t83.5 34.5zM530 -101h84q0 -5 1 -15t1 -16q0 -96 -48.5 -156.5t-123.5 -60.5q-70 0 -171 53.5
t-124 53.5q-33 0 -53 -30t-20 -81q0 -4 1 -12t1 -12h-88v20q0 110 44.5 167.5t129.5 57.5q62 0 158.5 -53t123.5 -53q44 0 64 30t20 97v10z" />
    <glyph glyph-name="Idieresisacute" unicode="&#x1e2e;" horiz-adv-x="664" 
d="M72 0v84l131 10l35 29v1128l-35 29l-131 12v82h520v-82l-131 -12l-35 -29v-1128l35 -29l131 -10v-84h-520zM524 1683q44 0 73.5 -30t29.5 -74q0 -43 -30 -73t-73 -30t-73.5 30t-30.5 73q0 44 30.5 74t73.5 30zM144 1683q43 0 72.5 -30t29.5 -74q0 -43 -29.5 -73
t-72.5 -30q-44 0 -74.5 30t-30.5 73q0 44 30.5 74t74.5 30zM331 2174h203l-299 -389h-103z" />
    <glyph glyph-name="idieresisacute" unicode="&#x1e2f;" horiz-adv-x="573" 
d="M307 995h80v-878l35 -33l110 -10v-74h-460v74l108 10l35 33v741h-143v64zM494 1305q44 0 73.5 -30t29.5 -74q0 -43 -30 -73t-73 -30t-73.5 30t-30.5 73q0 44 30.5 74t73.5 30zM114 1305q43 0 72.5 -30t29.5 -74q0 -43 -29.5 -73t-72.5 -30q-44 0 -74.5 30t-30.5 73
q0 44 30.5 74t74.5 30zM301 1795h203l-299 -389h-103z" />
    <glyph glyph-name="Kacute" unicode="&#x1e30;" horiz-adv-x="1251" 
d="M68 0v84l116 10l35 29v1128l-35 29l-116 12v82h497v-82l-127 -12l-35 -29v-555h78l455 555l-12 29l-115 12v82h426v-82l-135 -18l-430 -512l465 -668l149 -10v-84h-338v61l-391 551h-152v-489l35 -29l127 -10v-84h-497zM674 1865h203l-299 -389h-103z" />
    <glyph glyph-name="kacute" unicode="&#x1e31;" horiz-adv-x="1059" 
d="M51 0v74l111 10l35 33v1253h-158v64l250 73h78v-985h39l313 350l-14 29l-93 8v76h389v-76l-131 -16l-280 -297l360 -508l131 -10v-78h-319v68l-277 397h-118v-348l36 -33l97 -10v-74h-449zM559 1998h203l-299 -389h-103z" />
    <glyph glyph-name="Kdotbelow" unicode="&#x1e32;" horiz-adv-x="1251" 
d="M68 0v84l116 10l35 29v1128l-35 29l-116 12v82h497v-82l-127 -12l-35 -29v-555h78l455 555l-12 29l-115 12v82h426v-82l-135 -18l-430 -512l465 -668l149 -10v-84h-338v61l-391 551h-152v-489l35 -29l127 -10v-84h-497zM675 -101q47 0 79 -31.5t32 -78.5q0 -46 -32 -76.5
t-79 -30.5q-46 0 -77.5 31t-31.5 76q0 46 31.5 78t77.5 32z" />
    <glyph glyph-name="kdotbelow" unicode="&#x1e33;" horiz-adv-x="1059" 
d="M51 0v74l111 10l35 33v1253h-158v64l250 73h78v-985h39l313 350l-14 29l-93 8v76h389v-76l-131 -16l-280 -297l360 -508l131 -10v-78h-319v68l-277 397h-118v-348l36 -33l97 -10v-74h-449zM559 -101q47 0 79 -31.5t32 -78.5q0 -46 -32 -76.5t-79 -30.5q-46 0 -77.5 31
t-31.5 76q0 46 31.5 78t77.5 32z" />
    <glyph glyph-name="Klinebelow" unicode="&#x1e34;" horiz-adv-x="1251" 
d="M68 0v84l116 10l35 29v1128l-35 29l-116 12v82h497v-82l-127 -12l-35 -29v-555h78l455 555l-12 29l-115 12v82h426v-82l-135 -18l-430 -512l465 -668l149 -10v-84h-338v61l-391 551h-152v-489l35 -29l127 -10v-84h-497zM368 -101h616v-123h-616v123z" />
    <glyph glyph-name="klinebelow" unicode="&#x1e35;" horiz-adv-x="1059" 
d="M51 0v74l111 10l35 33v1253h-158v64l250 73h78v-985h39l313 350l-14 29l-93 8v76h389v-76l-131 -16l-280 -297l360 -508l131 -10v-78h-319v68l-277 397h-118v-348l36 -33l97 -10v-74h-449zM252 -101h616v-123h-616v123z" />
    <glyph glyph-name="Ldotbelow" unicode="&#x1e36;" horiz-adv-x="1065" 
d="M55 0v84l129 10l35 29v1128l-35 29l-129 12v82h500v-82l-117 -12l-35 -29v-1157h463l29 33l35 246h106v-373h-981zM544 -101q47 0 79 -31.5t32 -78.5q0 -46 -32 -76.5t-79 -30.5q-46 0 -77.5 31t-31.5 76q0 46 31.5 78t77.5 32z" />
    <glyph glyph-name="ldotbelow" unicode="&#x1e37;" horiz-adv-x="578" 
d="M57 0v74l121 10l35 33v1253h-158v64l250 73h78v-1390l37 -33l117 -10v-74h-480zM296 -101q47 0 79 -31.5t32 -78.5q0 -46 -32 -76.5t-79 -30.5q-46 0 -77.5 31t-31.5 76q0 46 31.5 78t77.5 32z" />
    <glyph glyph-name="Ldotbelowmacron" unicode="&#x1e38;" horiz-adv-x="1065" 
d="M55 0v84l129 10l35 29v1128l-35 29l-129 12v82h500v-82l-117 -12l-35 -29v-1157h463l29 33l35 246h106v-373h-981zM544 -101q47 0 79 -31.5t32 -78.5q0 -46 -32 -76.5t-79 -30.5q-46 0 -77.5 31t-31.5 76q0 46 31.5 78t77.5 32zM237 1599h616v-123h-616v123z" />
    <glyph glyph-name="ldotbelowmacron" unicode="&#x1e39;" horiz-adv-x="578" 
d="M57 0v74l121 10l35 33v1253h-158v64l250 73h78v-1390l37 -33l117 -10v-74h-480zM296 -101q47 0 79 -31.5t32 -78.5q0 -46 -32 -76.5t-79 -30.5q-46 0 -77.5 31t-31.5 76q0 46 31.5 78t77.5 32zM-11 1732h616v-123h-616v123z" />
    <glyph glyph-name="Llinebelow" unicode="&#x1e3a;" horiz-adv-x="1065" 
d="M55 0v84l129 10l35 29v1128l-35 29l-129 12v82h500v-82l-117 -12l-35 -29v-1157h463l29 33l35 246h106v-373h-981zM237 -101h616v-123h-616v123z" />
    <glyph glyph-name="llinebelow" unicode="&#x1e3b;" horiz-adv-x="578" 
d="M57 0v74l121 10l35 33v1253h-158v64l250 73h78v-1390l37 -33l117 -10v-74h-480zM-11 -101h616v-123h-616v123z" />
    <glyph glyph-name="Lcircumflexbelow" unicode="&#x1e3c;" horiz-adv-x="1065" 
d="M55 0v84l129 10l35 29v1128l-35 29l-129 12v82h500v-82l-117 -12l-35 -29v-1157h463l29 33l35 246h106v-373h-981zM479 -101h132l225 -389h-111l-180 289l-178 -289h-113z" />
    <glyph glyph-name="lcircumflexbelow" unicode="&#x1e3d;" horiz-adv-x="578" 
d="M57 0v74l121 10l35 33v1253h-158v64l250 73h78v-1390l37 -33l117 -10v-74h-480zM231 -101h132l225 -389h-111l-180 289l-178 -289h-113z" />
    <glyph glyph-name="Macute" unicode="&#x1e3e;" horiz-adv-x="1774" 
d="M63 0v84l123 16l37 39v1112l-26 29l-136 12v82h435v-55l385 -1028l389 1020v63h438v-82l-129 -12l-25 -29v-1128l25 -29l129 -10v-84h-489v84l135 10l20 29v1155l-485 -1278h-88l-467 1257v-1118l37 -39l125 -16v-84h-433zM882 1865h203l-299 -389h-103z" />
    <glyph glyph-name="macute" unicode="&#x1e3f;" horiz-adv-x="1726" 
d="M930 868q118 70 205 104t147 34q124 0 193 -80.5t69 -225.5v-6v-577l37 -33l109 -10v-74h-447v74l96 10l37 33v542q0 109 -45 160t-139 51q-47 0 -104.5 -16.5t-126.5 -50.5v-686l36 -33l97 -10v-74h-437v74l99 10l35 33v542q0 108 -44.5 159.5t-136.5 51.5
q-50 0 -107.5 -16.5t-125.5 -50.5v-686l35 -33l98 -10v-74h-449v74l111 10l35 33v741h-146v64l238 73h78v-112q107 63 186.5 93t141.5 30q75 0 132.5 -35t92.5 -103zM873 1498h203l-299 -389h-103z" />
    <glyph glyph-name="Mdotaccent" unicode="&#x1e40;" horiz-adv-x="1774" 
d="M63 0v84l123 16l37 39v1112l-26 29l-136 12v82h435v-55l385 -1028l389 1020v63h438v-82l-129 -12l-25 -29v-1128l25 -29l129 -10v-84h-489v84l135 10l20 29v1155l-485 -1278h-88l-467 1257v-1118l37 -39l125 -16v-84h-433zM883 1693q47 0 79 -31.5t32 -78.5
q0 -46 -32 -76.5t-79 -30.5q-46 0 -77.5 31t-31.5 76q0 46 31.5 78t77.5 32z" />
    <glyph glyph-name="mdotaccent" unicode="&#x1e41;" horiz-adv-x="1726" 
d="M930 868q118 70 205 104t147 34q124 0 193 -80.5t69 -225.5v-6v-577l37 -33l109 -10v-74h-447v74l96 10l37 33v542q0 109 -45 160t-139 51q-47 0 -104.5 -16.5t-126.5 -50.5v-686l36 -33l97 -10v-74h-437v74l99 10l35 33v542q0 108 -44.5 159.5t-136.5 51.5
q-50 0 -107.5 -16.5t-125.5 -50.5v-686l35 -33l98 -10v-74h-449v74l111 10l35 33v741h-146v64l238 73h78v-112q107 63 186.5 93t141.5 30q75 0 132.5 -35t92.5 -103zM874 1326q47 0 79 -31.5t32 -78.5q0 -46 -32 -76.5t-79 -30.5q-46 0 -77.5 31t-31.5 76q0 46 31.5 78
t77.5 32z" />
    <glyph glyph-name="Mdotbelow" unicode="&#x1e42;" horiz-adv-x="1774" 
d="M63 0v84l123 16l37 39v1112l-26 29l-136 12v82h435v-55l385 -1028l389 1020v63h438v-82l-129 -12l-25 -29v-1128l25 -29l129 -10v-84h-489v84l135 10l20 29v1155l-485 -1278h-88l-467 1257v-1118l37 -39l125 -16v-84h-433zM883 -101q47 0 79 -31.5t32 -78.5
q0 -46 -32 -76.5t-79 -30.5q-46 0 -77.5 31t-31.5 76q0 46 31.5 78t77.5 32z" />
    <glyph glyph-name="mdotbelow" unicode="&#x1e43;" horiz-adv-x="1726" 
d="M930 868q118 70 205 104t147 34q124 0 193 -80.5t69 -225.5v-6v-577l37 -33l109 -10v-74h-447v74l96 10l37 33v542q0 109 -45 160t-139 51q-47 0 -104.5 -16.5t-126.5 -50.5v-686l36 -33l97 -10v-74h-437v74l99 10l35 33v542q0 108 -44.5 159.5t-136.5 51.5
q-50 0 -107.5 -16.5t-125.5 -50.5v-686l35 -33l98 -10v-74h-449v74l111 10l35 33v741h-146v64l238 73h78v-112q107 63 186.5 93t141.5 30q75 0 132.5 -35t92.5 -103zM874 -101q47 0 79 -31.5t32 -78.5q0 -46 -32 -76.5t-79 -30.5q-46 0 -77.5 31t-31.5 76q0 46 31.5 78
t77.5 32z" />
    <glyph glyph-name="Ndotaccent" unicode="&#x1e44;" horiz-adv-x="1460" 
d="M59 0v84l125 16l37 39v1112l-37 29l-131 12v82h385v-51l699 -1049v963l-37 37l-123 18v82h430v-82l-123 -18l-37 -37v-1237h-135l-780 1163v-1024l37 -39l123 -16v-84h-433zM729 1693q47 0 79 -31.5t32 -78.5q0 -46 -32 -76.5t-79 -30.5q-46 0 -77.5 31t-31.5 76
q0 46 31.5 78t77.5 32z" />
    <glyph glyph-name="ndotaccent" unicode="&#x1e45;" horiz-adv-x="1163" 
d="M61 0v74l111 10l35 33v741h-146v64l238 73h78v-112q123 68 198 95.5t132 27.5q134 0 205 -80t71 -232v-577l35 -33l110 -10v-74h-448v74l98 10l35 33v542q0 115 -47.5 163t-159.5 48q-49 0 -106 -16.5t-123 -50.5v-686l35 -33l98 -10v-74h-449zM593 1326q47 0 79 -31.5
t32 -78.5q0 -46 -32 -76.5t-79 -30.5q-46 0 -77.5 31t-31.5 76q0 46 31.5 78t77.5 32z" />
    <glyph glyph-name="Ndotbelow" unicode="&#x1e46;" horiz-adv-x="1460" 
d="M59 0v84l125 16l37 39v1112l-37 29l-131 12v82h385v-51l699 -1049v963l-37 37l-123 18v82h430v-82l-123 -18l-37 -37v-1237h-135l-780 1163v-1024l37 -39l123 -16v-84h-433zM729 -101q47 0 79 -31.5t32 -78.5q0 -46 -32 -76.5t-79 -30.5q-46 0 -77.5 31t-31.5 76
q0 46 31.5 78t77.5 32z" />
    <glyph glyph-name="ndotbelow" unicode="&#x1e47;" horiz-adv-x="1163" 
d="M61 0v74l111 10l35 33v741h-146v64l238 73h78v-112q123 68 198 95.5t132 27.5q134 0 205 -80t71 -232v-577l35 -33l110 -10v-74h-448v74l98 10l35 33v542q0 115 -47.5 163t-159.5 48q-49 0 -106 -16.5t-123 -50.5v-686l35 -33l98 -10v-74h-449zM593 -101q47 0 79 -31.5
t32 -78.5q0 -46 -32 -76.5t-79 -30.5q-46 0 -77.5 31t-31.5 76q0 46 31.5 78t77.5 32z" />
    <glyph glyph-name="Nlinebelow" unicode="&#x1e48;" horiz-adv-x="1460" 
d="M59 0v84l125 16l37 39v1112l-37 29l-131 12v82h385v-51l699 -1049v963l-37 37l-123 18v82h430v-82l-123 -18l-37 -37v-1237h-135l-780 1163v-1024l37 -39l123 -16v-84h-433zM422 -101h616v-123h-616v123z" />
    <glyph glyph-name="nlinebelow" unicode="&#x1e49;" horiz-adv-x="1163" 
d="M61 0v74l111 10l35 33v741h-146v64l238 73h78v-112q123 68 198 95.5t132 27.5q134 0 205 -80t71 -232v-577l35 -33l110 -10v-74h-448v74l98 10l35 33v542q0 115 -47.5 163t-159.5 48q-49 0 -106 -16.5t-123 -50.5v-686l35 -33l98 -10v-74h-449zM286 -101h616v-123h-616
v123z" />
    <glyph glyph-name="Ncircumflexbelow" unicode="&#x1e4a;" horiz-adv-x="1460" 
d="M59 0v84l125 16l37 39v1112l-37 29l-131 12v82h385v-51l699 -1049v963l-37 37l-123 18v82h430v-82l-123 -18l-37 -37v-1237h-135l-780 1163v-1024l37 -39l123 -16v-84h-433zM664 -101h132l225 -389h-111l-180 289l-178 -289h-113z" />
    <glyph glyph-name="ncircumflexbelow" unicode="&#x1e4b;" horiz-adv-x="1163" 
d="M61 0v74l111 10l35 33v741h-146v64l238 73h78v-112q123 68 198 95.5t132 27.5q134 0 205 -80t71 -232v-577l35 -33l110 -10v-74h-448v74l98 10l35 33v542q0 115 -47.5 163t-159.5 48q-49 0 -106 -16.5t-123 -50.5v-686l35 -33l98 -10v-74h-449zM528 -101h132l225 -389
h-111l-180 289l-178 -289h-113z" />
    <glyph glyph-name="Otildeacute" unicode="&#x1e4c;" horiz-adv-x="1497" 
d="M750 1298q-206 0 -327.5 -164.5t-121.5 -445.5q0 -280 122.5 -446t326.5 -166q202 0 324 166.5t122 445.5t-122 444.5t-324 165.5zM750 1409q131 0 244 -45t206 -135q104 -101 157.5 -238t53.5 -303q0 -114 -26 -215t-78 -190q-87 -149 -234 -232.5t-323 -83.5
q-131 0 -246.5 45t-204.5 131q-104 101 -157.5 239t-53.5 306q0 167 53 304t156 237q92 89 206.5 134.5t246.5 45.5zM976 1787h84q0 -5 1 -15t1 -16q0 -96 -48.5 -156.5t-123.5 -60.5q-70 0 -171 53.5t-124 53.5q-33 0 -53 -30t-20 -81q0 -4 1 -12t1 -12h-88v20
q0 110 44.5 167.5t129.5 57.5q62 0 158.5 -53t123.5 -53q44 0 64 30t20 97v10zM747 2278h203l-299 -389h-103z" />
    <glyph glyph-name="otildeacute" unicode="&#x1e4d;" horiz-adv-x="1104" 
d="M551 918q-128 0 -205.5 -115.5t-77.5 -308.5t78 -308.5t205 -115.5q129 0 207 115t78 309q0 192 -78.5 308t-206.5 116zM551 1006q209 0 343 -143.5t134 -368.5t-134.5 -368.5t-342.5 -143.5t-341.5 143t-133.5 369t132.5 369t342.5 143zM779 1385h84q0 -5 1 -15t1 -16
q0 -96 -48.5 -156.5t-123.5 -60.5q-70 0 -171 53.5t-124 53.5q-33 0 -53 -30t-20 -81q0 -4 1 -12t1 -12h-88v20q0 110 44.5 167.5t129.5 57.5q62 0 158.5 -53t123.5 -53q44 0 64 30t20 97v10zM551 1875h203l-299 -389h-103z" />
    <glyph glyph-name="Otildedieresis" unicode="&#x1e4e;" horiz-adv-x="1497" 
d="M750 1298q-206 0 -327.5 -164.5t-121.5 -445.5q0 -280 122.5 -446t326.5 -166q202 0 324 166.5t122 445.5t-122 444.5t-324 165.5zM750 1409q131 0 244 -45t206 -135q104 -101 157.5 -238t53.5 -303q0 -114 -26 -215t-78 -190q-87 -149 -234 -232.5t-323 -83.5
q-131 0 -246.5 45t-204.5 131q-104 101 -157.5 239t-53.5 306q0 167 53 304t156 237q92 89 206.5 134.5t246.5 45.5zM976 1787h84q0 -5 1 -15t1 -16q0 -96 -48.5 -156.5t-123.5 -60.5q-70 0 -171 53.5t-124 53.5q-33 0 -53 -30t-20 -81q0 -4 1 -12t1 -12h-88v20
q0 110 44.5 167.5t129.5 57.5q62 0 158.5 -53t123.5 -53q44 0 64 30t20 97v10zM940 2096q44 0 73.5 -30t29.5 -74q0 -43 -30 -73t-73 -30t-73.5 30t-30.5 73q0 44 30.5 74t73.5 30zM560 2096q43 0 72.5 -30t29.5 -74q0 -43 -29.5 -73t-72.5 -30q-44 0 -74.5 30t-30.5 73
q0 44 30.5 74t74.5 30z" />
    <glyph glyph-name="otildedieresis" unicode="&#x1e4f;" horiz-adv-x="1104" 
d="M551 918q-128 0 -205.5 -115.5t-77.5 -308.5t78 -308.5t205 -115.5q129 0 207 115t78 309q0 192 -78.5 308t-206.5 116zM551 1006q209 0 343 -143.5t134 -368.5t-134.5 -368.5t-342.5 -143.5t-341.5 143t-133.5 369t132.5 369t342.5 143zM779 1385h84q0 -5 1 -15t1 -16
q0 -96 -48.5 -156.5t-123.5 -60.5q-70 0 -171 53.5t-124 53.5q-33 0 -53 -30t-20 -81q0 -4 1 -12t1 -12h-88v20q0 110 44.5 167.5t129.5 57.5q62 0 158.5 -53t123.5 -53q44 0 64 30t20 97v10zM743 1693q44 0 73.5 -30t29.5 -74q0 -43 -30 -73t-73 -30t-73.5 30t-30.5 73
q0 44 30.5 74t73.5 30zM363 1693q43 0 72.5 -30t29.5 -74q0 -43 -29.5 -73t-72.5 -30q-44 0 -74.5 30t-30.5 73q0 44 30.5 74t74.5 30z" />
    <glyph glyph-name="Omacrongrave" unicode="&#x1e50;" horiz-adv-x="1497" 
d="M750 1298q-206 0 -327.5 -164.5t-121.5 -445.5q0 -280 122.5 -446t326.5 -166q202 0 324 166.5t122 445.5t-122 444.5t-324 165.5zM750 1409q131 0 244 -45t206 -135q104 -101 157.5 -238t53.5 -303q0 -114 -26 -215t-78 -190q-87 -149 -234 -232.5t-323 -83.5
q-131 0 -246.5 45t-204.5 131q-104 101 -157.5 239t-53.5 306q0 167 53 304t156 237q92 89 206.5 134.5t246.5 45.5zM441 1634h616v-123h-616v123zM549 2125h203l198 -389h-102z" />
    <glyph glyph-name="omacrongrave" unicode="&#x1e51;" horiz-adv-x="1104" 
d="M551 918q-128 0 -205.5 -115.5t-77.5 -308.5t78 -308.5t205 -115.5q129 0 207 115t78 309q0 192 -78.5 308t-206.5 116zM551 1006q209 0 343 -143.5t134 -368.5t-134.5 -368.5t-342.5 -143.5t-341.5 143t-133.5 369t132.5 369t342.5 143zM244 1232h616v-123h-616v123z
M352 1722h203l198 -389h-102z" />
    <glyph glyph-name="Omacronacute" unicode="&#x1e52;" horiz-adv-x="1497" 
d="M750 1298q-206 0 -327.5 -164.5t-121.5 -445.5q0 -280 122.5 -446t326.5 -166q202 0 324 166.5t122 445.5t-122 444.5t-324 165.5zM750 1409q131 0 244 -45t206 -135q104 -101 157.5 -238t53.5 -303q0 -114 -26 -215t-78 -190q-87 -149 -234 -232.5t-323 -83.5
q-131 0 -246.5 45t-204.5 131q-104 101 -157.5 239t-53.5 306q0 167 53 304t156 237q92 89 206.5 134.5t246.5 45.5zM441 1634h616v-123h-616v123zM747 2125h203l-299 -389h-103z" />
    <glyph glyph-name="omacronacute" unicode="&#x1e53;" horiz-adv-x="1104" 
d="M551 918q-128 0 -205.5 -115.5t-77.5 -308.5t78 -308.5t205 -115.5q129 0 207 115t78 309q0 192 -78.5 308t-206.5 116zM551 1006q209 0 343 -143.5t134 -368.5t-134.5 -368.5t-342.5 -143.5t-341.5 143t-133.5 369t132.5 369t342.5 143zM244 1232h616v-123h-616v123z
M551 1722h203l-299 -389h-103z" />
    <glyph glyph-name="Pacute" unicode="&#x1e54;" horiz-adv-x="1143" 
d="M403 625q56 -6 86.5 -8.5t49.5 -2.5q175 0 266.5 89t91.5 258q0 163 -94.5 241t-292.5 78q-42 0 -64.5 -1t-42.5 -3v-651zM68 0v84l116 10l35 29v1128l-35 29l-133 12v82h467q308 0 438.5 -97t130.5 -321q0 -200 -143.5 -320t-386.5 -120q-25 0 -61 2.5t-92 7.5l-1 -403
l35 -29l146 -10v-84h-516zM568 1865h203l-299 -389h-103z" />
    <glyph glyph-name="pacute" unicode="&#x1e55;" horiz-adv-x="1128" 
d="M362 119q50 -17 93.5 -25t81.5 -8q152 0 246 113.5t94 300.5q0 173 -81.5 275t-217.5 102q-49 0 -101 -17t-115 -53v-688zM47 -446v73l111 11l32 32v1188h-143v64l238 73h77v-112q84 63 157.5 93t144.5 30q172 0 282.5 -134t110.5 -346q0 -241 -138 -386.5t-366 -145.5
q-39 0 -86 4.5t-104 13.5l-1 -342l35 -32l131 -11v-73h-481zM551 1498h203l-299 -389h-103z" />
    <glyph glyph-name="Pdotaccent" unicode="&#x1e56;" horiz-adv-x="1143" 
d="M403 625q56 -6 86.5 -8.5t49.5 -2.5q175 0 266.5 89t91.5 258q0 163 -94.5 241t-292.5 78q-42 0 -64.5 -1t-42.5 -3v-651zM68 0v84l116 10l35 29v1128l-35 29l-133 12v82h467q308 0 438.5 -97t130.5 -321q0 -200 -143.5 -320t-386.5 -120q-25 0 -61 2.5t-92 7.5l-1 -403
l35 -29l146 -10v-84h-516zM568 1693q47 0 79 -31.5t32 -78.5q0 -46 -32 -76.5t-79 -30.5q-46 0 -77.5 31t-31.5 76q0 46 31.5 78t77.5 32z" />
    <glyph glyph-name="pdotaccent" unicode="&#x1e57;" horiz-adv-x="1128" 
d="M362 119q50 -17 93.5 -25t81.5 -8q152 0 246 113.5t94 300.5q0 173 -81.5 275t-217.5 102q-49 0 -101 -17t-115 -53v-688zM47 -446v73l111 11l32 32v1188h-143v64l238 73h77v-112q84 63 157.5 93t144.5 30q172 0 282.5 -134t110.5 -346q0 -241 -138 -386.5t-366 -145.5
q-39 0 -86 4.5t-104 13.5l-1 -342l35 -32l131 -11v-73h-481zM551 1326q47 0 79 -31.5t32 -78.5q0 -46 -32 -76.5t-79 -30.5q-46 0 -77.5 31t-31.5 76q0 46 31.5 78t77.5 32z" />
    <glyph glyph-name="Rdotaccent" unicode="&#x1e58;" horiz-adv-x="1323" 
d="M403 1280v-571q31 -1 59 -1.5t54 -0.5q190 0 276.5 67t86.5 215q0 153 -89 222t-288 69h-99zM68 1374h522q251 0 372 -90.5t121 -277.5q0 -133 -83 -218.5t-248 -121.5q77 -21 129 -54.5t82 -83.5q34 -55 58 -161.5t38 -141.5q31 -84 85 -114.5t181 -30.5h18v-78
q-46 -9 -85 -13.5t-74 -4.5q-71 0 -121.5 14.5t-85.5 44.5q-73 64 -121 250q-18 67 -29 100q-41 125 -110.5 173t-210.5 48q-30 0 -96 -3l-7 -1v-487l35 -29l117 -10v-84h-487v84l116 10l35 29v1128l-35 29l-116 12v82zM704 1693q47 0 79 -31.5t32 -78.5q0 -46 -32 -76.5
t-79 -30.5q-46 0 -77.5 31t-31.5 76q0 46 31.5 78t77.5 32z" />
    <glyph glyph-name="rdotaccent" unicode="&#x1e59;" horiz-adv-x="782" 
d="M61 0v74l109 10l35 33v741h-144v64l238 73h78v-192q50 51 104.5 100.5t114.5 97.5q9 3 19.5 4t31.5 1q31 0 61 -6.5t62 -20.5v-176h-65q-20 24 -46.5 36.5t-58.5 12.5q-49 0 -103.5 -36.5t-119.5 -113.5v-585l35 -33l143 -10v-74h-494zM415 1326q47 0 79 -31.5t32 -78.5
q0 -46 -32 -76.5t-79 -30.5q-46 0 -77.5 31t-31.5 76q0 46 31.5 78t77.5 32z" />
    <glyph glyph-name="Rdotbelow" unicode="&#x1e5a;" horiz-adv-x="1323" 
d="M403 1280v-571q31 -1 59 -1.5t54 -0.5q190 0 276.5 67t86.5 215q0 153 -89 222t-288 69h-99zM68 1374h522q251 0 372 -90.5t121 -277.5q0 -133 -83 -218.5t-248 -121.5q77 -21 129 -54.5t82 -83.5q34 -55 58 -161.5t38 -141.5q31 -84 85 -114.5t181 -30.5h18v-78
q-46 -9 -85 -13.5t-74 -4.5q-71 0 -121.5 14.5t-85.5 44.5q-73 64 -121 250q-18 67 -29 100q-41 125 -110.5 173t-210.5 48q-30 0 -96 -3l-7 -1v-487l35 -29l117 -10v-84h-487v84l116 10l35 29v1128l-35 29l-116 12v82zM704 -117q47 0 79 -31.5t32 -78.5q0 -46 -32 -76.5
t-79 -30.5q-46 0 -77.5 31t-31.5 76q0 46 31.5 78t77.5 32z" />
    <glyph glyph-name="rdotbelow" unicode="&#x1e5b;" horiz-adv-x="782" 
d="M61 0v74l109 10l35 33v741h-144v64l238 73h78v-192q50 51 104.5 100.5t114.5 97.5q9 3 19.5 4t31.5 1q31 0 61 -6.5t62 -20.5v-176h-65q-20 24 -46.5 36.5t-58.5 12.5q-49 0 -103.5 -36.5t-119.5 -113.5v-585l35 -33l143 -10v-74h-494zM415 -101q47 0 79 -31.5t32 -78.5
q0 -46 -32 -76.5t-79 -30.5q-46 0 -77.5 31t-31.5 76q0 46 31.5 78t77.5 32z" />
    <glyph glyph-name="Rdotbelowmacron" unicode="&#x1e5c;" horiz-adv-x="1323" 
d="M403 1280v-571q31 -1 59 -1.5t54 -0.5q190 0 276.5 67t86.5 215q0 153 -89 222t-288 69h-99zM68 1374h522q251 0 372 -90.5t121 -277.5q0 -133 -83 -218.5t-248 -121.5q77 -21 129 -54.5t82 -83.5q34 -55 58 -161.5t38 -141.5q31 -84 85 -114.5t181 -30.5h18v-78
q-46 -9 -85 -13.5t-74 -4.5q-71 0 -121.5 14.5t-85.5 44.5q-73 64 -121 250q-18 67 -29 100q-41 125 -110.5 173t-210.5 48q-30 0 -96 -3l-7 -1v-487l35 -29l117 -10v-84h-487v84l116 10l35 29v1128l-35 29l-116 12v82zM397 1599h616v-123h-616v123zM704 -117q47 0 79 -31.5
t32 -78.5q0 -46 -32 -76.5t-79 -30.5q-46 0 -77.5 31t-31.5 76q0 46 31.5 78t77.5 32z" />
    <glyph glyph-name="rdotbelowmacron" unicode="&#x1e5d;" horiz-adv-x="782" 
d="M61 0v74l109 10l35 33v741h-144v64l238 73h78v-192q50 51 104.5 100.5t114.5 97.5q9 3 19.5 4t31.5 1q31 0 61 -6.5t62 -20.5v-176h-65q-20 24 -46.5 36.5t-58.5 12.5q-49 0 -103.5 -36.5t-119.5 -113.5v-585l35 -33l143 -10v-74h-494zM108 1232h616v-123h-616v123z
M415 -101q47 0 79 -31.5t32 -78.5q0 -46 -32 -76.5t-79 -30.5q-46 0 -77.5 31t-31.5 76q0 46 31.5 78t77.5 32z" />
    <glyph glyph-name="Rlinebelow" unicode="&#x1e5e;" horiz-adv-x="1323" 
d="M403 1280v-571q31 -1 59 -1.5t54 -0.5q190 0 276.5 67t86.5 215q0 153 -89 222t-288 69h-99zM68 1374h522q251 0 372 -90.5t121 -277.5q0 -133 -83 -218.5t-248 -121.5q77 -21 129 -54.5t82 -83.5q34 -55 58 -161.5t38 -141.5q31 -84 85 -114.5t181 -30.5h18v-78
q-46 -9 -85 -13.5t-74 -4.5q-71 0 -121.5 14.5t-85.5 44.5q-73 64 -121 250q-18 67 -29 100q-41 125 -110.5 173t-210.5 48q-30 0 -96 -3l-7 -1v-487l35 -29l117 -10v-84h-487v84l116 10l35 29v1128l-35 29l-116 12v82zM397 -117h616v-123h-616v123z" />
    <glyph glyph-name="rlinebelow" unicode="&#x1e5f;" horiz-adv-x="782" 
d="M61 0v74l109 10l35 33v741h-144v64l238 73h78v-192q50 51 104.5 100.5t114.5 97.5q9 3 19.5 4t31.5 1q31 0 61 -6.5t62 -20.5v-176h-65q-20 24 -46.5 36.5t-58.5 12.5q-49 0 -103.5 -36.5t-119.5 -113.5v-585l35 -33l143 -10v-74h-494zM108 -101h616v-123h-616v123z" />
    <glyph glyph-name="Sdotaccent" unicode="&#x1e60;" horiz-adv-x="1139" 
d="M123 41v360h121l24 -235l27 -35q45 -23 103 -35t126 -12q143 0 226.5 66.5t83.5 179.5q0 157 -294 282l-49 21q-210 91 -278 169.5t-68 203.5q0 176 129.5 284.5t343.5 108.5q86 0 172.5 -14.5t176.5 -43.5v-317h-107l-31 195l-30 34q-39 22 -85 32.5t-100 10.5
q-128 0 -203 -66.5t-75 -180.5q0 -83 52.5 -137.5t234.5 -131.5l51 -20q179 -70 258 -148q45 -44 67.5 -101t22.5 -124q0 -185 -145 -298.5t-385 -113.5q-107 0 -201.5 17t-167.5 49zM571 1718q47 0 79 -31.5t32 -78.5q0 -46 -32 -76.5t-79 -30.5q-46 0 -77.5 31t-31.5 76
q0 46 31.5 78t77.5 32z" />
    <glyph glyph-name="sdotaccent" unicode="&#x1e61;" horiz-adv-x="819" 
d="M705 961v-232h-101l-16 145q-41 22 -78 33t-74 11q-80 0 -125 -39t-45 -109q0 -57 36 -97t138 -89q16 -8 49 -23q116 -53 168 -96q38 -30 58 -75.5t20 -100.5q0 -144 -101.5 -225.5t-281.5 -81.5q-74 0 -141.5 10.5t-124.5 32.5v266h98l25 -174q43 -25 86.5 -37t87.5 -12
q87 0 139.5 45.5t52.5 119.5q0 62 -36 102.5t-172 102.5q-154 69 -209.5 130t-55.5 151q0 137 95 212t268 75q69 0 128.5 -11.5t111.5 -33.5zM410 1326q47 0 79 -31.5t32 -78.5q0 -46 -32 -76.5t-79 -30.5q-46 0 -77.5 31t-31.5 76q0 46 31.5 78t77.5 32z" />
    <glyph glyph-name="Sdotbelow" unicode="&#x1e62;" horiz-adv-x="1139" 
d="M123 41v360h121l24 -235l27 -35q45 -23 103 -35t126 -12q143 0 226.5 66.5t83.5 179.5q0 157 -294 282l-49 21q-210 91 -278 169.5t-68 203.5q0 176 129.5 284.5t343.5 108.5q86 0 172.5 -14.5t176.5 -43.5v-317h-107l-31 195l-30 34q-39 22 -85 32.5t-100 10.5
q-128 0 -203 -66.5t-75 -180.5q0 -83 52.5 -137.5t234.5 -131.5l51 -20q179 -70 258 -148q45 -44 67.5 -101t22.5 -124q0 -185 -145 -298.5t-385 -113.5q-107 0 -201.5 17t-167.5 49zM571 -126q47 0 79 -31.5t32 -78.5q0 -46 -32 -76.5t-79 -30.5q-46 0 -77.5 31t-31.5 76
q0 46 31.5 78t77.5 32z" />
    <glyph glyph-name="sdotbelow" unicode="&#x1e63;" horiz-adv-x="819" 
d="M705 961v-232h-101l-16 145q-41 22 -78 33t-74 11q-80 0 -125 -39t-45 -109q0 -57 36 -97t138 -89q16 -8 49 -23q116 -53 168 -96q38 -30 58 -75.5t20 -100.5q0 -144 -101.5 -225.5t-281.5 -81.5q-74 0 -141.5 10.5t-124.5 32.5v266h98l25 -174q43 -25 86.5 -37t87.5 -12
q87 0 139.5 45.5t52.5 119.5q0 62 -36 102.5t-172 102.5q-154 69 -209.5 130t-55.5 151q0 137 95 212t268 75q69 0 128.5 -11.5t111.5 -33.5zM410 -119q47 0 79 -31.5t32 -78.5q0 -46 -32 -76.5t-79 -30.5q-46 0 -77.5 31t-31.5 76q0 46 31.5 78t77.5 32z" />
    <glyph glyph-name="Sacutedotaccent" unicode="&#x1e64;" horiz-adv-x="1139" 
d="M123 41v360h121l24 -235l27 -35q45 -23 103 -35t126 -12q143 0 226.5 66.5t83.5 179.5q0 157 -294 282l-49 21q-210 91 -278 169.5t-68 203.5q0 176 129.5 284.5t343.5 108.5q86 0 172.5 -14.5t176.5 -43.5v-317h-107l-31 195l-30 34q-39 22 -85 32.5t-100 10.5
q-128 0 -203 -66.5t-75 -180.5q0 -83 52.5 -137.5t234.5 -131.5l51 -20q179 -70 258 -148q45 -44 67.5 -101t22.5 -124q0 -185 -145 -298.5t-385 -113.5q-107 0 -201.5 17t-167.5 49zM571 1890h203l-299 -389h-103zM571 2209q47 0 79 -31.5t32 -78.5q0 -46 -32 -76.5
t-79 -30.5q-46 0 -77.5 31t-31.5 76q0 46 31.5 78t77.5 32z" />
    <glyph glyph-name="sacutedotaccent" unicode="&#x1e65;" horiz-adv-x="819" 
d="M705 961v-232h-101l-16 145q-41 22 -78 33t-74 11q-80 0 -125 -39t-45 -109q0 -57 36 -97t138 -89q16 -8 49 -23q116 -53 168 -96q38 -30 58 -75.5t20 -100.5q0 -144 -101.5 -225.5t-281.5 -81.5q-74 0 -141.5 10.5t-124.5 32.5v266h98l25 -174q43 -25 86.5 -37t87.5 -12
q87 0 139.5 45.5t52.5 119.5q0 62 -36 102.5t-172 102.5q-154 69 -209.5 130t-55.5 151q0 137 95 212t268 75q69 0 128.5 -11.5t111.5 -33.5zM409 1498h203l-299 -389h-103zM410 1816q47 0 79 -31.5t32 -78.5q0 -46 -32 -76.5t-79 -30.5q-46 0 -77.5 31t-31.5 76
q0 46 31.5 78t77.5 32z" />
    </font>
</defs>
</svg>
